<svg width="13" height="13" viewBox="0 0 13 13" fill="none" xmlns="http://www.w3.org/2000/svg">
<g clip-path="url(#clip0_735_918)">
<path d="M11.0952 1.90409C9.87592 0.685344 8.22244 0.000244141 6.49902 0.000244141C4.77496 0.000244141 3.12162 0.685279 1.90287 1.90409C0.683617 3.12335 -0.000976562 4.77631 -0.000976562 6.50024C-0.000976562 8.2243 0.683552 9.87764 1.90287 11.0964C3.12162 12.3157 4.77509 13.0002 6.49902 13.0002C8.22257 13.0002 9.87603 12.3157 11.0952 11.0964C12.32 9.88069 13.0092 8.22625 13.0092 6.50024C13.0092 4.77475 12.3201 3.11972 11.0952 1.90409V1.90409ZM5.58031 9.63142L2.78791 6.83798L4.26874 5.35572L5.61034 6.81315L9.22188 3.81548L10.2995 4.91287L5.58031 9.63142Z" fill="#D9B062"/>
</g>
<defs>
<clipPath id="clip0_735_918">
<rect width="13" height="13" fill="white"/>
</clipPath>
</defs>
</svg>
