<svg width="14" height="14" viewBox="0 0 14 14" fill="none" xmlns="http://www.w3.org/2000/svg">
<g clip-path="url(#clip0_735_956)">
<path d="M11.9487 2.05079C10.6357 0.738288 8.855 0.000488281 6.99902 0.000488281C5.14234 0.000488281 3.36182 0.738218 2.04932 2.05079C0.736278 3.36383 -0.000976562 5.14395 -0.000976562 7.00049C-0.000976562 8.85717 0.736208 10.6377 2.04932 11.9502C3.36182 13.2632 5.14248 14.0005 6.99902 14.0005C8.85514 14.0005 10.6358 13.2633 11.9487 11.9502C13.2678 10.641 14.0099 8.85927 14.0099 7.00049C14.0099 5.14227 13.2678 3.35993 11.9487 2.05079ZM6.00964 10.3725L3.00244 7.36421L4.59718 5.76793L6.04198 7.33747L9.93132 4.10921L11.0918 5.291L6.00964 10.3725Z" fill="#B3C2D1"/>
</g>
<defs>
<clipPath id="clip0_735_956">
<rect width="14" height="14" fill="white"/>
</clipPath>
</defs>
</svg>
