<svg width="20" height="20" viewBox="0 0 20 20" fill="none" xmlns="http://www.w3.org/2000/svg">
<g clip-path="url(#clip0_229_627)">
<path d="M17.07 2.92949C15.1942 1.05449 12.6504 0.000488281 9.99903 0.000488281C7.34662 0.000488281 4.80302 1.05439 2.92802 2.92949C1.05224 4.80527 -0.000976562 7.34829 -0.000976562 10.0005C-0.000976562 12.6529 1.05214 15.1965 2.92802 17.0715C4.80302 18.9473 7.34682 20.0005 9.99903 20.0005C12.6506 20.0005 15.1944 18.9474 17.07 17.0715C18.9544 15.2012 20.0146 12.6559 20.0146 10.0005C20.0146 7.34589 18.9545 4.79969 17.07 2.92949ZM8.58562 14.8177L4.28962 10.5201L6.56782 8.23969L8.63182 10.4819L14.188 5.87009L15.8458 7.55837L8.58562 14.8177Z" fill="#D9B062"/>
</g>
<defs>
<clipPath id="clip0_229_627">
<rect width="20" height="20" fill="white"/>
</clipPath>
</defs>
</svg>
