<svg width="32" height="32" viewBox="0 0 32 32" fill="none" xmlns="http://www.w3.org/2000/svg">
<path fill-rule="evenodd" clip-rule="evenodd" d="M16.6666 7.66663C17.2189 7.66663 17.6666 8.11434 17.6666 8.66663V15.6666H24.6666C25.2189 15.6666 25.6666 16.1143 25.6666 16.6666C25.6666 17.2189 25.2189 17.6666 24.6666 17.6666H17.6666V24.6666C17.6666 25.2189 17.2189 25.6666 16.6666 25.6666C16.1143 25.6666 15.6666 25.2189 15.6666 24.6666V17.6666H8.66663C8.11434 17.6666 7.66663 17.2189 7.66663 16.6666C7.66663 16.1143 8.11434 15.6666 8.66663 15.6666H15.6666V8.66663C15.6666 8.11434 16.1143 7.66663 16.6666 7.66663Z" fill="#C6973D"/>
</svg>
