<svg width="803" height="631" viewBox="0 0 803 631" fill="none" xmlns="http://www.w3.org/2000/svg">
<path d="M802.318 315.5C802.185 315.357 802.01 315.168 801.793 314.936C801.237 314.34 800.409 313.454 799.32 312.3C797.144 309.99 793.927 306.602 789.768 302.29C781.451 293.666 769.365 281.345 754.292 266.56C724.146 236.989 682.057 197.561 634.281 158.136C586.504 118.708 533.051 79.2912 480.177 49.7333C427.291 20.1691 375.04 0.5 329.653 0.5C147.846 0.5 0.5 141.551 0.5 315.5C0.5 489.449 147.846 630.5 329.653 630.5C375.04 630.5 427.291 610.831 480.177 581.267C533.051 551.709 586.504 512.292 634.281 472.864C682.057 433.439 724.146 394.011 754.292 364.44C769.365 349.655 781.451 337.334 789.768 328.71C793.927 324.398 797.144 321.01 799.32 318.7C800.409 317.546 801.237 316.66 801.793 316.064C802.01 315.832 802.185 315.643 802.318 315.5Z" stroke="#B6C1CC"/>
</svg>
