<?xml version="1.0" encoding="UTF-8"?> <svg xmlns="http://www.w3.org/2000/svg" width="82" height="83" viewBox="0 0 82 83" fill="none"><path d="M29.0968 64.813V80.684C29.0968 81.0348 29.2361 81.3712 29.4842 81.6192C29.7322 81.8672 30.0686 82.0066 30.4194 82.0066H51.5806C51.9314 82.0066 52.2678 81.8672 52.5159 81.6192C52.7639 81.3712 52.9032 81.0348 52.9032 80.684V64.813C52.9011 63.0598 52.2037 61.379 50.964 60.1393C49.7243 58.8996 48.0435 58.2022 46.2903 58.2001H44.9267C46.047 57.3734 46.8777 56.2141 47.3006 54.8876C47.7234 53.5611 47.7168 52.1349 47.2816 50.8124C46.8464 49.4898 46.0049 48.3384 44.877 47.5221C43.7491 46.7058 42.3923 46.2664 41 46.2664C39.6077 46.2664 38.2509 46.7058 37.123 47.5221C35.9951 48.3384 35.1536 49.4898 34.7184 50.8124C34.2832 52.1349 34.2766 53.5611 34.6994 54.8876C35.1223 56.2141 35.953 57.3734 37.0733 58.2001H35.7097C33.9565 58.2022 32.2757 58.8996 31.036 60.1393C29.7963 61.379 29.0989 63.0598 29.0968 64.813ZM37.0323 52.9098C37.0323 52.125 37.265 51.3579 37.7009 50.7054C38.1369 50.053 38.7566 49.5444 39.4816 49.2441C40.2066 48.9438 41.0044 48.8652 41.7741 49.0183C42.5437 49.1714 43.2507 49.5493 43.8056 50.1042C44.3605 50.6591 44.7384 51.3661 44.8915 52.1357C45.0446 52.9054 44.966 53.7032 44.6657 54.4282C44.3654 55.1532 43.8569 55.7729 43.2044 56.2089C42.5519 56.6448 41.7847 56.8775 41 56.8775C39.9477 56.8775 38.9385 56.4595 38.1944 55.7154C37.4503 54.9713 37.0323 53.9621 37.0323 52.9098ZM42.2062 68.5559L41 70.3679L39.7938 68.5599L41 64.3369L42.2062 68.5559ZM39.2463 60.8453L37.0838 68.4171C37.031 68.6014 37.0188 68.7952 37.0483 68.9847C37.0778 69.1743 37.1481 69.3551 37.2545 69.5148L39.8996 73.4825C40.0204 73.6637 40.184 73.8122 40.376 73.9149C40.5679 74.0176 40.7823 74.0714 41 74.0714C41.2177 74.0714 41.4321 74.0176 41.624 73.9149C41.816 73.8122 41.9796 73.6637 42.1004 73.4825L44.7456 69.5148C44.8519 69.3551 44.9222 69.1743 44.9517 68.9847C44.9812 68.7952 44.969 68.6014 44.9162 68.4171L42.7537 60.8453H46.2903C47.3426 60.8453 48.3518 61.2633 49.0959 62.0074C49.84 62.7515 50.2581 63.7607 50.2581 64.813V79.3614H31.7419V64.813C31.7419 63.7607 32.16 62.7515 32.9041 62.0074C33.6482 61.2633 34.6574 60.8453 35.7097 60.8453H39.2463Z" fill="#717E8B"></path><path d="M74.1796 25.3261C73.9376 24.4412 73.6585 23.5604 73.349 22.7047L70.8612 23.6041C71.1469 24.3976 71.4048 25.207 71.6283 26.0244L74.1796 25.3261Z" fill="#717E8B"></path><path d="M62.5052 11.0462C63.1255 11.6175 63.7285 12.2219 64.3026 12.8409L66.2441 11.0448C65.6238 10.3743 64.9691 9.72225 64.2973 9.10196L62.5052 11.0462Z" fill="#717E8B"></path><path d="M65.9518 14.7719C66.4716 15.4332 66.9742 16.1222 67.441 16.8258L69.6431 15.3604C69.1353 14.5986 68.593 13.8487 68.0296 13.1345L65.9518 14.7719Z" fill="#717E8B"></path><path d="M56.5575 62.0673L57.855 64.3726C58.6485 63.9229 59.4421 63.4362 60.1946 62.927L58.7226 60.7342C58.019 61.205 57.2929 61.6534 56.5575 62.0673Z" fill="#717E8B"></path><path d="M36.3591 0.316061C35.4544 0.437738 34.5432 0.599093 33.6504 0.793513L34.2138 3.37784C35.0378 3.19796 35.879 3.04984 36.7122 2.93742L36.3591 0.316061Z" fill="#717E8B"></path><path d="M68.761 18.9922C69.1696 19.7276 69.5545 20.4881 69.9037 21.2565L72.3108 20.1614C71.9325 19.3295 71.5172 18.5029 71.0728 17.7067L68.761 18.9922Z" fill="#717E8B"></path><path d="M52.6123 2.0169C51.7552 1.70874 50.8717 1.43232 49.9883 1.19425L49.2992 3.74816C50.1139 3.96771 50.9286 4.22296 51.7195 4.506L52.6123 2.0169Z" fill="#717E8B"></path><path d="M44.5842 0.191739L44.3065 2.82367C45.1463 2.91096 45.9914 3.03264 46.8194 3.18606L47.3021 0.584545C46.4107 0.419222 45.4968 0.286964 44.5842 0.191739Z" fill="#717E8B"></path><path d="M30.9907 1.48654C30.1205 1.75106 29.2475 2.05525 28.3945 2.39119L29.3653 4.85119C30.1509 4.54171 30.9524 4.26132 31.7591 4.01664L30.9907 1.48654Z" fill="#717E8B"></path><path d="M6.73194 37.2769L9.36784 37.0587C9.29907 36.2202 9.25807 35.3671 9.25807 34.5259L6.61291 34.5365C6.61291 35.4517 6.65655 36.3696 6.73194 37.2769Z" fill="#717E8B"></path><path d="M62.2063 7.32045C61.4881 6.75703 60.7369 6.21609 59.9751 5.71087L58.5136 7.91561C59.2172 8.38116 59.9103 8.88241 60.5729 9.40219L62.2063 7.32045Z" fill="#717E8B"></path><path d="M68.1936 55.4439L66.1026 53.8237C65.5881 54.485 65.0445 55.1463 64.4679 55.7679L66.424 57.5481C67.0416 56.8775 67.6368 56.162 68.1936 55.4439Z" fill="#717E8B"></path><path d="M22.8806 60.4631L21.3729 62.6347C22.1268 63.1638 22.9071 63.6571 23.6927 64.1147L25.0246 61.8293C24.2998 61.4061 23.5803 60.9471 22.8806 60.4631Z" fill="#717E8B"></path><path d="M60.762 59.2344L62.4113 61.3029C63.1281 60.7315 63.8277 60.1271 64.4917 59.5055L62.6903 57.5745C62.07 58.1472 61.4233 58.7067 60.762 59.2344Z" fill="#717E8B"></path><path d="M9.63897 29.4631L7.02555 29.0544C6.88536 29.9524 6.77955 30.8703 6.71078 31.7855L9.35594 31.9839C9.41149 31.1388 9.50936 30.2937 9.63897 29.4631Z" fill="#717E8B"></path><path d="M55.1622 3.04851L54.0724 5.45958C54.8421 5.80742 55.6053 6.19096 56.3419 6.59832L57.6222 4.2838C56.8234 3.84206 55.9967 3.42677 55.1622 3.04851Z" fill="#717E8B"></path><path d="M41.7724 2.661L41.8491 0.0158353L41.6481 0.00657727C40.8003 -0.0106163 39.9406 0.00657726 39.0955 0.0502224L39.2396 2.69538C40.02 2.65174 40.8148 2.64248 41.5991 2.65174L41.7724 2.661Z" fill="#717E8B"></path><path d="M10.1839 42.0646C9.98152 41.2486 9.80958 40.4127 9.67204 39.5808L7.06259 40.0093C7.21071 40.9114 7.3972 41.8173 7.61675 42.7021L10.1839 42.0646Z" fill="#717E8B"></path><path d="M20.8611 58.9302C20.209 58.3945 19.5702 57.8258 18.9658 57.2426L17.1274 59.1444C17.7887 59.778 18.4751 60.3943 19.1827 60.9749L20.8611 58.9302Z" fill="#717E8B"></path><path d="M23.4626 4.80887L24.8143 7.0837C25.5364 6.65519 26.2863 6.24783 27.0455 5.87619L25.8803 3.49554C25.0589 3.90422 24.2456 4.34464 23.4626 4.80887Z" fill="#717E8B"></path><path d="M17.2094 55.4068C16.6513 54.776 16.1117 54.1133 15.6051 53.4402L13.489 55.0272C14.0366 55.7586 14.6211 56.4755 15.2269 57.1592L17.2094 55.4068Z" fill="#717E8B"></path><path d="M14.1635 51.3518C13.7125 50.6402 13.2853 49.897 12.8912 49.155L10.5516 50.389C10.9774 51.1971 11.4403 51.9972 11.9284 52.7696L14.1635 51.3518Z" fill="#717E8B"></path><path d="M11.8027 46.8656C11.4721 46.0932 11.1679 45.2957 10.8994 44.4955L8.38649 45.338C8.67746 46.2043 9.00678 47.0693 9.3652 47.9065L11.8027 46.8656Z" fill="#717E8B"></path><path d="M11.9032 2.65174C9.549 2.65174 7.24763 3.34985 5.29015 4.65779C3.33268 5.96574 1.80701 7.82477 0.906084 9.99979C0.00515746 12.1748 -0.230566 14.5682 0.228722 16.8772C0.688011 19.1862 1.82168 21.3071 3.48638 22.9718C5.15108 24.6365 7.27203 25.7702 9.58103 26.2295C11.89 26.6888 14.2834 26.453 16.4584 25.5521C18.6334 24.6512 20.4925 23.1255 21.8004 21.168C23.1083 19.2106 23.8065 16.9092 23.8065 14.555C23.8026 11.3992 22.5473 8.37382 20.3158 6.14236C18.0844 3.91091 15.059 2.65559 11.9032 2.65174ZM11.9032 23.813C10.0722 23.813 8.28221 23.2701 6.75973 22.2528C5.23724 21.2355 4.05062 19.7896 3.34989 18.0979C2.64917 16.4062 2.46583 14.5447 2.82306 12.7488C3.18028 10.9529 4.06203 9.30329 5.35679 8.00852C6.65155 6.71376 8.30118 5.83201 10.0971 5.47479C11.893 5.11757 13.7544 5.30091 15.4461 6.00163C17.1378 6.70235 18.5837 7.88898 19.601 9.41146C20.6183 10.9339 21.1613 12.7239 21.1613 14.555C21.1585 17.0095 20.1822 19.3627 18.4466 21.0983C16.711 22.8339 14.3578 23.8102 11.9032 23.813Z" fill="#717E8B"></path><path d="M11.2419 11.9098H12.5645C12.7399 11.9098 12.9081 11.9795 13.0321 12.1035C13.1561 12.2275 13.2258 12.3957 13.2258 12.5711H15.871C15.8708 11.8091 15.6075 11.0705 15.1255 10.4803C14.6435 9.8901 13.9724 9.48449 13.2258 9.33209V7.94206H10.5807V9.33209C9.77851 9.49664 9.06597 9.95298 8.58099 10.6127C8.096 11.2725 7.87308 12.0888 7.95539 12.9035C8.0377 13.7181 8.41938 14.4733 9.02653 15.0227C9.63368 15.5722 10.4231 15.8768 11.2419 15.8775H12.5645C12.7399 15.8775 12.9081 15.9472 13.0321 16.0712C13.1561 16.1952 13.2258 16.3634 13.2258 16.5388C13.2258 16.7142 13.1561 16.8824 13.0321 17.0064C12.9081 17.1305 12.7399 17.2001 12.5645 17.2001H11.2419C11.0666 17.2001 10.8984 17.1305 10.7743 17.0064C10.6503 16.8824 10.5807 16.7142 10.5807 16.5388H7.93549C7.93564 17.3008 8.19898 18.0394 8.68098 18.6296C9.16297 19.2198 9.83403 19.6254 10.5807 19.7778V21.1679H13.2258V19.7778C14.0279 19.6133 14.7405 19.1569 15.2255 18.4972C15.7105 17.8374 15.9334 17.0212 15.8511 16.2065C15.7688 15.3918 15.3871 14.6366 14.7799 14.0872C14.1728 13.5378 13.3834 13.2332 12.5645 13.2324H11.2419C11.0666 13.2324 10.8984 13.1627 10.7743 13.0387C10.6503 12.9147 10.5807 12.7465 10.5807 12.5711C10.5807 12.3957 10.6503 12.2275 10.7743 12.1035C10.8984 11.9795 11.0666 11.9098 11.2419 11.9098Z" fill="#717E8B"></path><path d="M70.0968 28.4421C67.7425 28.4421 65.4412 29.1402 63.4837 30.4481C61.5262 31.7561 60.0006 33.6151 59.0996 35.7901C58.1987 37.9651 57.963 40.3585 58.4223 42.6675C58.8816 44.9765 60.0152 47.0974 61.6799 48.7621C63.3446 50.4268 65.4656 51.5605 67.7746 52.0198C70.0836 52.4791 72.4769 52.2433 74.6519 51.3424C76.827 50.4415 78.686 48.9158 79.9939 46.9584C81.3019 45.0009 82 42.6995 82 40.3453C81.9962 37.1895 80.7408 34.1641 78.5094 31.9327C76.2779 29.7012 73.2525 28.4459 70.0968 28.4421ZM70.0968 49.6033C68.2657 49.6033 66.4758 49.0604 64.9533 48.0431C63.4308 47.0258 62.2442 45.5799 61.5434 43.8882C60.8427 42.1965 60.6594 40.335 61.0166 38.5391C61.3738 36.7432 62.2556 35.0936 63.5503 33.7988C64.8451 32.5041 66.4947 31.6223 68.2906 31.2651C70.0865 30.9079 71.948 31.0912 73.6397 31.7919C75.3314 32.4927 76.7773 33.6793 77.7946 35.2018C78.8119 36.7243 79.3548 38.5142 79.3548 40.3453C79.352 42.7998 78.3757 45.153 76.6401 46.8886C74.9045 48.6242 72.5513 49.6005 70.0968 49.6033Z" fill="#717E8B"></path><path d="M64.8064 41.6679H67.4516V44.313H64.8064V41.6679Z" fill="#717E8B"></path><path d="M68.7742 39.0227H71.4194V44.313H68.7742V39.0227Z" fill="#717E8B"></path><path d="M72.7419 36.3775H75.3871V44.313H72.7419V36.3775Z" fill="#717E8B"></path><path d="M19.6509 40.8743L31.8081 28.7172L38.3548 35.2626C38.6029 35.5105 38.9392 35.6498 39.2899 35.6498C39.6406 35.6498 39.9769 35.5105 40.225 35.2626L53.3185 22.1691L55.1886 24.0392C55.4366 24.2872 55.773 24.4266 56.1237 24.4267C56.2431 24.4272 56.3619 24.4112 56.4768 24.3791C56.7016 24.316 56.9056 24.1945 57.0682 24.027C57.2308 23.8596 57.3462 23.652 57.4026 23.4255L59.2728 15.9437C59.3283 15.722 59.3254 15.4898 59.2645 15.2696C59.2035 15.0494 59.0866 14.8487 58.925 14.6871C58.7635 14.5256 58.5628 14.4086 58.3426 14.3477C58.1224 14.2867 57.8901 14.2839 57.6685 14.3394L50.1919 16.2095C49.9646 16.2661 49.7564 16.382 49.5886 16.5455C49.4208 16.7089 49.2995 16.914 49.2369 17.1397C49.1744 17.3654 49.1729 17.6037 49.2326 17.8302C49.2924 18.0567 49.4112 18.2633 49.5769 18.4288L51.4484 20.2989L39.2899 32.4574L32.7431 25.9106C32.4951 25.6627 32.1588 25.5234 31.8081 25.5234C31.4574 25.5234 31.121 25.6627 30.873 25.9106L17.7795 39.0042L19.6509 40.8743ZM56.1766 17.4408L55.4069 20.5172L53.099 18.2106L56.1766 17.4408Z" fill="#717E8B"></path></svg> 