<svg width="360" height="467" viewBox="0 0 360 467" fill="none" xmlns="http://www.w3.org/2000/svg">
<path d="M290.537 342.919C350.801 300.765 367.777 238.955 326.307 200.43C298.89 174.96 251.206 164.979 220.728 141.587C204.782 129.348 193.953 113.736 179.024 100.794C150.388 75.9663 90.8947 69.8544 38.082 87.442C9.27708 97.0345 -18.2932 113.549 -36.8277 133.51C-72.0697 171.463 -74.9234 217.055 -49.9864 246.101C-33.5933 265.195 -7.22615 276.377 23.3708 282.916C54.1285 289.489 91.342 281.14 122.958 286.996C148.012 291.636 168.675 304.75 169.643 324.779C170.443 341.334 158.492 362.392 171.293 373.68C182.329 383.412 206.641 380.303 227.17 373.71C251.722 365.826 272.969 355.208 290.537 342.919Z" fill="url(#paint0_linear_172_909)" fill-opacity="0.17"/>
<path d="M-62.9933 163.974C-148.765 184.822 -195.705 232.663 -167.487 275.075C-148.829 303.116 -100.728 323.041 -77.7448 350.076C-65.7193 364.22 -60.8822 379.961 -50.3014 394.451C-30.0056 422.246 32.8999 441.777 99.2393 439.774C135.422 438.681 173.399 431.472 202.97 419.181C259.197 395.81 283.144 358.182 268.857 327.737C259.465 307.723 235.451 291.945 204.648 279.046C173.683 266.08 128.783 264.093 96.5421 251.522C70.9944 241.56 54.1597 225.538 62.2271 208.471C68.895 194.363 91.6964 179.557 82.7106 166.972C74.9638 156.123 46.6999 152.854 21.0232 153.427C-9.68302 154.113 -37.9884 157.897 -62.9933 163.974Z" fill="url(#paint1_linear_172_909)" fill-opacity="0.17"/>
<defs>
<linearGradient id="paint0_linear_172_909" x1="55.6755" y1="452.988" x2="376.003" y2="286.281" gradientUnits="userSpaceOnUse">
<stop stop-color="#D9AFD9"/>
<stop offset="1" stop-color="#97C6E1"/>
</linearGradient>
<linearGradient id="paint1_linear_172_909" x1="246.553" y1="128.292" x2="-184.397" y2="181.146" gradientUnits="userSpaceOnUse">
<stop stop-color="#D9AFD9"/>
<stop offset="1" stop-color="#97D9E1"/>
</linearGradient>
</defs>
</svg>
