<svg width="14" height="14" viewBox="0 0 14 14" fill="none" xmlns="http://www.w3.org/2000/svg">
<path d="M13.4697 13.4712C13.2092 13.7317 12.7878 13.7317 12.527 13.4712L6.99981 7.94218L1.47142 13.4712C1.21091 13.7317 0.789428 13.7317 0.528631 13.4712C0.268126 13.2107 0.268126 12.7891 0.528631 12.5283L6.05827 7.00054L0.529464 1.47154C0.268959 1.21101 0.268959 0.789478 0.529464 0.528652C0.789969 0.268118 1.21145 0.268118 1.47225 0.528652L6.99981 6.0589L12.5282 0.529902C12.7887 0.269368 13.2102 0.269368 13.471 0.529902C13.7315 0.790436 13.7315 1.21197 13.471 1.47279L7.94134 7.00054L13.4697 12.5295C13.7322 12.7879 13.7322 13.2129 13.4697 13.4712Z" fill="#3D3D3D"/>
</svg>
