<?xml version="1.0" encoding="UTF-8"?> <svg xmlns="http://www.w3.org/2000/svg" width="74" height="74" viewBox="0 0 74 74" fill="none"><path d="M73.4998 65.867L65.1449 59.8993C64.9665 59.7719 64.7563 59.6961 64.5376 59.6803C64.3189 59.6645 64.1001 59.7092 63.9051 59.8096C63.7102 59.9099 63.5466 60.0621 63.4325 60.2493C63.3183 60.4365 63.2579 60.6516 63.2579 60.8708V63.2579H56.0967V50.1289C56.0968 49.8858 56.0227 49.6484 55.8843 49.4486C55.7459 49.2487 55.5497 49.0959 55.322 49.0106L46.5483 45.7212V36.9999C46.5483 36.6834 46.4225 36.3798 46.1987 36.156C45.9749 35.9321 45.6713 35.8064 45.3547 35.8064H28.6451C28.3286 35.8064 28.025 35.9321 27.8011 36.156C27.5773 36.3798 27.4516 36.6834 27.4516 36.9999V45.7212L18.6778 49.0106C18.4502 49.0959 18.254 49.2487 18.1156 49.4486C17.9771 49.6484 17.903 49.8858 17.9032 50.1289V63.2579H1.19355C0.876998 63.2579 0.573415 63.3837 0.349581 63.6075C0.125748 63.8313 0 64.1349 0 64.4515V69.2257C0 69.5422 0.125748 69.8458 0.349581 70.0696C0.573415 70.2935 0.876998 70.4192 1.19355 70.4192H63.2579V72.8063C63.2579 73.0256 63.3183 73.2406 63.4325 73.4278C63.5466 73.6151 63.7102 73.7672 63.9051 73.8676C64.1001 73.9679 64.3189 74.0127 64.5376 73.9968C64.7563 73.981 64.9665 73.9053 65.1449 73.7778L73.4998 67.8101C73.6545 67.6997 73.7806 67.5539 73.8676 67.385C73.9546 67.216 74 67.0286 74 66.8386C74 66.6485 73.9546 66.4612 73.8676 66.2922C73.7806 66.1232 73.6545 65.9774 73.4998 65.867ZM46.5483 48.2706L53.7096 50.9561V63.2579H46.5483V48.2706ZM29.8386 38.1935H44.1612V63.2579H41.7741V59.6773C41.7741 58.4111 41.2711 57.1968 40.3758 56.3014C39.4804 55.4061 38.2661 54.9031 36.9999 54.9031C35.7337 54.9031 34.5194 55.4061 33.6241 56.3014C32.7287 57.1968 32.2257 58.4111 32.2257 59.6773V63.2579H29.8386V38.1935ZM39.387 59.6773V63.2579H34.6128V59.6773C34.6128 59.0442 34.8643 58.437 35.312 57.9894C35.7597 57.5417 36.3668 57.2902 36.9999 57.2902C37.633 57.2902 38.2402 57.5417 38.6879 57.9894C39.1355 58.437 39.387 59.0442 39.387 59.6773ZM20.2903 50.9561L27.4516 48.2706V63.2579H20.2903V50.9561ZM65.645 70.4872V69.2257C65.645 68.9091 65.5193 68.6055 65.2954 68.3817C65.0716 68.1579 64.768 68.0321 64.4515 68.0321H2.38709V65.645H64.4515C64.768 65.645 65.0716 65.5193 65.2954 65.2954C65.5193 65.0716 65.645 64.768 65.645 64.4515V63.1899L70.7522 66.8386L65.645 70.4872Z" fill="#717E8B"></path><path d="M38.1935 33.4193V23.6513C38.9898 23.3698 39.661 22.8157 40.0884 22.0872C40.5158 21.3586 40.6718 20.5024 40.529 19.67C40.3862 18.8375 39.9536 18.0823 39.3078 17.5378C38.662 16.9934 37.8446 16.6948 36.9999 16.6948C36.1553 16.6948 35.3378 16.9934 34.692 17.5378C34.0462 18.0823 33.6137 18.8375 33.4709 19.67C33.328 20.5024 33.4841 21.3586 33.9115 22.0872C34.3388 22.8157 35.01 23.3698 35.8064 23.6513V33.4193H38.1935ZM36.9999 19.0967C37.236 19.0967 37.4667 19.1667 37.663 19.2979C37.8593 19.429 38.0123 19.6154 38.1026 19.8335C38.193 20.0516 38.2166 20.2916 38.1705 20.5231C38.1245 20.7547 38.0108 20.9673 37.8439 21.1342C37.677 21.3012 37.4643 21.4148 37.2328 21.4609C37.0012 21.5069 36.7613 21.4833 36.5432 21.393C36.3251 21.3026 36.1387 21.1497 36.0075 20.9534C35.8764 20.7571 35.8064 20.5263 35.8064 20.2903C35.8064 19.9737 35.9321 19.6701 36.156 19.4463C36.3798 19.2225 36.6834 19.0967 36.9999 19.0967Z" fill="#717E8B"></path><path d="M31.0322 33.4193V28.6451C31.0322 28.4598 30.9891 28.2771 30.9062 28.1113C30.8233 27.9456 30.703 27.8014 30.5548 27.6903L28.4673 26.1243C28.5801 25.7821 28.6401 25.4247 28.6451 25.0645C28.6456 24.2644 28.3788 23.4871 27.887 22.856C27.3953 22.225 26.7067 21.7763 25.9308 21.5813C25.1548 21.3864 24.336 21.4562 23.6043 21.7799C22.8726 22.1035 22.2701 22.6623 21.8923 23.3676C21.5146 24.0729 21.3833 24.8841 21.5194 25.6725C21.6555 26.4609 22.0511 27.1813 22.6434 27.7191C23.2357 28.257 23.9907 28.5815 24.7885 28.6411C25.5864 28.7008 26.3813 28.4921 27.0469 28.0483L28.6451 29.2419V33.4193H31.0322ZM25.0645 26.258C24.8284 26.258 24.5976 26.188 24.4014 26.0569C24.2051 25.9257 24.0521 25.7393 23.9618 25.5212C23.8714 25.3031 23.8478 25.0631 23.8939 24.8316C23.9399 24.6001 24.0536 24.3874 24.2205 24.2205C24.3874 24.0536 24.6001 23.9399 24.8316 23.8939C25.0631 23.8478 25.3031 23.8714 25.5212 23.9618C25.7393 24.0521 25.9257 24.2051 26.0569 24.4014C26.188 24.5976 26.258 24.8284 26.258 25.0645C26.258 25.381 26.1323 25.6846 25.9084 25.9084C25.6846 26.1323 25.381 26.258 25.0645 26.258Z" fill="#717E8B"></path><path d="M42.9677 28.6451V33.4193H45.3547V29.2419L46.9529 28.0483C47.6777 28.5518 48.5578 28.7813 49.4361 28.6961C50.3145 28.6109 51.134 28.2164 51.7485 27.5829C52.363 26.9495 52.7325 26.1185 52.791 25.2379C52.8496 24.3574 52.5935 23.4846 52.0683 22.7754C51.5431 22.0662 50.7831 21.5667 49.9237 21.3658C49.0644 21.165 48.1617 21.276 47.3766 21.679C46.5915 22.082 45.9751 22.7508 45.6373 23.5661C45.2996 24.3814 45.2625 25.2902 45.5326 26.1303L43.4451 27.6903C43.2968 27.8014 43.1765 27.9456 43.0937 28.1113C43.0108 28.2771 42.9677 28.4598 42.9677 28.6451ZM48.9354 23.8709C49.1714 23.8709 49.4022 23.9409 49.5985 24.0721C49.7948 24.2032 49.9477 24.3896 50.0381 24.6077C50.1284 24.8258 50.1521 25.0658 50.106 25.2973C50.0599 25.5288 49.9463 25.7415 49.7793 25.9084C49.6124 26.0754 49.3998 26.189 49.1682 26.2351C48.9367 26.2811 48.6967 26.2575 48.4786 26.1672C48.2605 26.0768 48.0741 25.9238 47.943 25.7276C47.8118 25.5313 47.7418 25.3005 47.7418 25.0645C47.7418 24.7479 47.8676 24.4443 48.0914 24.2205C48.3153 23.9967 48.6188 23.8709 48.9354 23.8709Z" fill="#717E8B"></path><path d="M32.8225 40.5806H35.2096V42.9677H32.8225V40.5806Z" fill="#717E8B"></path><path d="M38.7902 40.5806H41.1773V42.9677H38.7902V40.5806Z" fill="#717E8B"></path><path d="M32.8225 45.3547H35.2096V47.7418H32.8225V45.3547Z" fill="#717E8B"></path><path d="M38.7902 45.3547H41.1773V47.7418H38.7902V45.3547Z" fill="#717E8B"></path><path d="M32.8225 50.1289H35.2096V52.516H32.8225V50.1289Z" fill="#717E8B"></path><path d="M38.7902 50.1289H41.1773V52.516H38.7902V50.1289Z" fill="#717E8B"></path><path d="M2.23074 31.9751L5.03438 32.9073C4.85996 34.2645 4.77305 35.6315 4.77418 36.9999C4.77347 38.3727 4.86038 39.744 5.03438 41.1057L2.23193 42.0236C1.63196 42.2224 1.13475 42.65 0.848427 43.2135C0.562107 43.7769 0.509842 44.4307 0.702999 45.0325L2.9218 51.8357C3.01669 52.1361 3.17009 52.4147 3.37316 52.6555C3.57623 52.8963 3.82495 53.0945 4.10498 53.2388C4.38502 53.383 4.69084 53.4704 5.0048 53.4959C5.31877 53.5214 5.63467 53.4845 5.93431 53.3873L8.73795 52.4754C9.87972 54.5706 11.2512 56.5321 12.827 58.3238L14.6245 56.7531C13.1592 55.0862 11.8842 53.2611 10.8231 51.3117C10.5517 50.8293 10.123 50.4546 9.60859 50.2502C9.0942 50.0458 8.52525 50.0241 7.99676 50.1886L5.19551 51.0957L2.9767 44.2925L5.77796 43.3747C6.30947 43.2022 6.76331 42.8482 7.0599 42.3746C7.35648 41.901 7.47688 41.3381 7.39999 40.7847C7.07773 38.269 7.07773 35.7225 7.39999 33.2068C7.47521 32.6548 7.35397 32.0938 7.05746 31.6221C6.76095 31.1504 6.30805 30.798 5.77796 30.6264L2.97312 29.7074L5.19073 22.8922L7.99676 23.8124C8.52843 23.9777 9.10078 23.9551 9.61778 23.7485C10.1348 23.5418 10.565 23.1636 10.8362 22.6774C12.0484 20.4479 13.5444 18.385 15.2869 16.5402C15.6734 16.1371 15.9056 15.6108 15.9429 15.0537C15.9802 14.4966 15.8203 13.9441 15.491 13.493L13.758 11.1059L19.5503 6.89511L21.2893 9.29414C21.622 9.74091 22.0995 10.0583 22.6402 10.1922C23.1809 10.3261 23.7513 10.2681 24.254 10.0282C26.542 8.93428 28.9631 8.14422 31.4559 7.67808C32.0047 7.57721 32.5012 7.28798 32.8596 6.86027C33.218 6.43256 33.416 5.89318 33.4193 5.33515V2.38709H40.5806V5.33515C40.584 5.89352 40.7823 6.43317 41.1412 6.86093C41.5001 7.28869 41.9971 7.57771 42.5463 7.67808C45.0472 8.14606 47.476 8.93934 49.7709 10.0377C50.2743 10.2729 50.8437 10.3261 51.3819 10.1883C51.9202 10.0506 52.394 9.73031 52.7225 9.28221L54.4579 6.89511L60.2383 11.1L58.5172 13.4751C58.1843 13.9265 58.0215 14.4809 58.0576 15.0406C58.0936 15.6003 58.3261 16.1292 58.7141 16.5342C60.4614 18.3862 61.9614 20.4567 63.1768 22.6941C63.4501 23.175 63.8798 23.5477 64.3945 23.7503C64.9092 23.9529 65.4777 23.9732 66.0055 23.8077L68.8067 22.9006L71.0255 29.7038L68.2243 30.6216C67.6919 30.7932 67.237 31.1468 66.9394 31.6205C66.6419 32.0942 66.5209 32.6575 66.5975 33.2116C66.9197 35.7273 66.9197 38.2738 66.5975 40.7894C66.5225 41.3419 66.6442 41.9033 66.9414 42.375C67.2386 42.8468 67.6923 43.199 68.2231 43.3699L71.0279 44.2889L68.8103 51.1041L66.0031 50.1874C65.4713 50.022 64.8987 50.0446 64.3815 50.2513C63.8643 50.4579 63.4339 50.8361 63.1625 51.3225C62.105 53.2629 60.8348 55.0795 59.3753 56.7388L61.1728 58.3095C62.7505 56.5158 64.1221 54.5509 65.2619 52.4516L68.0739 53.373C68.6766 53.5667 69.3316 53.5131 69.8947 53.2239C70.4579 52.9347 70.8831 52.4336 71.0769 51.8309L73.298 45.0277C73.4903 44.4269 73.4376 43.7744 73.1512 43.2122C72.8649 42.6501 72.3682 42.2237 71.7691 42.0259L68.9655 41.0938C69.1399 39.7362 69.2269 38.3687 69.2257 36.9999C69.2264 35.6272 69.1395 34.2558 68.9655 32.8941L71.7679 31.9763C72.3679 31.7775 72.8651 31.3499 73.1514 30.7864C73.4377 30.2229 73.49 29.5692 73.2969 28.9674L71.0781 22.1701C70.9826 21.8703 70.8287 21.5923 70.6254 21.3521C70.422 21.112 70.1732 20.9144 69.8933 20.7708C69.6133 20.6271 69.3077 20.5402 68.994 20.5151C68.6803 20.49 68.3648 20.5272 68.0655 20.6245L65.2619 21.534C63.9486 19.121 62.3282 16.8884 60.4412 14.8919L62.167 12.5048C62.3527 12.2512 62.4864 11.9634 62.5606 11.658C62.6348 11.3526 62.6479 11.0355 62.5992 10.725C62.5505 10.4145 62.441 10.1166 62.2769 9.84857C62.1128 9.5805 61.8974 9.34747 61.6431 9.16285L55.858 4.96993C55.6034 4.78217 55.3139 4.64704 55.0065 4.57244C54.6991 4.49785 54.38 4.48528 54.0676 4.53547C53.7585 4.58354 53.4621 4.69273 53.1957 4.85668C52.9293 5.02062 52.6982 5.23603 52.516 5.49031L50.7746 7.8774C48.2956 6.68992 45.6706 5.8351 42.9677 5.33515V2.38709C42.9677 1.754 42.7162 1.14683 42.2685 0.699163C41.8208 0.251496 41.2137 0 40.5806 0H33.4193C32.7862 0 32.179 0.251496 31.7314 0.699163C31.2837 1.14683 31.0322 1.754 31.0322 2.38709L31.0167 5.33157C28.3159 5.8358 25.6929 6.69169 23.2145 7.8774L21.4898 5.50225C21.3066 5.24631 21.0745 5.02924 20.8068 4.86359C20.5392 4.69793 20.2414 4.58698 19.9306 4.53714C19.6199 4.4873 19.3023 4.49958 18.9963 4.57325C18.6903 4.64692 18.4019 4.78053 18.1479 4.96634L12.352 9.17121C11.8409 9.54412 11.4987 10.1047 11.4007 10.7298C11.3026 11.3549 11.4568 11.9933 11.8292 12.5048L13.5503 14.899C11.6647 16.8956 10.0469 19.1292 8.73795 21.5435L5.92596 20.6221C5.32325 20.4284 4.66828 20.482 4.10512 20.7712C3.54196 21.0604 3.11674 21.5615 2.92299 22.1641L0.701805 28.9674C0.507706 29.569 0.55955 30.223 0.846015 30.7865C1.13248 31.3501 1.63029 31.7774 2.23074 31.9751Z" fill="#717E8B"></path><path d="M61.3817 46.7548C62.6282 43.654 63.2652 40.3419 63.2579 36.9999C63.2579 30.0359 60.4915 23.357 55.5671 18.4327C50.6428 13.5084 43.964 10.7419 36.9999 10.7419C30.0359 10.7419 23.357 13.5084 18.4327 18.4327C13.5084 23.357 10.7419 30.0359 10.7419 36.9999C10.7346 40.3419 11.3717 43.654 12.6182 46.7548L14.8334 45.8632C13.7003 43.0459 13.1216 40.0365 13.129 36.9999C13.129 30.669 15.644 24.5973 20.1206 20.1206C24.5973 15.644 30.669 13.129 36.9999 13.129C43.3309 13.129 49.4025 15.644 53.8792 20.1206C58.3559 24.5973 60.8708 30.669 60.8708 36.9999C60.8783 40.0365 60.2995 43.0459 59.1665 45.8632L61.3817 46.7548Z" fill="#717E8B"></path></svg> 