<?xml version="1.0" encoding="UTF-8"?> <svg xmlns="http://www.w3.org/2000/svg" width="40" height="40" viewBox="0 0 40 40" fill="none"><path d="M0.662449 35.4318C0.624662 35.5639 0.61515 35.7025 0.634527 35.8386C0.653905 35.9747 0.701742 36.1052 0.774949 36.2217L1.4812 37.4159C1.62649 37.6503 1.857 37.8199 2.12475 37.8894C2.3925 37.9589 2.67688 37.923 2.9187 37.7891L3.0812 37.702C3.32442 37.8723 3.58403 38.0182 3.8562 38.1374V38.2743C3.86753 38.5465 3.98466 38.8038 4.18287 38.9917C4.38109 39.1797 4.6449 39.2837 4.9187 39.2819H6.3312C6.61026 39.2836 6.87865 39.1753 7.07773 38.9806C7.27681 38.786 7.3904 38.5209 7.3937 38.2432V38.1063C7.66657 37.9885 7.92632 37.8425 8.1687 37.6709L8.3312 37.7642C8.5741 37.896 8.85851 37.9301 9.1259 37.8595C9.3933 37.789 9.62335 37.6191 9.7687 37.3848L10.4749 36.2217C10.5482 36.1052 10.596 35.9747 10.6154 35.8386C10.6347 35.7025 10.6252 35.5639 10.5874 35.4318C10.5489 35.2998 10.4843 35.1768 10.3974 35.0699C10.3104 34.9631 10.2029 34.8747 10.0812 34.8098L9.94995 34.7351C9.94995 34.6045 9.94995 34.4677 9.94995 34.3308C9.94995 34.194 9.94995 34.0571 9.94995 33.9265L10.0812 33.8519C10.2029 33.787 10.3104 33.6985 10.3974 33.5917C10.4843 33.4849 10.5489 33.3619 10.5874 33.2299C10.6252 33.0977 10.6347 32.9591 10.6154 32.823C10.596 32.687 10.5482 32.5565 10.4749 32.44L9.7687 31.2768C9.62341 31.0425 9.3929 30.8729 9.12515 30.8033C8.85739 30.7338 8.57302 30.7698 8.3312 30.9036L8.1687 30.9907C7.92548 30.8204 7.66587 30.6746 7.3937 30.5553V30.4185C7.39876 30.2768 7.37497 30.1356 7.32377 30.0033C7.27256 29.871 7.195 29.7504 7.09574 29.6487C6.99649 29.547 6.87759 29.4663 6.7462 29.4116C6.61481 29.3568 6.47365 29.3291 6.3312 29.33H4.9187C4.63964 29.3283 4.37125 29.4366 4.17217 29.6313C3.97309 29.8259 3.8595 30.091 3.8562 30.3687V30.5055C3.58333 30.6234 3.32358 30.7693 3.0812 30.9409L2.9187 30.8476C2.6758 30.7159 2.39139 30.6818 2.12399 30.7523C1.8566 30.8229 1.62655 30.9928 1.4812 31.2271L0.774949 32.3902C0.701742 32.5067 0.653905 32.6372 0.634527 32.7733C0.61515 32.9094 0.624662 33.0479 0.662449 33.1801C0.700984 33.3121 0.765613 33.4351 0.852545 33.5419C0.939477 33.6487 1.04696 33.7372 1.1687 33.8021L1.29995 33.8768C1.29995 34.0074 1.29995 34.1442 1.29995 34.2811C1.29995 34.4179 1.29995 34.5547 1.29995 34.6854L1.1687 34.76C1.04174 34.8304 0.931069 34.9266 0.843858 35.0423C0.756647 35.1581 0.694842 35.2907 0.662449 35.4318ZM2.53745 34.3059C2.52817 34.1755 2.52817 34.0445 2.53745 33.9141C2.56287 33.7073 2.52521 33.4976 2.42936 33.3124C2.33351 33.1271 2.18389 32.9749 1.99995 32.8754L1.93745 32.838L2.4312 32.017L2.5437 32.0792C2.73073 32.1844 2.94463 32.2328 3.15899 32.2185C3.37335 32.2041 3.57879 32.1276 3.74995 31.9983C3.96045 31.8444 4.18927 31.717 4.4312 31.6189C4.62953 31.544 4.8006 31.4113 4.92211 31.2383C5.04362 31.0652 5.10995 30.8597 5.11245 30.6486V30.574H6.1437V30.6486C6.1462 30.8597 6.21253 31.0652 6.33404 31.2383C6.45555 31.4113 6.62661 31.544 6.82495 31.6189C7.06688 31.717 7.2957 31.8444 7.5062 31.9983C7.67421 32.1213 7.87387 32.1941 8.08191 32.2085C8.28995 32.2228 8.49779 32.1779 8.6812 32.0792L8.7937 32.017L9.28745 32.838L9.22495 32.8754C9.04101 32.9749 8.89139 33.1271 8.79554 33.3124C8.69969 33.4976 8.66202 33.7073 8.68745 33.9141C8.72905 34.1737 8.72905 34.4382 8.68745 34.6978C8.66202 34.9046 8.69969 35.1143 8.79554 35.2995C8.89139 35.4847 9.04101 35.637 9.22495 35.7365L9.28745 35.7738L8.7937 36.5949L8.6812 36.5327C8.49823 36.4324 8.29012 36.3868 8.08175 36.4011C7.87338 36.4154 7.67357 36.4892 7.5062 36.6135C7.2957 36.7675 7.06688 36.8949 6.82495 36.993C6.62661 37.0679 6.45555 37.2005 6.33404 37.3736C6.21253 37.5467 6.1462 37.7522 6.1437 37.9633V38.0379H5.1062V37.9633C5.10369 37.7522 5.03737 37.5467 4.91586 37.3736C4.79435 37.2005 4.62328 37.0679 4.42495 36.993C4.18519 36.8945 3.9585 36.767 3.74995 36.6135C3.58194 36.4906 3.38228 36.4177 3.17424 36.4034C2.9662 36.3891 2.75836 36.4339 2.57495 36.5327L2.46245 36.5949L1.9687 35.7738L2.0312 35.7365C2.21514 35.637 2.36476 35.4847 2.46061 35.2995C2.55646 35.1143 2.59412 34.9046 2.5687 34.6978C2.54689 34.5682 2.53436 34.4373 2.5312 34.3059H2.53745Z" fill="white"></path><path d="M5.625 36.4829C6.05765 36.4829 6.48058 36.3552 6.84031 36.116C7.20004 35.8768 7.48042 35.5368 7.64599 35.139C7.81155 34.7412 7.85487 34.3035 7.77047 33.8812C7.68606 33.4589 7.47772 33.071 7.1718 32.7665C6.86587 32.4621 6.47609 32.2547 6.05176 32.1707C5.62743 32.0867 5.18759 32.1298 4.78788 32.2946C4.38817 32.4594 4.04653 32.7384 3.80616 33.0964C3.56579 33.4544 3.4375 33.8753 3.4375 34.3059C3.4375 34.8833 3.66797 35.437 4.0782 35.8452C4.48844 36.2535 5.04484 36.4829 5.625 36.4829ZM5.625 33.3729C5.81042 33.3729 5.99168 33.4276 6.14585 33.5301C6.30002 33.6327 6.42018 33.7784 6.49114 33.9488C6.56209 34.1193 6.58066 34.3069 6.54449 34.4879C6.50831 34.6689 6.41902 34.8351 6.28791 34.9656C6.1568 35.0961 5.98975 35.185 5.8079 35.221C5.62604 35.257 5.43754 35.2385 5.26623 35.1679C5.09493 35.0972 4.94851 34.9777 4.8455 34.8242C4.74248 34.6708 4.6875 34.4904 4.6875 34.3059C4.6875 34.0584 4.78627 33.8211 4.96209 33.6462C5.1379 33.4712 5.37636 33.3729 5.625 33.3729Z" fill="white"></path><path d="M39.1062 11.404C39.0235 11.3463 38.928 11.3093 38.8279 11.2963C38.7278 11.2833 38.6259 11.2947 38.5312 11.3294L34.9562 12.648L35.3874 13.8111L37.1124 13.1891L25.9249 29.3299H25.2999L24.4999 24.976C24.4344 24.6307 24.2696 24.3118 24.0255 24.0578C23.7814 23.8039 23.4686 23.6259 23.1249 23.5454L19.9249 22.886L19.9499 21.244L21.4874 22.009C21.7778 22.1497 22.1007 22.2106 22.4226 22.1855C22.7446 22.1603 23.0539 22.05 23.3187 21.866L26.6124 19.5584C26.7366 19.4704 26.8242 19.3403 26.8588 19.1925C26.8933 19.0447 26.8724 18.8895 26.7999 18.756L26.2499 17.711V0.71814H24.9999V1.51429L24.8749 1.55161C24.5339 1.66736 24.1731 1.71433 23.8136 1.68977C23.4541 1.6652 23.1031 1.56961 22.7812 1.40855C22.3117 1.17251 21.7997 1.03171 21.275 0.994342C20.7503 0.956969 20.2234 1.02377 19.7249 1.19086L19.1749 1.37123C19.0508 1.41296 18.943 1.49246 18.8667 1.59849C18.7904 1.70453 18.7496 1.83173 18.7499 1.96213V5.6941C18.7504 5.79278 18.7744 5.88994 18.8201 5.97754C18.8657 6.06514 18.9316 6.14068 19.0124 6.19792C19.0926 6.25572 19.1853 6.29375 19.2831 6.30889C19.3809 6.32403 19.4809 6.31584 19.5749 6.285L20.1249 6.10462C20.466 5.98887 20.8268 5.9419 21.1863 5.96647C21.5458 5.99103 21.8967 6.08663 22.2187 6.24768C22.7727 6.52697 23.3852 6.6719 24.0062 6.67063C24.342 6.66793 24.676 6.62193 24.9999 6.5338V17.0144L22.3999 18.389L21.4499 17.5929C20.6258 16.897 19.6394 16.418 18.5812 16.1996L18.7249 16.1312C19.1913 15.8837 19.5735 15.5042 19.8233 15.0407C20.0732 14.5772 20.1794 14.0504 20.1287 13.5268C20.078 13.0033 19.8726 12.5064 19.5384 12.0989C19.2042 11.6914 18.7562 11.3916 18.2509 11.2373C17.7456 11.0829 17.2057 11.081 16.6994 11.2318C16.193 11.3826 15.7429 11.6792 15.4058 12.0843C15.0687 12.4894 14.8597 12.9849 14.8053 13.5081C14.7509 14.0313 14.8534 14.5588 15.0999 15.024C15.2577 15.3233 15.4696 15.5911 15.7249 15.814C14.9037 15.8321 14.091 15.9834 13.3187 16.2618L11.8187 16.8029C11.5673 16.8939 11.3393 17.0393 11.1512 17.2286C10.9631 17.4179 10.8197 17.6464 10.7312 17.8976L9.08743 22.631C9.03501 22.7798 9.04136 22.9429 9.10517 23.0873C9.16899 23.2316 9.28552 23.3464 9.43118 23.4085L11.1499 24.1487C11.2265 24.1823 11.3091 24.2002 11.3927 24.2014C11.4764 24.2026 11.5594 24.1871 11.6369 24.1558C11.7145 24.1244 11.7849 24.0779 11.844 24.019C11.9031 23.9601 11.9498 23.89 11.9812 23.8128L13.5749 19.9129L14.3187 19.7885L14.2499 23.5205C14.2445 24.0471 14.4136 24.5609 14.7312 24.9822L14.4749 33.6839H12.4999V34.9279H18.7499C18.8491 34.9274 18.9467 34.9035 19.0347 34.8581C19.1228 34.8126 19.1987 34.747 19.2562 34.6666L22.1937 30.5739H26.2499C26.3507 30.5737 26.4499 30.5493 26.5392 30.5028C26.6284 30.4562 26.705 30.3888 26.7624 30.3065L38.1249 13.8982V15.7144H39.3749V11.9141C39.3748 11.8138 39.3502 11.715 39.3034 11.6262C39.2566 11.5374 39.189 11.4612 39.1062 11.404ZM24.8749 5.28358C24.5336 5.39797 24.173 5.44421 23.8137 5.41966C23.4544 5.39512 23.1036 5.30026 22.7812 5.14053C21.9209 4.70947 20.9328 4.6034 19.9999 4.84197V2.40997L20.1249 2.37265C20.466 2.2569 20.8268 2.20993 21.1863 2.23449C21.5458 2.25906 21.8967 2.35465 22.2187 2.51571C23.0787 2.94801 24.0681 3.052 24.9999 2.80804V5.24626L24.8749 5.28358ZM16.7937 12.536C17.1279 12.3591 17.5189 12.321 17.8812 12.4303C18.25 12.5356 18.5622 12.7814 18.7499 13.1145C18.9257 13.4479 18.9616 13.837 18.8499 14.1968C18.7913 14.3762 18.6969 14.5419 18.5723 14.6841C18.4477 14.8263 18.2956 14.9419 18.1249 15.024C17.9611 15.1131 17.7809 15.1684 17.5951 15.1866C17.4093 15.2048 17.2218 15.1854 17.0437 15.1298C16.864 15.0762 16.6969 14.9876 16.552 14.869C16.4072 14.7505 16.2875 14.6044 16.1999 14.4394C16.0291 14.1078 15.9956 13.7229 16.1066 13.3672C16.2176 13.0114 16.4643 12.713 16.7937 12.536ZM16.6312 33.6839H15.7249L15.9812 25.8654C16.0687 25.8654 16.1562 25.9214 16.2499 25.94L17.5624 26.164L16.6312 33.6839ZM21.3687 29.5912L18.4312 33.6839H17.8874L18.7937 26.3754L20.9687 26.7486L21.7499 29.3299C21.5939 29.3652 21.4575 29.4587 21.3687 29.5912ZM23.0499 29.3299L22.0562 26.0209C22.0229 25.9097 21.959 25.81 21.8717 25.7331C21.7845 25.6562 21.6773 25.605 21.5624 25.5855L16.4624 24.7147C16.196 24.6662 15.9556 24.5251 15.784 24.3167C15.6123 24.1082 15.5205 23.8459 15.5249 23.5765L15.6249 19.0794C15.6261 18.9887 15.6073 18.8987 15.5698 18.816C15.5324 18.7332 15.4772 18.6596 15.4081 18.6003C15.339 18.541 15.2577 18.4975 15.1699 18.4729C15.0821 18.4482 14.99 18.4429 14.8999 18.4574L13.0499 18.756C12.9437 18.7727 12.8436 18.8164 12.7593 18.8828C12.675 18.9493 12.6093 19.0363 12.5687 19.1354L11.0874 22.7679L10.4624 22.5066L11.9374 18.3206C11.9645 18.2438 12.0081 18.1739 12.0654 18.1159C12.1227 18.0578 12.1921 18.0131 12.2687 17.9847L13.7687 17.4436C14.8837 17.0422 16.0887 16.9561 17.2499 17.1948L18.3312 17.4187C19.1831 17.5961 19.9776 17.9807 20.6437 18.5383L21.8937 19.6081C21.9887 19.6878 22.1055 19.7375 22.2291 19.7508C22.3527 19.7641 22.4774 19.7404 22.5874 19.6828L25.1437 18.333L25.4124 18.8431L22.5687 20.8397C22.4887 20.8939 22.3959 20.9265 22.2995 20.9341C22.203 20.9417 22.1062 20.9242 22.0187 20.8832L19.6249 19.6766C19.5299 19.622 19.4221 19.5932 19.3124 19.5932C19.2027 19.5932 19.0949 19.622 18.9999 19.6766C18.9096 19.7313 18.8347 19.8079 18.7822 19.8993C18.7297 19.9907 18.7014 20.0938 18.6999 20.199L18.6437 23.3525C18.6407 23.4981 18.6891 23.64 18.7805 23.7536C18.8719 23.8673 19.0004 23.9455 19.1437 23.9745L22.8437 24.7396C22.9513 24.7604 23.05 24.8132 23.127 24.8909C23.204 24.9686 23.2555 25.0676 23.2749 25.175L24.0562 29.3299H23.0499Z" fill="white"></path></svg> 