<?xml version="1.0" encoding="UTF-8"?> <svg xmlns="http://www.w3.org/2000/svg" width="40" height="40" viewBox="0 0 40 40" fill="none"><path d="M18.125 0.625C17.1361 0.625 16.1694 0.918245 15.3471 1.46765C14.5249 2.01706 13.884 2.79795 13.5056 3.71158C13.1272 4.62521 13.0281 5.63055 13.2211 6.60045C13.414 7.57036 13.8902 8.46127 14.5895 9.16054C15.2887 9.8598 16.1796 10.336 17.1495 10.5289C18.1195 10.7219 19.1248 10.6228 20.0384 10.2444C20.952 9.86596 21.7329 9.2251 22.2823 8.40285C22.8318 7.58061 23.125 6.61391 23.125 5.625C23.1235 4.29938 22.5962 3.02847 21.6589 2.09111C20.7215 1.15375 19.4506 0.626489 18.125 0.625ZM19.375 9.15625C18.5672 9.44793 17.6828 9.44793 16.875 9.15625V7.28125C16.8752 7.16737 16.9204 7.05818 17.0009 6.9776C17.0814 6.89701 17.1905 6.85158 17.3044 6.85125H18.945C19.059 6.85142 19.1683 6.89677 19.2489 6.97738C19.3295 7.05798 19.3748 7.16726 19.375 7.28125V9.15625ZM17.6562 4.53125C17.6562 4.43854 17.6837 4.34791 17.7352 4.27083C17.7868 4.19374 17.86 4.13366 17.9456 4.09818C18.0313 4.0627 18.1255 4.05342 18.2164 4.07151C18.3074 4.08959 18.3909 4.13424 18.4565 4.19979C18.522 4.26535 18.5667 4.34887 18.5847 4.4398C18.6028 4.53073 18.5935 4.62498 18.5581 4.71063C18.5226 4.79629 18.4625 4.86949 18.3854 4.921C18.3083 4.97251 18.2177 5 18.125 5C18.0007 4.99984 17.8816 4.9504 17.7937 4.86252C17.7059 4.77465 17.6564 4.65552 17.6562 4.53125ZM20.625 8.4125V7.28188C20.6237 6.91695 20.5035 6.56239 20.2826 6.27196C20.0616 5.98153 19.752 5.77107 19.4006 5.6725C19.6235 5.42574 19.7699 5.11964 19.8223 4.7913C19.8747 4.46296 19.8307 4.12649 19.6957 3.82265C19.5606 3.51881 19.3404 3.26065 19.0616 3.07947C18.7828 2.89828 18.4575 2.80185 18.125 2.80185C17.7925 2.80185 17.4672 2.89828 17.1884 3.07947C16.9096 3.26065 16.6894 3.51881 16.5543 3.82265C16.4193 4.12649 16.3753 4.46296 16.4277 4.7913C16.4801 5.11964 16.6265 5.42574 16.8494 5.6725C16.498 5.77107 16.1884 5.98153 15.9674 6.27196C15.7465 6.56239 15.6263 6.91695 15.625 7.28188V8.4125C15.0589 7.90619 14.6599 7.23993 14.4808 6.50189C14.3017 5.76384 14.3509 4.98881 14.6219 4.27933C14.8928 3.56986 15.3729 2.95939 15.9984 2.5287C16.624 2.09802 17.3655 1.86742 18.125 1.86742C18.8845 1.86742 19.626 2.09802 20.2516 2.5287C20.8771 2.95939 21.3572 3.56986 21.6281 4.27933C21.8991 4.98881 21.9483 5.76384 21.7692 6.50189C21.5901 7.23993 21.1911 7.90619 20.625 8.4125Z" fill="white"></path><path d="M34.375 0.625C33.3861 0.625 32.4194 0.918245 31.5971 1.46765C30.7749 2.01706 30.134 2.79795 29.7556 3.71158C29.3772 4.62521 29.2781 5.63055 29.4711 6.60045C29.664 7.57036 30.1402 8.46127 30.8395 9.16054C31.5387 9.8598 32.4296 10.336 33.3995 10.5289C34.3695 10.7219 35.3748 10.6228 36.2884 10.2444C37.202 9.86596 37.9829 9.2251 38.5323 8.40285C39.0818 7.58061 39.375 6.61391 39.375 5.625C39.3735 4.29938 38.8462 3.02847 37.9089 2.09111C36.9715 1.15375 35.7006 0.626489 34.375 0.625ZM35.625 9.15625C34.8172 9.44793 33.9328 9.44793 33.125 9.15625V7.28125C33.1252 7.16737 33.1704 7.05818 33.2509 6.9776C33.3314 6.89701 33.4405 6.85158 33.5544 6.85125H35.195C35.309 6.85142 35.4183 6.89677 35.4989 6.97738C35.5795 7.05798 35.6248 7.16726 35.625 7.28125V9.15625ZM33.9062 4.53125C33.9062 4.43854 33.9337 4.34791 33.9852 4.27083C34.0368 4.19374 34.11 4.13366 34.1956 4.09818C34.2813 4.0627 34.3755 4.05342 34.4664 4.07151C34.5574 4.08959 34.6409 4.13424 34.7065 4.19979C34.772 4.26535 34.8167 4.34887 34.8347 4.4398C34.8528 4.53073 34.8435 4.62498 34.8081 4.71063C34.7726 4.79629 34.7125 4.86949 34.6354 4.921C34.5583 4.97251 34.4677 5 34.375 5C34.2507 4.99984 34.1316 4.9504 34.0437 4.86252C33.9559 4.77465 33.9064 4.65552 33.9062 4.53125ZM36.875 8.4125V7.28188C36.8737 6.91695 36.7535 6.56239 36.5326 6.27196C36.3116 5.98153 36.002 5.77107 35.6506 5.6725C35.8735 5.42574 36.0199 5.11964 36.0723 4.7913C36.1247 4.46296 36.0807 4.12649 35.9457 3.82265C35.8106 3.51881 35.5904 3.26065 35.3116 3.07947C35.0328 2.89828 34.7075 2.80185 34.375 2.80185C34.0425 2.80185 33.7172 2.89828 33.4384 3.07947C33.1596 3.26065 32.9394 3.51881 32.8043 3.82265C32.6693 4.12649 32.6253 4.46296 32.6777 4.7913C32.7301 5.11964 32.8765 5.42574 33.0994 5.6725C32.748 5.77107 32.4384 5.98153 32.2174 6.27196C31.9965 6.56239 31.8763 6.91695 31.875 7.28188V8.4125C31.3089 7.90619 30.9099 7.23993 30.7308 6.50189C30.5517 5.76384 30.6009 4.98881 30.8719 4.27933C31.1428 3.56986 31.6229 2.95939 32.2484 2.5287C32.874 2.09802 33.6155 1.86742 34.375 1.86742C35.1345 1.86742 35.876 2.09802 36.5016 2.5287C37.1271 2.95939 37.6072 3.56986 37.8781 4.27933C38.1491 4.98881 38.1983 5.76384 38.0192 6.50189C37.8401 7.23993 37.4411 7.90619 36.875 8.4125Z" fill="white"></path><path d="M34.375 16.875C33.3861 16.875 32.4194 17.1682 31.5971 17.7177C30.7749 18.2671 30.134 19.048 29.7556 19.9616C29.3772 20.8752 29.2781 21.8805 29.4711 22.8505C29.664 23.8204 30.1402 24.7113 30.8395 25.4105C31.5387 26.1098 32.4296 26.586 33.3995 26.7789C34.3695 26.9719 35.3748 26.8728 36.2884 26.4944C37.202 26.116 37.9829 25.4751 38.5323 24.6529C39.0818 23.8306 39.375 22.8639 39.375 21.875C39.3735 20.5494 38.8462 19.2785 37.9089 18.3411C36.9715 17.4038 35.7006 16.8765 34.375 16.875ZM35.625 25.4063C34.8172 25.6979 33.9328 25.6979 33.125 25.4063V23.5313C33.1252 23.4174 33.1704 23.3082 33.2509 23.2276C33.3314 23.147 33.4405 23.1016 33.5544 23.1013H35.195C35.309 23.1014 35.4183 23.1468 35.4989 23.2274C35.5795 23.308 35.6248 23.4173 35.625 23.5313V25.4063ZM33.9062 20.7813C33.9062 20.6885 33.9337 20.5979 33.9852 20.5208C34.0368 20.4437 34.11 20.3837 34.1956 20.3482C34.2813 20.3127 34.3755 20.3034 34.4664 20.3215C34.5574 20.3396 34.6409 20.3842 34.7065 20.4498C34.772 20.5154 34.8167 20.5989 34.8347 20.6898C34.8528 20.7807 34.8435 20.875 34.8081 20.9606C34.7726 21.0463 34.7125 21.1195 34.6354 21.171C34.5583 21.2225 34.4677 21.25 34.375 21.25C34.2507 21.2498 34.1316 21.2004 34.0437 21.1125C33.9559 21.0247 33.9064 20.9055 33.9062 20.7813ZM36.875 24.6625V23.5319C36.8737 23.167 36.7535 22.8124 36.5326 22.522C36.3116 22.2315 36.002 22.0211 35.6506 21.9225C35.8735 21.6757 36.0199 21.3696 36.0723 21.0413C36.1247 20.713 36.0807 20.3765 35.9457 20.0726C35.8106 19.7688 35.5904 19.5107 35.3116 19.3295C35.0328 19.1483 34.7075 19.0518 34.375 19.0518C34.0425 19.0518 33.7172 19.1483 33.4384 19.3295C33.1596 19.5107 32.9394 19.7688 32.8043 20.0726C32.6693 20.3765 32.6253 20.713 32.6777 21.0413C32.7301 21.3696 32.8765 21.6757 33.0994 21.9225C32.748 22.0211 32.4384 22.2315 32.2174 22.522C31.9965 22.8124 31.8763 23.167 31.875 23.5319V24.6625C31.3089 24.1562 30.9099 23.4899 30.7308 22.7519C30.5517 22.0138 30.6009 21.2388 30.8719 20.5293C31.1428 19.8199 31.6229 19.2094 32.2484 18.7787C32.874 18.348 33.6155 18.1174 34.375 18.1174C35.1345 18.1174 35.876 18.348 36.5016 18.7787C37.1271 19.2094 37.6072 19.8199 37.8781 20.5293C38.1491 21.2388 38.1983 22.0138 38.0192 22.7519C37.8401 23.4899 37.4411 24.1562 36.875 24.6625Z" fill="white"></path><path d="M21.6537 17.5713L21.5625 17.6213C21.3785 17.496 21.1838 17.3873 20.9806 17.2963V17.2338C20.9778 16.9707 20.8709 16.7194 20.6832 16.5351C20.4955 16.3507 20.2425 16.2482 19.9794 16.25H18.7706C18.5075 16.2485 18.2546 16.3513 18.0672 16.5359C17.8797 16.7206 17.7731 16.9719 17.7706 17.235V17.2975C17.5675 17.3885 17.3728 17.4973 17.1887 17.6225L17.0975 17.5719C16.8699 17.4443 16.6016 17.4101 16.3492 17.4766C16.0969 17.5431 15.8802 17.705 15.745 17.9281L15.1425 18.9281C15.074 19.0397 15.029 19.1642 15.0104 19.2938C14.9918 19.4234 15 19.5555 15.0344 19.6819C15.0691 19.8102 15.1293 19.9302 15.2113 20.0347C15.2934 20.1393 15.3956 20.2263 15.5119 20.2906L15.5744 20.3263C15.5656 20.4256 15.5612 20.5256 15.5612 20.6269C15.5612 20.7281 15.5656 20.8275 15.5744 20.9275L15.5119 20.9625C15.3953 21.0268 15.2928 21.1138 15.2106 21.2185C15.1283 21.3232 15.068 21.4434 15.0331 21.5719C14.9991 21.6976 14.991 21.829 15.0095 21.958C15.028 22.0869 15.0726 22.2108 15.1406 22.3219L15.7444 23.3219C15.8801 23.5443 16.0968 23.7055 16.3489 23.7716C16.601 23.8376 16.8688 23.8035 17.0962 23.6763L17.1875 23.6263C17.3715 23.7515 17.5662 23.8602 17.7694 23.9513V24.0138C17.7715 24.2773 17.8782 24.5291 18.0659 24.7141C18.2536 24.899 18.5071 25.0018 18.7706 25H19.9794C20.2425 25.0015 20.4954 24.8987 20.6828 24.7141C20.8703 24.5294 20.9769 24.2781 20.9794 24.015V23.9525C21.1825 23.8615 21.3772 23.7527 21.5612 23.6275L21.6525 23.6781C21.8803 23.8051 22.1484 23.8389 22.4005 23.7725C22.6527 23.706 22.8693 23.5446 23.005 23.3219L23.6075 22.3219C23.676 22.2103 23.721 22.0858 23.7396 21.9562C23.7582 21.8266 23.75 21.6945 23.7156 21.5681C23.6809 21.4398 23.6207 21.3199 23.5387 21.2153C23.4566 21.1107 23.3544 21.0237 23.2381 20.9594L23.1756 20.9238C23.1844 20.8244 23.1887 20.7244 23.1887 20.6231C23.1887 20.5219 23.1844 20.4225 23.1756 20.3225L23.2381 20.2875C23.3547 20.2232 23.4572 20.1362 23.5394 20.0315C23.6217 19.9268 23.682 19.8066 23.7169 19.6781C23.7509 19.5524 23.7589 19.421 23.7405 19.292C23.722 19.1631 23.6774 19.0393 23.6094 18.9281L23.0056 17.9281C22.8702 17.7054 22.6537 17.5438 22.4016 17.4772C22.1495 17.4107 21.8815 17.4444 21.6537 17.5713ZM21.9375 20.625C21.9373 20.7325 21.9295 20.8398 21.9144 20.9463C21.8886 21.1377 21.9203 21.3324 22.0053 21.5059C22.0903 21.6793 22.2248 21.8237 22.3919 21.9206L22.0581 22.4744L22.0369 22.4625C21.865 22.3698 21.6703 22.3279 21.4755 22.3417C21.2807 22.3556 21.0939 22.4245 20.9369 22.5406C20.7615 22.6692 20.5706 22.7753 20.3687 22.8563C20.1864 22.9261 20.0286 23.0481 19.9151 23.207C19.8016 23.366 19.7375 23.5548 19.7306 23.75H19.0194C19.0124 23.5547 18.9482 23.3657 18.8346 23.2067C18.721 23.0477 18.5631 22.9256 18.3806 22.8556C18.1791 22.7758 17.9884 22.6708 17.8131 22.5431C17.6558 22.4274 17.4688 22.3588 17.274 22.345C17.0792 22.3313 16.8845 22.3731 16.7125 22.4656L16.6919 22.4769L16.3581 21.9231C16.5247 21.8267 16.6589 21.6831 16.7439 21.5105C16.8288 21.3378 16.8608 21.1439 16.8356 20.9531C16.8205 20.8444 16.8128 20.7348 16.8125 20.625C16.8127 20.5175 16.8205 20.4102 16.8356 20.3038C16.8614 20.1123 16.8297 19.9176 16.7447 19.7441C16.6597 19.5707 16.5252 19.4263 16.3581 19.3294L16.6919 18.7756L16.7131 18.7875C16.8851 18.8799 17.0797 18.9217 17.2744 18.9078C17.4692 18.894 17.656 18.8252 17.8131 18.7094C17.9887 18.5819 18.1795 18.4769 18.3812 18.3969C18.5641 18.3268 18.7222 18.2043 18.8357 18.0448C18.9492 17.8852 19.0131 17.6957 19.0194 17.5H19.7306C19.7376 17.6953 19.8018 17.8843 19.9154 18.0433C20.029 18.2024 20.1869 18.3244 20.3694 18.3944C20.5709 18.4742 20.7616 18.5792 20.9369 18.7069C21.0941 18.8228 21.2811 18.8917 21.4759 18.9054C21.6708 18.9192 21.8656 18.8772 22.0375 18.7844L22.0581 18.7731L22.3919 19.3269C22.2254 19.4234 22.0912 19.567 22.0061 19.7396C21.921 19.9122 21.8889 20.1061 21.9137 20.2969C21.9294 20.4056 21.9373 20.5152 21.9375 20.625Z" fill="white"></path><path d="M19.375 18.75C19.0042 18.75 18.6416 18.86 18.3333 19.066C18.025 19.272 17.7846 19.5649 17.6427 19.9075C17.5008 20.2501 17.4637 20.6271 17.536 20.9908C17.6084 21.3545 17.7869 21.6886 18.0492 21.9508C18.3114 22.2131 18.6455 22.3916 19.0092 22.464C19.3729 22.5363 19.7499 22.4992 20.0925 22.3573C20.4351 22.2154 20.728 21.975 20.934 21.6667C21.14 21.3584 21.25 20.9958 21.25 20.625C21.25 20.1277 21.0525 19.6508 20.7008 19.2992C20.3492 18.9475 19.8723 18.75 19.375 18.75ZM19.375 21.25C19.2514 21.25 19.1305 21.2133 19.0278 21.1447C18.925 21.076 18.8449 20.9784 18.7976 20.8642C18.7503 20.75 18.7379 20.6243 18.762 20.5031C18.7861 20.3818 18.8456 20.2705 18.9331 20.1831C19.0205 20.0957 19.1318 20.0361 19.2531 20.012C19.3743 19.9879 19.5 20.0003 19.6142 20.0476C19.7284 20.0949 19.826 20.175 19.8947 20.2778C19.9633 20.3806 20 20.5014 20 20.625C20 20.7908 19.9342 20.9497 19.8169 21.0669C19.6997 21.1842 19.5408 21.25 19.375 21.25Z" fill="white"></path><path d="M1.25 37.5H5.165C5.54762 38.0499 6.0515 38.5044 6.63773 38.8286C7.22397 39.1528 7.87686 39.3379 8.546 39.3696C9.21514 39.4014 9.88262 39.2789 10.4969 39.0116C11.1112 38.7444 11.6558 38.3395 12.0887 37.8283C12.5217 37.3172 12.8313 36.7133 12.9938 36.0634C13.1563 35.4135 13.1672 34.735 13.0257 34.0802C12.8843 33.4254 12.5942 32.8119 12.1779 32.287C11.7617 31.7622 11.2304 31.34 10.625 31.0531V30.625C10.624 29.7965 10.2944 29.0022 9.70861 28.4164C9.12278 27.8306 8.3285 27.501 7.5 27.5H7.37125C7.82902 27.1374 8.16257 26.6414 8.32563 26.0806C8.48869 25.5199 8.47317 24.9223 8.28121 24.3708C8.08926 23.8193 7.73039 23.3412 7.25442 23.0029C6.77844 22.6646 6.20896 22.4828 5.625 22.4828C5.04104 22.4828 4.47156 22.6646 3.99558 23.0029C3.51961 23.3412 3.16074 23.8193 2.96879 24.3708C2.77683 24.9223 2.76131 25.5199 2.92437 26.0806C3.08743 26.6414 3.42098 27.1374 3.87875 27.5H3.75C2.9215 27.501 2.12722 27.8306 1.54139 28.4164C0.955551 29.0022 0.625992 29.7965 0.625 30.625V36.875C0.625 37.0408 0.690848 37.1997 0.808058 37.3169C0.925268 37.4342 1.08424 37.5 1.25 37.5ZM11.875 35C11.875 35.6181 11.6917 36.2223 11.3483 36.7362C11.005 37.2501 10.5169 37.6506 9.94589 37.8871C9.37487 38.1236 8.74653 38.1855 8.14034 38.065C7.53415 37.9444 6.97733 37.6468 6.54029 37.2097C6.10325 36.7727 5.80562 36.2159 5.68505 35.6097C5.56447 35.0035 5.62635 34.3751 5.86288 33.8041C6.0994 33.2331 6.49994 32.745 7.01384 32.4017C7.52775 32.0583 8.13193 31.875 8.75 31.875C9.5785 31.876 10.3728 32.2056 10.9586 32.7914C11.5444 33.3772 11.874 34.1715 11.875 35ZM5.625 23.75C5.93403 23.75 6.23613 23.8416 6.49308 24.0133C6.75003 24.185 6.9503 24.4291 7.06856 24.7146C7.18682 25.0001 7.21777 25.3142 7.15748 25.6173C7.09719 25.9204 6.94837 26.1988 6.72985 26.4174C6.51133 26.6359 6.23292 26.7847 5.92983 26.845C5.62673 26.9053 5.31257 26.8743 5.02706 26.7561C4.74155 26.6378 4.49752 26.4375 4.32583 26.1806C4.15414 25.9236 4.0625 25.6215 4.0625 25.3125C4.0625 24.8981 4.22712 24.5007 4.52015 24.2076C4.81317 23.9146 5.2106 23.75 5.625 23.75ZM1.875 30.625C1.875 30.1277 2.07254 29.6508 2.42418 29.2992C2.77581 28.9475 3.25272 28.75 3.75 28.75H7.5C7.99728 28.75 8.4742 28.9475 8.82583 29.2992C9.17746 29.6508 9.375 30.1277 9.375 30.625V30.675C8.64851 30.5688 7.90698 30.6476 7.21901 30.9041C6.53104 31.1605 5.91886 31.5863 5.4391 32.1421C4.95934 32.6978 4.62749 33.3656 4.47427 34.0837C4.32105 34.8017 4.35139 35.5468 4.5625 36.25H1.875V30.625Z" fill="white"></path><path d="M8.125 32.3213V32.8213C7.79096 32.9097 7.50041 33.1164 7.30738 33.403C7.11436 33.6897 7.03201 34.0366 7.07564 34.3794C7.11927 34.7222 7.28591 35.0375 7.54458 35.2666C7.80325 35.4957 8.13633 35.6231 8.48187 35.625H9.01812C9.06362 35.6277 9.10637 35.6477 9.13764 35.6808C9.1689 35.714 9.18631 35.7579 9.18631 35.8034C9.18631 35.849 9.1689 35.8929 9.13764 35.926C9.10637 35.9592 9.06362 35.9792 9.01812 35.9819H8.48187C8.43468 35.9817 8.38947 35.9629 8.3561 35.9295C8.32273 35.8962 8.30392 35.8509 8.30375 35.8038H7.05375C7.05471 36.1195 7.1604 36.4261 7.35426 36.6754C7.54811 36.9246 7.81918 37.1026 8.125 37.1813V37.6813H9.375V37.1813C9.71125 37.0947 10.0044 36.8884 10.1993 36.6011C10.3943 36.3138 10.4777 35.9652 10.4339 35.6208C10.3901 35.2763 10.2221 34.9597 9.96141 34.7304C9.70075 34.501 9.36534 34.3746 9.01812 34.375H8.48187C8.43638 34.3723 8.39363 34.3523 8.36236 34.3192C8.3311 34.286 8.31369 34.2421 8.31369 34.1966C8.31369 34.151 8.3311 34.1071 8.36236 34.074C8.39363 34.0408 8.43638 34.0208 8.48187 34.0181H9.01812C9.06532 34.0183 9.11053 34.0371 9.1439 34.0705C9.17727 34.1038 9.19608 34.1491 9.19625 34.1963H10.4463C10.4453 33.8805 10.3396 33.5739 10.1457 33.3247C9.95189 33.0754 9.68082 32.8975 9.375 32.8188V32.3188L8.125 32.3213Z" fill="white"></path><path d="M10.8648 25.7698L13.9903 23.2687L14.7715 24.2449L11.6461 26.7461L10.8648 25.7698Z" fill="white"></path><path d="M23.3043 15.8089L29.5532 9.55988L30.437 10.4436L24.188 16.6926L23.3043 15.8089Z" fill="white"></path><path d="M18.1417 12.0087L19.3679 11.7637L19.9926 14.89L18.7663 15.135L18.1417 12.0087Z" fill="white"></path><path d="M24.8781 21.2198L25.1231 19.9936L28.2494 20.6182L28.0044 21.8444L24.8781 21.2198Z" fill="white"></path></svg> 