<?xml version="1.0" encoding="UTF-8"?> <svg xmlns="http://www.w3.org/2000/svg" width="48" height="48" viewBox="0 0 48 48" fill="none"><g clip-path="url(#clip0_1_1199)"><path d="M4.5 22.4325C5.24168 22.4325 5.9667 22.2126 6.58339 21.8005C7.20007 21.3885 7.68072 20.8028 7.96455 20.1176C8.24838 19.4323 8.32264 18.6783 8.17795 17.9509C8.03325 17.2235 7.6761 16.5553 7.15165 16.0308C6.6272 15.5064 5.95902 15.1492 5.23159 15.0046C4.50416 14.8599 3.75016 14.9341 3.06494 15.2179C2.37971 15.5018 1.79404 15.9824 1.38199 16.5991C0.969934 17.2158 0.75 17.9408 0.75 18.6825C0.75 19.6771 1.14509 20.6309 1.84835 21.3341C2.19657 21.6824 2.60997 21.9586 3.06494 22.147C3.51991 22.3355 4.00754 22.4325 4.5 22.4325ZM4.5 16.4325C4.94501 16.4325 5.38002 16.5645 5.75003 16.8117C6.12004 17.0589 6.40843 17.4103 6.57873 17.8215C6.74903 18.2326 6.79358 18.685 6.70677 19.1215C6.61995 19.5579 6.40566 19.9588 6.09099 20.2735C5.77632 20.5882 5.37541 20.8024 4.93895 20.8893C4.5025 20.9761 4.0501 20.9315 3.63896 20.7612C3.22783 20.5909 2.87643 20.3025 2.62919 19.9325C2.38196 19.5625 2.25 19.1275 2.25 18.6825C2.25 18.0858 2.48705 17.5135 2.90901 17.0915C3.33097 16.6695 3.90326 16.4325 4.5 16.4325Z" fill="white"></path><path d="M43.5 15C42.7583 15 42.0333 15.2199 41.4166 15.632C40.7999 16.044 40.3193 16.6297 40.0355 17.3149C39.7516 18.0002 39.6774 18.7542 39.8221 19.4816C39.9668 20.209 40.3239 20.8772 40.8484 21.4017C41.3728 21.9261 42.041 22.2833 42.7684 22.4279C43.4958 22.5726 44.2498 22.4984 44.9351 22.2145C45.6203 21.9307 46.206 21.4501 46.618 20.8334C47.0301 20.2167 47.25 19.4917 47.25 18.75C47.25 17.7554 46.8549 16.8016 46.1517 16.0983C45.4484 15.3951 44.4946 15 43.5 15ZM43.5 21C43.055 21 42.62 20.868 42.25 20.6208C41.88 20.3736 41.5916 20.0222 41.4213 19.611C41.251 19.1999 41.2064 18.7475 41.2932 18.311C41.3801 17.8746 41.5943 17.4737 41.909 17.159C42.2237 16.8443 42.6246 16.63 43.061 16.5432C43.4975 16.4564 43.9499 16.501 44.361 16.6713C44.7722 16.8416 45.1236 17.13 45.3708 17.5C45.618 17.87 45.75 18.305 45.75 18.75C45.75 19.3467 45.5129 19.919 45.091 20.341C44.669 20.7629 44.0967 21 43.5 21Z" fill="white"></path><path d="M27.75 4.5C27.75 3.75832 27.5301 3.0333 27.118 2.41661C26.706 1.79993 26.1203 1.31928 25.4351 1.03545C24.7498 0.751625 23.9958 0.677362 23.2684 0.822057C22.541 0.966751 21.8728 1.3239 21.3484 1.84835C20.8239 2.3728 20.4668 3.04098 20.3221 3.76841C20.1774 4.49584 20.2516 5.24984 20.5355 5.93507C20.8193 6.62029 21.2999 7.20596 21.9166 7.61801C22.5333 8.03007 23.2583 8.25 24 8.25C24.9946 8.25 25.9484 7.85491 26.6517 7.15165C27.3549 6.44839 27.75 5.49456 27.75 4.5ZM24 6.75C23.555 6.75 23.12 6.61804 22.75 6.37081C22.38 6.12358 22.0916 5.77217 21.9213 5.36104C21.751 4.94991 21.7064 4.49751 21.7932 4.06105C21.8801 3.62459 22.0943 3.22368 22.409 2.90901C22.7237 2.59434 23.1246 2.38005 23.561 2.29323C23.9975 2.20642 24.4499 2.25098 24.861 2.42127C25.2722 2.59157 25.6236 2.87996 25.8708 3.24997C26.118 3.61998 26.25 4.05499 26.25 4.5C26.25 5.09674 26.0129 5.66904 25.591 6.09099C25.169 6.51295 24.5967 6.75 24 6.75Z" fill="white"></path><path d="M12 45.75C12.7417 45.75 13.4667 45.5301 14.0834 45.118C14.7001 44.706 15.1807 44.1203 15.4645 43.4351C15.7484 42.7498 15.8226 41.9958 15.6779 41.2684C15.5333 40.541 15.1761 39.8728 14.6517 39.3484C14.1272 38.8239 13.459 38.4668 12.7316 38.3221C12.0042 38.1774 11.2502 38.2516 10.5649 38.5355C9.87971 38.8193 9.29404 39.2999 8.88199 39.9166C8.46993 40.5333 8.25 41.2583 8.25 42C8.25 42.9946 8.64509 43.9484 9.34835 44.6517C10.0516 45.3549 11.0054 45.75 12 45.75ZM12 39.75C12.445 39.75 12.88 39.882 13.25 40.1292C13.62 40.3764 13.9084 40.7278 14.0787 41.139C14.249 41.5501 14.2936 42.0025 14.2068 42.439C14.12 42.8754 13.9057 43.2763 13.591 43.591C13.2763 43.9057 12.8754 44.12 12.439 44.2068C12.0025 44.2936 11.5501 44.249 11.139 44.0787C10.7278 43.9084 10.3764 43.62 10.1292 43.25C9.88196 42.88 9.75 42.445 9.75 42C9.75 41.4033 9.98705 40.831 10.409 40.409C10.831 39.9871 11.4033 39.75 12 39.75Z" fill="white"></path><path d="M39.75 42C39.75 41.2583 39.5301 40.5333 39.118 39.9166C38.706 39.2999 38.1203 38.8193 37.4351 38.5355C36.7498 38.2516 35.9958 38.1774 35.2684 38.3221C34.541 38.4668 33.8728 38.8239 33.3484 39.3484C32.8239 39.8728 32.4668 40.541 32.3221 41.2684C32.1774 41.9958 32.2516 42.7498 32.5355 43.4351C32.8193 44.1203 33.2999 44.706 33.9166 45.118C34.5333 45.5301 35.2583 45.75 36 45.75C36.9946 45.75 37.9484 45.3549 38.6517 44.6517C39.3549 43.9484 39.75 42.9946 39.75 42ZM36 44.25C35.555 44.25 35.12 44.118 34.75 43.8708C34.38 43.6236 34.0916 43.2722 33.9213 42.861C33.751 42.4499 33.7064 41.9975 33.7932 41.561C33.8801 41.1246 34.0943 40.7237 34.409 40.409C34.7237 40.0943 35.1246 39.8801 35.561 39.7932C35.9975 39.7064 36.4499 39.751 36.861 39.9213C37.2722 40.0916 37.6236 40.38 37.8708 40.75C38.118 41.12 38.25 41.555 38.25 42C38.25 42.5967 38.0129 43.169 37.591 43.591C37.169 44.0129 36.5967 44.25 36 44.25Z" fill="white"></path><path d="M29.775 43.38C26.9794 44.2384 24.0269 44.4588 21.135 44.025L22.44 43.3725L21.75 42L18.3975 43.6875C18.2911 43.7427 18.1995 43.8226 18.1303 43.9204C18.0612 44.0183 18.0164 44.1313 18 44.25C17.9801 44.3635 17.9867 44.4801 18.0192 44.5906C18.0518 44.7012 18.1093 44.8028 18.1875 44.8875L20.745 47.6325L21.84 46.6125L20.7975 45.4875C21.8565 45.6585 22.9272 45.7463 24 45.75C26.1103 45.753 28.209 45.4369 30.2249 44.8125L29.775 43.38Z" fill="white"></path><path d="M40.9723 34.3425L40.7773 32.9325L39.2773 33.135L39.7798 36.885C39.7959 37.0009 39.8388 37.1115 39.9052 37.2079C39.9717 37.3043 40.0597 37.3838 40.1623 37.44C40.271 37.5053 40.3956 37.5391 40.5223 37.5375C40.6285 37.537 40.7333 37.514 40.8298 37.47L44.2573 35.97L43.6423 34.5975L42.2023 35.2425C44.0446 32.0532 45.0098 28.4331 44.9998 24.75H43.4998C43.5031 28.1125 42.6321 31.4182 40.9723 34.3425Z" fill="white"></path><path d="M6.89258 12.5775L8.10758 13.4475C10.0309 10.7436 12.6123 8.57519 15.6076 7.1475L15.0751 8.4075L16.5001 9L18.0001 5.55C18.0448 5.44284 18.0639 5.32678 18.0561 5.21095C18.0483 5.09512 18.0137 4.98268 17.9551 4.8825C17.8932 4.772 17.8043 4.67898 17.6968 4.61209C17.5893 4.54521 17.4665 4.50664 17.3401 4.5L13.5901 4.0575L13.4176 5.5575L15.0526 5.7525C11.7893 7.2854 8.97821 9.6366 6.89258 12.5775Z" fill="white"></path><path d="M40.5002 13.5C40.6897 13.4993 40.8719 13.427 41.0102 13.2975C41.0955 13.2193 41.1616 13.1224 41.2032 13.0144C41.2449 12.9064 41.261 12.7902 41.2502 12.675L40.8677 8.925L39.3677 9.0825L39.5252 10.5825C36.9991 7.82837 33.7873 5.7941 30.2177 4.6875L29.7827 6.12C33.0811 7.15758 36.0463 9.04904 38.3777 11.6025L36.8777 11.3325L36.6077 12.8325L40.2977 13.5075L40.5002 13.5Z" fill="white"></path><path d="M6.8923 27.675L4.2898 24.9825C4.20937 24.8988 4.1106 24.8349 4.00128 24.7959C3.89196 24.7568 3.77507 24.7437 3.6598 24.7575C3.54393 24.7708 3.43274 24.811 3.3351 24.8748C3.23745 24.9386 3.15603 25.0242 3.0973 25.125L1.2373 28.38L2.5423 29.13L3.2548 27.885C3.74751 31.2542 5.06107 34.4505 7.0798 37.1925L8.2873 36.3075C6.39927 33.738 5.17549 30.7416 4.7248 27.585L5.8123 28.7175L6.8923 27.675Z" fill="white"></path><path d="M16.5 24C16.5 25.3888 16.8857 26.7503 17.614 27.9329C18.3424 29.1154 19.3847 30.0725 20.625 30.6975V33.375C20.625 34.2701 20.9806 35.1285 21.6135 35.7615C22.2464 36.3944 23.1049 36.75 24 36.75C24.8951 36.75 25.7535 36.3944 26.3865 35.7615C27.0194 35.1285 27.375 34.2701 27.375 33.375V30.6975C28.5668 30.0969 29.5768 29.1892 30.3008 28.068C31.0247 26.9468 31.4363 25.6527 31.4932 24.3193C31.5501 22.9859 31.2501 21.6615 30.6242 20.4827C29.9984 19.304 29.0693 18.3135 27.9329 17.6137C26.7966 16.9138 25.494 16.5299 24.1597 16.5015C22.8254 16.473 21.5077 16.8012 20.3425 17.452C19.1774 18.1029 18.207 19.0528 17.5315 20.2039C16.8561 21.3549 16.5 22.6654 16.5 24ZM25.875 33.375C25.875 33.8722 25.6775 34.3492 25.3258 34.7008C24.9742 35.0524 24.4973 35.25 24 35.25C23.5027 35.25 23.0258 35.0524 22.6742 34.7008C22.3225 34.3492 22.125 33.8722 22.125 33.375V32.25H25.875V33.375ZM24 18C25.3845 18.0003 26.7263 18.4794 27.7979 19.3561C28.8695 20.2327 29.6049 21.453 29.8795 22.81C30.1541 24.167 29.9509 25.5772 29.3044 26.8016C28.658 28.0259 27.608 28.9889 26.3325 29.5275C26.1969 29.5849 26.0813 29.6809 25.9999 29.8036C25.9186 29.9263 25.8751 30.0703 25.875 30.2175V30.75H24.75V27.75C24.7489 27.6029 24.7045 27.4595 24.6225 27.3375L22.7025 24.45L23.82 24.7275C23.9382 24.7567 24.0618 24.7567 24.18 24.7275L25.5 24.405L24.8475 25.5L26.1525 26.25L27.6525 23.625C27.7337 23.4971 27.7742 23.3476 27.7688 23.1962C27.7634 23.0448 27.7123 22.8986 27.6222 22.7769C27.5321 22.6551 27.4072 22.5635 27.264 22.514C27.1208 22.4646 26.966 22.4597 26.82 22.5L24 23.25L21.18 22.5C21.0334 22.4629 20.8791 22.471 20.7373 22.5232C20.5954 22.5754 20.4726 22.6693 20.385 22.7925C20.2995 22.9173 20.2538 23.065 20.2538 23.2162C20.2538 23.3675 20.2995 23.5152 20.385 23.64L23.25 27.975V30.75H22.125V30.2175C22.1249 30.0703 22.0814 29.9263 22.0001 29.8036C21.9187 29.6809 21.8031 29.5849 21.6675 29.5275C20.392 28.9889 19.342 28.0259 18.6956 26.8016C18.0491 25.5772 17.8459 24.167 18.1205 22.81C18.3951 21.453 19.1305 20.2327 20.2021 19.3561C21.2737 18.4794 22.6155 18.0003 24 18Z" fill="white"></path><path d="M33 23.25H35.25V24.75H33V23.25Z" fill="white"></path><path d="M12.75 23.25H15V24.75H12.75V23.25Z" fill="white"></path><path d="M29.8276 17.0999L31.4186 15.5089L32.4793 16.5695L30.8883 18.1605L29.8276 17.0999Z" fill="white"></path><path d="M15.5103 31.4304L17.1012 29.8394L18.1619 30.9001L16.5709 32.4911L15.5103 31.4304Z" fill="white"></path><path d="M29.8306 30.8973L30.8912 29.8367L32.4822 31.4277L31.4216 32.4883L29.8306 30.8973Z" fill="white"></path><path d="M15.5078 16.5724L16.5685 15.5117L18.1595 17.1027L17.0988 18.1634L15.5078 16.5724Z" fill="white"></path><path d="M23.25 12.75H24.75V15H23.25V12.75Z" fill="white"></path></g><defs><clipPath id="clip0_1_1199"><rect width="48" height="48" fill="white"></rect></clipPath></defs></svg> 