<?xml version="1.0" encoding="UTF-8"?> <svg xmlns="http://www.w3.org/2000/svg" width="50" height="50" viewBox="0 0 50 50" fill="none"><path d="M14.375 32.6875C14.2141 33.2501 14.1868 33.8424 14.2953 34.4174C14.4038 34.9923 14.6451 35.534 15 35.9992C15.1822 36.2389 15.392 36.4563 15.625 36.6469V48.4375C15.625 48.6447 15.7073 48.8434 15.8538 48.9899C16.0003 49.1364 16.199 49.2188 16.4062 49.2188H33.5938C33.801 49.2188 33.9997 49.1364 34.1462 48.9899C34.2927 48.8434 34.375 48.6447 34.375 48.4375V36.6469C34.608 36.4563 34.8178 36.2389 35 35.9992C35.3549 35.534 35.5962 34.9923 35.7047 34.4174C35.8132 33.8424 35.7859 33.2501 35.625 32.6875C35.6111 32.6372 35.592 32.5885 35.568 32.5422L32.7242 26.9875C32.6588 26.8599 32.5596 26.7527 32.4374 26.6778C32.3151 26.6028 32.1746 26.5629 32.0312 26.5625H17.9688C17.825 26.5625 17.684 26.6022 17.5613 26.6772C17.4386 26.7521 17.339 26.8595 17.2734 26.9875L14.4297 32.5422C14.4065 32.5886 14.3881 32.6373 14.375 32.6875ZM33.7563 35.0555C33.5054 35.3864 33.1671 35.6407 32.7795 35.7897C32.3918 35.9386 31.9703 35.9762 31.5624 35.8983C31.1545 35.8204 30.7765 35.6301 30.471 35.3488C30.1655 35.0674 29.9448 34.7064 29.8336 34.3062L29.6578 33.6758C29.6633 33.6484 29.6703 33.6211 29.6758 33.5977H34.1984C34.2288 34.1211 34.0712 34.6381 33.7539 35.0555H33.7563ZM31.5539 28.125L33.5539 32.0312H29.6945C29.6945 32.0094 29.6945 31.9883 29.6875 31.9664C29.681 31.9266 29.6713 31.8874 29.6586 31.8492L28.425 28.125H31.5539ZM23.2203 28.125H26.7797L28.0727 32.0312H21.9273L23.2203 28.125ZM28.0727 33.5938C27.8886 34.2676 27.4882 34.8623 26.933 35.2863C26.3777 35.7102 25.6986 35.9399 25 35.9399C24.3014 35.9399 23.6222 35.7102 23.067 35.2863C22.5118 34.8623 22.1114 34.2676 21.9273 33.5938H28.0727ZM25 37.5C25.6902 37.5006 26.3723 37.3505 26.9985 37.0603C27.6248 36.77 28.1801 36.3466 28.6258 35.8195C28.668 35.7703 28.7039 35.7164 28.743 35.6633C29.1506 36.3461 29.7638 36.8824 30.4948 37.1954C31.2257 37.5085 32.037 37.5823 32.8125 37.4062V47.6562H17.1875V37.4062C17.9627 37.5825 18.7738 37.5091 19.5048 37.1965C20.2357 36.8838 20.8491 36.348 21.257 35.6656C21.2969 35.7164 21.3352 35.7703 21.3742 35.8219C21.8201 36.3485 22.3756 36.7715 23.0018 37.0613C23.628 37.3512 24.31 37.5009 25 37.5ZM18.4461 28.125H21.5711L20.3375 31.8492C20.3248 31.8874 20.3151 31.9266 20.3086 31.9664C20.3086 31.9883 20.3086 32.0094 20.3016 32.0312H16.4422L18.4461 28.125ZM20.3266 33.5938C20.332 33.6211 20.3391 33.6484 20.3445 33.6719L20.1688 34.3047C20.057 34.7044 19.8359 35.065 19.5303 35.3459C19.2247 35.6268 18.8467 35.8167 18.439 35.8943C18.0312 35.972 17.6099 35.9342 17.2225 35.7853C16.8351 35.6364 16.4969 35.3823 16.2461 35.0516C15.9297 34.6339 15.7728 34.1169 15.8039 33.5938H20.3266Z" fill="white"></path><path d="M19.9219 39.8438V45.3125C19.9219 45.5197 20.0042 45.7184 20.1507 45.8649C20.2972 46.0114 20.4959 46.0938 20.7031 46.0938H29.2969C29.5041 46.0938 29.7028 46.0114 29.8493 45.8649C29.9958 45.7184 30.0781 45.5197 30.0781 45.3125V39.8438C30.0781 39.6365 29.9958 39.4378 29.8493 39.2913C29.7028 39.1448 29.5041 39.0625 29.2969 39.0625H20.7031C20.4959 39.0625 20.2972 39.1448 20.1507 39.2913C20.0042 39.4378 19.9219 39.6365 19.9219 39.8438ZM21.4844 40.625H28.5156V44.5312H21.4844V40.625Z" fill="white"></path><path d="M29.6875 0.78125H20.3125C19.8981 0.78125 19.5007 0.94587 19.2076 1.2389C18.9146 1.53192 18.75 1.92935 18.75 2.34375V8.59375C18.75 9.00815 18.9146 9.40558 19.2076 9.6986C19.5007 9.99163 19.8981 10.1562 20.3125 10.1562H29.6875C30.1019 10.1562 30.4993 9.99163 30.7924 9.6986C31.0854 9.40558 31.25 9.00815 31.25 8.59375V2.34375C31.25 1.92935 31.0854 1.53192 30.7924 1.2389C30.4993 0.94587 30.1019 0.78125 29.6875 0.78125ZM20.3125 8.59375V2.34375H29.6875V8.59375H20.3125Z" fill="white"></path><path d="M47.6562 10.9375H38.2812C37.8668 10.9375 37.4694 11.1021 37.1764 11.3951C36.8834 11.6882 36.7188 12.0856 36.7188 12.5V18.75C36.7188 19.1644 36.8834 19.5618 37.1764 19.8549C37.4694 20.1479 37.8668 20.3125 38.2812 20.3125H47.6562C48.0706 20.3125 48.4681 20.1479 48.7611 19.8549C49.0541 19.5618 49.2188 19.1644 49.2188 18.75V12.5C49.2188 12.0856 49.0541 11.6882 48.7611 11.3951C48.4681 11.1021 48.0706 10.9375 47.6562 10.9375ZM38.2812 18.75V12.5H47.6562V18.75H38.2812Z" fill="white"></path><path d="M2.34375 20.3125H11.7188C12.1332 20.3125 12.5306 20.1479 12.8236 19.8549C13.1166 19.5618 13.2812 19.1644 13.2812 18.75V12.5C13.2812 12.0856 13.1166 11.6882 12.8236 11.3951C12.5306 11.1021 12.1332 10.9375 11.7188 10.9375H2.34375C1.92935 10.9375 1.53192 11.1021 1.2389 11.3951C0.94587 11.6882 0.78125 12.0856 0.78125 12.5V18.75C0.78125 19.1644 0.94587 19.5618 1.2389 19.8549C1.53192 20.1479 1.92935 20.3125 2.34375 20.3125ZM2.34375 12.5H11.7188V18.75H2.34375V12.5Z" fill="white"></path><path d="M24.2188 11.7188H25.7812V21.875H24.2188V11.7188Z" fill="white"></path><path d="M24.2188 23.4375H25.7812V25H24.2188V23.4375Z" fill="white"></path><path d="M28.125 23.4375H29.6875V25H28.125V23.4375Z" fill="white"></path><path d="M29.6875 16.4062H35.1562V14.8437H28.9062C28.699 14.8437 28.5003 14.9261 28.3538 15.0726C28.2073 15.2191 28.125 15.4178 28.125 15.625V21.875H29.6875V16.4062Z" fill="white"></path><path d="M20.3125 23.4375H21.875V25H20.3125V23.4375Z" fill="white"></path><path d="M14.8437 16.4062H20.3125V21.875H21.875V15.625C21.875 15.4178 21.7927 15.2191 21.6462 15.0726C21.4997 14.9261 21.3009 14.8437 21.0938 14.8437H14.8437V16.4062Z" fill="white"></path></svg> 