<?xml version="1.0" encoding="UTF-8"?> <svg xmlns="http://www.w3.org/2000/svg" width="47" height="60" viewBox="0 0 47 60" fill="none"><path d="M6.57453 49.5862C6.73941 49.5865 6.90146 49.5434 7.04433 49.4611C7.1872 49.3788 7.30584 49.2602 7.38828 49.1174L7.50266 48.9187L8.81516 49.889C8.45265 50.4428 8.32082 51.1163 8.44779 51.7658C8.57477 52.4154 8.95049 52.9897 9.49484 53.3662C9.91438 53.6565 10.4125 53.8118 10.9227 53.8115C10.9958 53.8115 11.0689 53.7984 11.143 53.7918C11.2892 54.3194 11.6046 54.7844 12.0407 55.1154C12.4768 55.4463 13.0096 55.6249 13.557 55.6237C13.8587 55.6255 14.158 55.5705 14.4392 55.4615C14.6246 55.808 14.8893 56.1058 15.2117 56.3306C15.633 56.6218 16.1331 56.7775 16.6452 56.7768C16.7173 56.7768 16.7877 56.7581 16.8589 56.7515C17.0042 57.2802 17.3193 57.7464 17.7557 58.0783C18.1921 58.4102 18.7256 58.5893 19.2739 58.5881C19.4311 58.5881 19.5881 58.5737 19.7427 58.5449C20.0705 58.4857 20.3834 58.3619 20.663 58.1809C20.9427 57.9999 21.1837 57.7651 21.372 57.4903L21.3955 57.4565L23.458 58.7006C23.8527 58.9384 24.305 59.0636 24.7658 59.0624C25.3452 59.0727 25.9098 58.8794 26.3614 58.5163C26.8129 58.1531 27.1228 57.6431 27.237 57.0749C27.5611 57.1538 27.8978 57.1665 28.2269 57.1123C28.556 57.0581 28.8709 56.9381 29.1526 56.7595C29.4343 56.5809 29.6771 56.3474 29.8664 56.0728C30.0558 55.7982 30.1879 55.4883 30.2548 55.1615C30.4347 55.2065 30.6189 55.2317 30.8042 55.2365C31.3586 55.2436 31.8994 55.0653 32.341 54.7301C32.7826 54.3948 33.0996 53.9218 33.2417 53.3859C33.7781 53.7002 34.4115 53.8057 35.0208 53.6821C35.6301 53.5585 36.1723 53.2145 36.5438 52.716C36.9153 52.2176 37.0899 51.5996 37.0341 50.9804C36.9784 50.3612 36.6963 49.7844 36.2417 49.3603C36.7383 48.5841 37.3657 47.8998 38.0961 47.3381L38.4805 48.1181C38.5899 48.3399 38.7825 48.5095 39.0164 48.5899C39.2503 48.6703 39.5065 48.6551 39.7292 48.5474L46.0536 45.4921L45.2389 43.8046L39.7517 46.4559L34.437 35.6493L39.912 33.0046L39.0973 31.3171L32.772 34.3724C32.6606 34.4262 32.5609 34.5015 32.4787 34.5939C32.3965 34.6864 32.3334 34.7942 32.293 34.9111C32.2527 35.0281 32.2359 35.1519 32.2436 35.2753C32.2513 35.3988 32.2834 35.5195 32.338 35.6306L32.6605 36.2868C31.4998 36.3515 29.5733 36.0993 26.4908 34.8487C25.2675 34.3057 23.9254 34.0859 22.5928 34.2101C21.2603 34.3344 19.9819 34.7986 18.8802 35.5584C17.843 36.2767 16.9298 37.1592 16.1764 38.1712C15.4901 37.9611 14.8337 37.6633 14.2236 37.2853L14.3502 37.0649C14.4118 36.958 14.4518 36.84 14.4678 36.7176C14.4837 36.5952 14.4753 36.4708 14.4431 36.3516C14.4109 36.2325 14.3554 36.1209 14.28 36.0232C14.2045 35.9255 14.1105 35.8437 14.0033 35.7824L8.07641 32.3981L7.14641 34.0265L12.2558 36.9431L6.23047 47.3718L1.11359 44.4506L0.183594 46.079L6.11047 49.4634C6.25188 49.5439 6.41181 49.5862 6.57453 49.5862ZM12.387 50.3287L11.4777 51.6515C11.4284 51.723 11.3656 51.784 11.2927 51.8312C11.2199 51.8784 11.1385 51.9108 11.0531 51.9265C10.9677 51.9422 10.8801 51.941 10.7952 51.9228C10.7104 51.9047 10.6299 51.87 10.5584 51.8207C10.487 51.7715 10.4259 51.7086 10.3787 51.6358C10.3315 51.5629 10.2992 51.4815 10.2835 51.3962C10.2677 51.3108 10.269 51.2232 10.2871 51.1383C10.3053 51.0534 10.34 50.973 10.3892 50.9015L11.2967 49.589C11.3967 49.4458 11.5491 49.3477 11.7208 49.316C11.8926 49.2842 12.0699 49.3213 12.2145 49.4193C12.3568 49.5186 12.4545 49.6697 12.4868 49.8402C12.519 50.0107 12.4832 50.1871 12.387 50.3315V50.3287ZM15.4695 51.4884L14.1102 53.4628C14.0106 53.6063 13.8584 53.7047 13.6867 53.7365C13.5149 53.7682 13.3376 53.7309 13.1933 53.6324C13.0511 53.5317 12.9538 53.3794 12.9221 53.208C12.8904 53.0366 12.9268 52.8596 13.0236 52.7146L14.383 50.7393C14.4448 50.6516 14.527 50.5802 14.6226 50.5312C14.7181 50.4822 14.8241 50.4571 14.9314 50.4581C15.0632 50.4574 15.1921 50.4969 15.3008 50.5715C15.4446 50.6707 15.5434 50.8228 15.5755 50.9946C15.6077 51.1664 15.5706 51.3439 15.4723 51.4884H15.4695ZM18.102 53.3006L17.1964 54.6131C17.0956 54.7555 16.9432 54.853 16.7715 54.8847C16.5999 54.9164 16.4227 54.8798 16.2777 54.7828C16.1339 54.6829 16.0355 54.5303 16.0039 54.3582C15.9723 54.186 16.0101 54.0084 16.1089 53.864L17.0145 52.5515C17.1144 52.4078 17.2669 52.3094 17.439 52.2776C17.611 52.2459 17.7887 52.2833 17.9333 52.3818C18.0761 52.4823 18.1739 52.6347 18.206 52.8063C18.238 52.9779 18.2017 53.1553 18.1048 53.3006H18.102ZM20.2808 55.7699L19.8289 56.4262C19.7289 56.5694 19.5765 56.6675 19.4048 56.6992C19.233 56.731 19.0557 56.6939 18.9111 56.5959C18.7681 56.4957 18.6702 56.3434 18.6384 56.1717C18.6067 56 18.6437 55.8227 18.7414 55.6781L19.1952 55.0171C19.2685 54.9086 19.3727 54.8245 19.4943 54.7756C19.6158 54.7268 19.7492 54.7154 19.8773 54.7431C20.0054 54.7707 20.1223 54.836 20.2129 54.9306C20.3035 55.0253 20.3637 55.1449 20.3858 55.274C20.402 55.3595 20.4011 55.4474 20.3831 55.5325C20.3651 55.6177 20.3303 55.6984 20.2808 55.7699ZM19.9995 37.0649C20.8424 36.4962 21.8171 36.1533 22.8303 36.0691C23.8436 35.9849 24.8616 36.1622 25.7867 36.584C29.0483 37.9087 31.647 38.4037 33.5408 38.0709L37.2645 45.6346C36.2394 46.3506 35.3655 47.2617 34.693 48.3159L29.082 44.7974C29.8925 44.2965 30.5801 43.6198 31.0939 42.8174L29.4664 41.8865C28.9137 42.6769 28.1421 43.2885 27.2464 43.6462L21.8192 40.2431C21.7119 40.176 21.5922 40.1314 21.4672 40.1118C21.3422 40.0923 21.2146 40.0982 21.0919 40.1293C20.9693 40.1604 20.8542 40.216 20.7537 40.2928C20.6531 40.3695 20.5691 40.4658 20.5067 40.5759C18.9992 43.2431 17.0623 43.6424 16.5045 43.7015C16.1821 43.7599 15.8495 43.7164 15.553 43.5768C16.2564 40.9659 17.8238 38.6705 19.9995 37.0649ZM13.2842 38.9062C13.859 39.261 14.468 39.5572 15.102 39.7903C14.358 40.9589 13.8695 42.2717 13.6686 43.6424C13.6878 44.0876 13.8589 44.5126 14.1536 44.8468C14.4482 45.181 14.8485 45.4042 15.2877 45.479C17.1064 45.9562 19.7445 45.0018 21.612 42.329L34.8477 50.6249C34.9475 50.6838 35.0303 50.7675 35.0882 50.8678C35.146 50.9682 35.1768 51.0819 35.1777 51.1978C35.1766 51.3174 35.1443 51.4347 35.0839 51.5381C34.9926 51.6882 34.8454 51.7959 34.6747 51.8376C34.504 51.8793 34.3238 51.8514 34.1736 51.7603L29.383 48.8765L28.4089 50.4862L31.1558 52.1371C31.3037 52.2277 31.4101 52.3728 31.452 52.5412C31.4734 52.6254 31.4779 52.7129 31.4652 52.7989C31.4526 52.8848 31.423 52.9673 31.3781 53.0417C31.3333 53.1161 31.2742 53.1808 31.2041 53.2322C31.1341 53.2835 31.0546 53.3205 30.9702 53.3409C30.7999 53.3824 30.6202 53.3555 30.4695 53.2659L27.0467 51.2034L26.0802 52.8103L28.1361 54.0487C28.2853 54.1395 28.3923 54.2858 28.4336 54.4554C28.4749 54.6251 28.4472 54.8042 28.3564 54.9534C28.2657 55.1026 28.1194 55.2096 27.9497 55.2509C27.78 55.2922 27.6009 55.2645 27.4517 55.1737L24.0336 53.1112L23.068 54.7124L25.1305 55.9518C25.2268 56.011 25.3066 56.0936 25.3624 56.192C25.4181 56.2903 25.448 56.4013 25.4492 56.5143C25.4475 56.633 25.4152 56.7493 25.3555 56.8518C25.2643 57.0023 25.1172 57.1105 24.9465 57.1528C24.7757 57.1951 24.5951 57.1682 24.4442 57.0778L22.2533 55.7549C22.2973 55.4784 22.2954 55.1965 22.2477 54.9206C22.1516 54.3973 21.8907 53.9185 21.5031 53.5542C21.1155 53.1898 20.6215 52.9591 20.0933 52.8956C20.09 52.4893 19.9889 52.0898 19.7987 51.7308C19.6084 51.3718 19.3345 51.0639 19.0002 50.8331C18.5176 50.5041 17.9353 50.3542 17.3539 50.4093C17.2609 50.0738 17.0989 49.7615 16.8783 49.4921C16.6578 49.2227 16.3835 49.0023 16.0729 48.8449C15.7624 48.6876 15.4225 48.5967 15.0748 48.578C14.7272 48.5594 14.3795 48.6135 14.0539 48.7368C13.8575 48.374 13.5747 48.0651 13.2304 47.8377C12.8862 47.6103 12.4912 47.4712 12.0804 47.4329C11.6695 47.3947 11.2556 47.4583 10.8753 47.6182C10.4949 47.7781 10.1599 48.0293 9.89984 48.3496L8.4486 47.2799L13.2842 38.9062Z" fill="#C6973D"></path><path d="M40.1549 43.0739L41.7534 42.288L42.5806 43.9706L40.9821 44.7565L40.1549 43.0739Z" fill="#C6973D"></path><path d="M22.9995 18.7499C23.7412 18.7499 24.4662 18.53 25.0829 18.118C25.6996 17.7059 26.1803 17.1202 26.4641 16.435C26.7479 15.7498 26.8222 14.9958 26.6775 14.2684C26.5328 13.5409 26.1756 12.8727 25.6512 12.3483C25.1267 11.8238 24.4586 11.4667 23.7311 11.322C23.0037 11.1773 22.2497 11.2516 21.5645 11.5354C20.8792 11.8192 20.2936 12.2999 19.8815 12.9166C19.4695 13.5332 19.2495 14.2583 19.2495 14.9999C19.2495 15.9945 19.6446 16.9483 20.3479 17.6516C21.0511 18.3549 22.005 18.7499 22.9995 18.7499ZM22.9995 13.1249C23.3704 13.1249 23.7329 13.2349 24.0412 13.4409C24.3496 13.647 24.5899 13.9398 24.7318 14.2824C24.8737 14.625 24.9109 15.002 24.8385 15.3657C24.7662 15.7295 24.5876 16.0635 24.3254 16.3258C24.0631 16.588 23.729 16.7666 23.3653 16.8389C23.0016 16.9113 22.6246 16.8741 22.282 16.7322C21.9394 16.5903 21.6466 16.35 21.4405 16.0416C21.2345 15.7333 21.1245 15.3708 21.1245 14.9999C21.1245 14.5027 21.3221 14.0258 21.6737 13.6741C22.0253 13.3225 22.5023 13.1249 22.9995 13.1249Z" fill="#C6973D"></path><path d="M12.2445 23.3268C12.3942 23.4069 12.5629 23.4449 12.7324 23.4366C12.902 23.4284 13.0661 23.3742 13.2073 23.2799L16.5655 21.0412C16.884 22.0293 17.2946 22.9854 17.7917 23.8968C17.8732 24.0418 17.9918 24.1624 18.1353 24.2465C18.2787 24.3305 18.442 24.3748 18.6083 24.3749H27.3908C27.5571 24.3748 27.7203 24.3305 27.8638 24.2465C28.0073 24.1624 28.1259 24.0418 28.2073 23.8968C28.7045 22.9854 29.115 22.0293 29.4336 21.0412L32.7917 23.2799C32.9329 23.3741 33.097 23.4282 33.2665 23.4365C33.4361 23.4447 33.6047 23.4068 33.7543 23.3267C33.904 23.2466 34.0291 23.1274 34.1163 22.9818C34.2035 22.8362 34.2496 22.6697 34.2495 22.4999V16.8749C34.2496 16.7376 34.2195 16.6019 34.1613 16.4775C34.1032 16.3531 34.0184 16.243 33.913 16.1549L30.3636 13.1971C29.4598 6.49213 23.8836 1.4062 23.6248 1.17651C23.4529 1.0226 23.2303 0.9375 22.9995 0.9375C22.7688 0.9375 22.5461 1.0226 22.3742 1.17651C22.1155 1.40713 16.5392 6.49213 15.6355 13.1971L12.0861 16.1549C11.9807 16.243 11.8959 16.3531 11.8377 16.4775C11.7796 16.6019 11.7495 16.7376 11.7495 16.8749V22.4999C11.7495 22.6697 11.7955 22.8362 11.8827 22.9819C11.9698 23.1275 12.0949 23.2467 12.2445 23.3268ZM30.4714 15.7274L32.3745 17.3137V20.7478L29.967 19.1437C30.2352 18.022 30.404 16.8788 30.4714 15.7274ZM22.9995 3.18745C24.583 4.8337 28.6245 9.56245 28.6245 14.9999C28.5549 17.598 27.9424 20.1527 26.8264 22.4999H19.1727C18.0567 20.1527 17.4442 17.598 17.3745 14.9999C17.3745 9.56245 21.4161 4.8337 22.9995 3.18745ZM13.6245 17.3137L15.5277 15.7274C15.5951 16.8788 15.7639 18.022 16.032 19.1437L13.6245 20.7478V17.3137Z" fill="#C6973D"></path><path d="M19.2495 25.3124H21.1245V29.0624H19.2495V25.3124Z" fill="#C6973D"></path><path d="M24.8745 25.3124H26.7495V29.0624H24.8745V25.3124Z" fill="#C6973D"></path><path d="M22.062 27.1874H23.937V30.9374H22.062V27.1874Z" fill="#C6973D"></path></svg> 