<?xml version="1.0" encoding="UTF-8"?> <svg xmlns="http://www.w3.org/2000/svg" width="60" height="60" viewBox="0 0 60 60" fill="none"><path d="M56.2501 11.2499H40.3126V13.1249H56.2501C56.4987 13.1249 56.7371 13.2237 56.913 13.3995C57.0888 13.5753 57.1876 13.8138 57.1876 14.0624C57.1877 14.1874 57.1624 14.311 57.1131 14.4258C57.0637 14.5406 56.9914 14.6441 56.9007 14.7299C56.8161 14.8165 56.7148 14.8851 56.603 14.9315C56.4912 14.9779 56.3711 15.0012 56.2501 14.9999H44.0626V16.8749H53.4376V49.6874H6.56255V16.8749H15.9375V14.9999H3.75005C3.50141 14.9999 3.26295 14.9012 3.08714 14.7254C2.91132 14.5495 2.81255 14.3111 2.81255 14.0624C2.81237 13.9375 2.83772 13.8139 2.88705 13.6991C2.93638 13.5843 3.00865 13.4808 3.09943 13.3949C3.18405 13.3084 3.28532 13.2398 3.39713 13.1934C3.50895 13.147 3.629 13.1237 3.75005 13.1249H19.6875V11.2499H3.75005C3.38269 11.2472 3.01853 11.3183 2.6792 11.4591C2.33987 11.5998 2.03229 11.8074 1.77474 12.0693C1.50786 12.3278 1.29609 12.6377 1.15221 12.9802C1.00832 13.3228 0.935302 13.6909 0.93755 14.0624C0.93755 14.8084 1.23387 15.5237 1.76131 16.0512C2.28876 16.5786 3.00413 16.8749 3.75005 16.8749H4.68755V49.6874H3.75005C3.50141 49.6874 3.26295 49.7862 3.08714 49.962C2.91132 50.1378 2.81255 50.3763 2.81255 50.6249C2.81255 50.8736 2.91132 51.112 3.08714 51.2879C3.26295 51.4637 3.50141 51.5624 3.75005 51.5624H26.1816L18.6872 59.0624H21.3385L28.8329 51.5624H31.1672L38.6616 59.0624H41.3129L33.8185 51.5624H56.2501C56.4987 51.5624 56.7371 51.4637 56.913 51.2879C57.0888 51.112 57.1876 50.8736 57.1876 50.6249C57.1876 50.3763 57.0888 50.1378 56.913 49.962C56.7371 49.7862 56.4987 49.6874 56.2501 49.6874H55.3126V16.8749H56.2501C56.9947 16.8708 57.7076 16.5731 58.2342 16.0466C58.7607 15.52 59.0584 14.8071 59.0626 14.0624C59.0626 13.3165 58.7662 12.6012 58.2388 12.0737C57.7113 11.5463 56.996 11.2499 56.2501 11.2499Z" fill="#C6973D"></path><path d="M26.2501 14.9999C26.2501 15.7416 26.47 16.4667 26.882 17.0833C27.2941 17.7 27.8798 18.1807 28.565 18.4645C29.2502 18.7483 30.0042 18.8226 30.7316 18.6779C31.4591 18.5332 32.1273 18.176 32.6517 17.6516C33.1761 17.1271 33.5333 16.459 33.678 15.7315C33.8227 15.0041 33.7484 14.2501 33.4646 13.5649C33.1808 12.8797 32.7001 12.294 32.0834 11.8819C31.4668 11.4699 30.7417 11.2499 30.0001 11.2499C29.0055 11.2499 28.0517 11.645 27.3484 12.3483C26.6451 13.0516 26.2501 14.0054 26.2501 14.9999ZM31.8751 14.9999C31.8751 15.3708 31.7651 15.7333 31.5591 16.0416C31.353 16.35 31.0602 16.5903 30.7176 16.7322C30.375 16.8741 29.998 16.9113 29.6343 16.8389C29.2705 16.7666 28.9364 16.588 28.6742 16.3258C28.412 16.0635 28.2334 15.7295 28.1611 15.3657C28.0887 15.002 28.1259 14.625 28.2678 14.2824C28.4097 13.9398 28.65 13.647 28.9584 13.4409C29.2667 13.2349 29.6292 13.1249 30.0001 13.1249C30.4973 13.1249 30.9742 13.3225 31.3259 13.6741C31.6775 14.0258 31.8751 14.5027 31.8751 14.9999Z" fill="#C6973D"></path><path d="M37.3641 13.1971C36.4604 6.49213 30.8841 1.4062 30.6254 1.17651C30.4534 1.0226 30.2308 0.9375 30.0001 0.9375C29.7693 0.9375 29.5467 1.0226 29.3747 1.17651C29.116 1.40713 23.5397 6.49213 22.636 13.1971L19.0866 16.1549C18.9812 16.243 18.8964 16.3531 18.8383 16.4775C18.7801 16.6019 18.75 16.7376 18.75 16.8749V22.4999C18.75 22.6697 18.7961 22.8362 18.8833 22.9818C18.9705 23.1274 19.0956 23.2466 19.2453 23.3267C19.3949 23.4068 19.5635 23.4447 19.733 23.4365C19.9026 23.4282 20.0667 23.3741 20.2079 23.2799L23.566 21.0412C23.8845 22.0293 24.2951 22.9854 24.7922 23.8968C24.8737 24.0418 24.9923 24.1624 25.1358 24.2465C25.2793 24.3305 25.4425 24.3748 25.6088 24.3749H34.3913C34.5576 24.3748 34.7208 24.3305 34.8643 24.2465C35.0078 24.1624 35.1264 24.0418 35.2079 23.8968C35.705 22.9854 36.1156 22.0293 36.4341 21.0412L39.7922 23.2799C39.9334 23.3741 40.0975 23.4282 40.2671 23.4365C40.4366 23.4447 40.6052 23.4068 40.7548 23.3267C40.9045 23.2466 41.0296 23.1274 41.1168 22.9818C41.204 22.8362 41.2501 22.6697 41.2501 22.4999V16.8749C41.2501 16.7376 41.22 16.6019 41.1618 16.4775C41.1037 16.3531 41.0189 16.243 40.9135 16.1549L37.3641 13.1971ZM20.625 20.7478V17.3137L22.5282 15.7274C22.5956 16.8788 22.7644 18.022 23.0326 19.1437L20.625 20.7478ZM33.8269 22.4999H26.1732C25.0572 20.1527 24.4447 17.598 24.375 14.9999C24.375 9.56245 28.4166 4.8337 30.0001 3.18745C31.5835 4.8337 35.6251 9.56245 35.6251 14.9999C35.5554 17.598 34.9429 20.1527 33.8269 22.4999ZM39.3751 20.7478L36.9675 19.1437C37.2357 18.022 37.4045 16.8788 37.4719 15.7274L39.3751 17.3137V20.7478Z" fill="#C6973D"></path><path d="M19.996 42.2812C18.1215 41.9887 16.2032 42.3415 14.5554 43.2819C12.9077 44.2222 11.6282 45.6944 10.9266 47.4571L12.6647 48.1603C13.2554 46.6686 14.377 45.448 15.8135 44.7336C17.25 44.0191 18.9 43.8612 20.446 44.2903C20.5739 44.3246 20.7076 44.3315 20.8384 44.3104C20.9691 44.2893 21.0939 44.2408 21.2046 44.168C21.3152 44.0952 21.4091 43.9997 21.4802 43.888C21.5513 43.7762 21.5979 43.6507 21.6169 43.5196C21.7487 42.6319 22.1937 41.8207 22.8715 41.2325C23.5493 40.6443 24.4151 40.3179 25.3126 40.3124C25.6237 40.3169 25.933 40.3607 26.2332 40.4428C26.362 40.4756 26.4964 40.4806 26.6274 40.4575C26.7583 40.4344 26.8828 40.3837 26.9927 40.3088C27.1026 40.2338 27.1952 40.1364 27.2645 40.0229C27.3339 39.9094 27.3782 39.7825 27.3947 39.6506L29.0551 26.3662L27.195 26.1337L25.6547 38.4496C24.4208 38.3738 23.1965 38.7086 22.1728 39.4017C21.1492 40.0948 20.3837 41.1073 19.996 42.2812Z" fill="#C6973D"></path><path d="M34.3454 38.4496L32.805 26.1337L30.945 26.3662L32.6054 39.6506C32.6219 39.7825 32.6662 39.9094 32.7356 40.0229C32.8049 40.1364 32.8975 40.2338 33.0074 40.3088C33.1173 40.3837 33.2418 40.4344 33.3727 40.4575C33.5037 40.4806 33.6381 40.4756 33.7669 40.4428C34.0671 40.3607 34.3764 40.3169 34.6875 40.3124C35.5849 40.319 36.4503 40.6462 37.1273 41.2351C37.8044 41.824 38.2485 42.6356 38.3794 43.5234C38.3985 43.6544 38.4451 43.78 38.5161 43.8917C38.5872 44.0035 38.6812 44.0989 38.7918 44.1717C38.9024 44.2445 39.0272 44.2931 39.158 44.3141C39.2887 44.3352 39.4225 44.3284 39.5504 44.294C41.0963 43.865 42.7463 44.0229 44.1829 44.7373C45.6194 45.4518 46.7409 46.6723 47.3316 48.164L49.0697 47.4609C48.3684 45.6986 47.0897 44.2265 45.4428 43.2856C43.7959 42.3446 41.8784 41.9905 40.0041 42.2812C39.6166 41.1071 38.8513 40.0945 37.8276 39.4013C36.8038 38.7081 35.5793 38.3735 34.3454 38.4496Z" fill="#C6973D"></path></svg> 