<?xml version="1.0" encoding="UTF-8"?> <svg xmlns="http://www.w3.org/2000/svg" width="60" height="60" viewBox="0 0 60 60" fill="none"><path d="M35.2089 36.0844C35.7057 35.1729 36.1159 34.2169 36.4342 33.2288L39.7923 35.4675C39.9335 35.5617 40.0976 35.6158 40.2671 35.6241C40.4367 35.6323 40.6052 35.5943 40.7549 35.5143C40.9045 35.4342 41.0297 35.315 41.1169 35.1694C41.2041 35.0238 41.2501 34.8572 41.2501 34.6875V29.0625C41.2501 28.9251 41.2198 28.7894 41.1615 28.665C41.1032 28.5405 41.0182 28.4305 40.9126 28.3425L37.3642 25.3856C36.4614 18.6797 30.8832 13.5947 30.6254 13.3641C30.4535 13.2102 30.2309 13.1251 30.0001 13.1251C29.7694 13.1251 29.5467 13.2102 29.3748 13.3641C29.117 13.5947 23.5389 18.6797 22.6361 25.3856L19.0876 28.3425C18.982 28.4305 18.8971 28.5405 18.8388 28.665C18.7804 28.7894 18.7502 28.9251 18.7501 29.0625V34.6875C18.7501 34.8572 18.7961 35.0238 18.8834 35.1694C18.9706 35.315 19.0957 35.4342 19.2453 35.5143C19.395 35.5943 19.5636 35.6323 19.7331 35.6241C19.9026 35.6158 20.0667 35.5617 20.2079 35.4675L23.5661 33.2288C23.8843 34.2169 24.2945 35.1729 24.7914 36.0844C24.8729 36.2295 24.9916 36.3502 25.1353 36.4343C25.279 36.5183 25.4424 36.5626 25.6089 36.5625H34.3914C34.5578 36.5626 34.7213 36.5183 34.8649 36.4343C35.0086 36.3502 35.1273 36.2295 35.2089 36.0844ZM37.472 27.915L39.3751 29.5013V32.9353L36.9676 31.3313C37.2358 30.2095 37.4045 29.0664 37.472 27.915ZM20.6251 32.9353V29.5013L22.5282 27.915C22.5957 29.0664 22.7645 30.2095 23.0326 31.3313L20.6251 32.9353ZM26.1723 34.6875C25.057 32.3401 24.4448 29.7855 24.3751 27.1875C24.3751 21.75 28.4157 17.0213 30.0001 15.375C31.5845 17.0185 35.6251 21.7444 35.6251 27.1875C35.5554 29.7855 34.9433 32.3401 33.8279 34.6875H26.1723Z" fill="#C6973D"></path><path d="M30.0001 23.4375C29.2584 23.4375 28.5334 23.6575 27.9167 24.0695C27.3 24.4816 26.8194 25.0672 26.5356 25.7525C26.2517 26.4377 26.1775 27.1917 26.3222 27.9191C26.4669 28.6465 26.824 29.3147 27.3485 29.8392C27.8729 30.3636 28.5411 30.7208 29.2685 30.8655C29.996 31.0102 30.75 30.9359 31.4352 30.6521C32.1204 30.3682 32.7061 29.8876 33.1181 29.2709C33.5302 28.6542 33.7501 27.9292 33.7501 27.1875C33.7501 26.193 33.355 25.2391 32.6518 24.5359C31.9485 23.8326 30.9947 23.4375 30.0001 23.4375ZM30.0001 29.0625C29.6293 29.0625 29.2668 28.9526 28.9584 28.7465C28.6501 28.5405 28.4098 28.2477 28.2678 27.9051C28.1259 27.5624 28.0888 27.1854 28.1611 26.8217C28.2335 26.458 28.4121 26.1239 28.6743 25.8617C28.9365 25.5995 29.2706 25.4209 29.6343 25.3485C29.998 25.2762 30.375 25.3133 30.7176 25.4552C31.0603 25.5972 31.3531 25.8375 31.5591 26.1458C31.7652 26.4542 31.8751 26.8167 31.8751 27.1875C31.8751 27.6848 31.6776 28.1617 31.3259 28.5133C30.9743 28.865 30.4974 29.0625 30.0001 29.0625Z" fill="#C6973D"></path><path d="M26.2501 38.4375H28.1251V44.0625H26.2501V38.4375Z" fill="#C6973D"></path><path d="M31.8751 38.4375H33.7501V44.0625H31.8751V38.4375Z" fill="#C6973D"></path><path d="M29.0626 41.25H30.9376V46.875H29.0626V41.25Z" fill="#C6973D"></path><path d="M59.0167 47.9606C58.9625 47.7944 58.863 47.6466 58.7293 47.534C58.5956 47.4213 58.4331 47.3483 58.2601 47.3231L54.3226 46.7513L52.5639 43.1888C52.4864 43.032 52.3666 42.9001 52.2181 42.8078C52.0696 42.7155 51.8982 42.6666 51.7234 42.6666C51.5485 42.6666 51.3772 42.7155 51.2287 42.8078C51.0801 42.9001 50.9604 43.032 50.8829 43.1888L49.1232 46.7513L45.1857 47.3231C45.0125 47.3481 44.8497 47.4211 44.7158 47.5339C44.5819 47.6466 44.4823 47.7946 44.4281 47.961C44.374 48.1274 44.3675 48.3057 44.4095 48.4757C44.4514 48.6456 44.5401 48.8004 44.6654 48.9225L47.5126 51.6975L46.8404 55.6153C46.8109 55.7877 46.8302 55.965 46.8961 56.127C46.962 56.289 47.072 56.4294 47.2135 56.5322C47.355 56.635 47.5225 56.6961 47.6969 56.7087C47.8714 56.7213 48.0459 56.6849 48.2007 56.6035L51.7257 54.75L55.2442 56.5997C55.399 56.6811 55.5735 56.7176 55.748 56.705C55.9224 56.6924 56.0899 56.6312 56.2314 56.5284C56.3729 56.4256 56.4829 56.2853 56.5488 56.1232C56.6147 55.9612 56.634 55.784 56.6045 55.6116L55.9332 51.6938L58.7795 48.9188C58.9042 48.7969 58.9925 48.6427 59.0344 48.4734C59.0763 48.3042 59.0701 48.1266 59.0167 47.9606ZM54.271 50.6991C54.1623 50.805 54.0809 50.9358 54.0339 51.0802C53.9868 51.2245 53.9756 51.3782 54.001 51.5278L54.4351 54.0591L52.1626 52.8647C52.028 52.7939 51.8783 52.7569 51.7262 52.7569C51.5741 52.7569 51.4244 52.7939 51.2898 52.8647L49.0164 54.06L49.4504 51.5288C49.4759 51.3791 49.4646 51.2255 49.4176 51.0811C49.3706 50.9367 49.2892 50.806 49.1804 50.7L47.3439 48.9056L49.8854 48.5363C50.0358 48.5144 50.1787 48.4563 50.3017 48.367C50.4247 48.2777 50.5241 48.1598 50.5914 48.0235L51.7285 45.72L52.8648 48.0235C52.9322 48.1599 53.0317 48.2779 53.1549 48.3672C53.278 48.4565 53.4211 48.5146 53.5717 48.5363L56.1132 48.9056L54.271 50.6991Z" fill="#C6973D"></path><path d="M13.5939 8.92596C13.5397 8.75959 13.44 8.61172 13.3061 8.49906C13.1723 8.3864 13.0095 8.31344 12.8364 8.28846L9.9095 7.86283L8.597 5.21064C8.51073 5.06448 8.38783 4.94334 8.24044 4.85918C8.09305 4.77502 7.92626 4.73076 7.75653 4.73076C7.58681 4.73076 7.42001 4.77502 7.27262 4.85918C7.12523 4.94334 7.00233 5.06448 6.91606 5.21064L5.60356 7.86283L2.67575 8.28846C2.5026 8.3136 2.33993 8.3867 2.20616 8.49949C2.07239 8.61228 1.97286 8.76025 1.91882 8.92667C1.86478 9.09309 1.85838 9.27131 1.90037 9.44117C1.94235 9.61103 2.03103 9.76575 2.15638 9.88783L4.27513 11.9503L3.7745 14.866C3.74496 15.0384 3.76424 15.2156 3.83017 15.3776C3.8961 15.5396 4.00604 15.68 4.14756 15.7828C4.28908 15.8856 4.45655 15.9467 4.63101 15.9593C4.80548 15.9719 4.97999 15.9355 5.13481 15.8541L7.75325 14.4778L10.3726 15.8541C10.5274 15.9355 10.702 15.9719 10.8764 15.9593C11.0509 15.9467 11.2184 15.8856 11.3599 15.7828C11.5014 15.68 11.6113 15.5396 11.6773 15.3776C11.7432 15.2156 11.7625 15.0384 11.7329 14.866L11.2323 11.9503L13.3511 9.88783C13.4774 9.76626 13.5672 9.61167 13.6101 9.44164C13.653 9.27161 13.6474 9.09295 13.5939 8.92596ZM9.572 10.9538C9.46327 11.0599 9.38197 11.1909 9.3351 11.3354C9.28823 11.4799 9.27719 11.6337 9.30294 11.7835L9.56262 13.3125L8.18919 12.5906C8.05461 12.5199 7.90484 12.4829 7.75278 12.4829C7.60073 12.4829 7.45095 12.5199 7.31637 12.5906L5.94294 13.3125L6.20544 11.7825C6.23106 11.6327 6.21988 11.4789 6.17284 11.3344C6.12581 11.1898 6.04433 11.0589 5.93544 10.9528L4.82731 9.87096L6.36294 9.64783C6.51336 9.62599 6.65622 9.56789 6.7792 9.47856C6.90218 9.38922 7.0016 9.27132 7.06887 9.13502L7.75513 7.74283L8.44231 9.13502C8.50959 9.27132 8.60901 9.38922 8.73199 9.47856C8.85497 9.56789 8.99782 9.62599 9.14825 9.64783L10.6839 9.87096L9.572 10.9538Z" fill="#C6973D"></path><path d="M30.0001 59.0625C35.1012 59.064 40.1128 57.7228 44.5314 55.1738L43.5939 53.5509C38.6352 56.4093 32.9013 57.6306 27.2083 57.0409C21.5152 56.4512 16.1533 54.0806 11.8858 50.2666C7.61835 46.4526 4.66279 41.3895 3.4399 35.7982C2.21702 30.2069 2.78914 24.3723 5.07481 19.125L3.35638 18.375C1.42966 22.7986 0.634038 27.6321 1.04124 32.4399C1.44844 37.2476 3.04567 41.8785 5.68893 45.915C8.3322 49.9515 11.9384 53.2668 16.1825 55.562C20.4266 57.8572 25.1752 59.0602 30.0001 59.0625Z" fill="#C6973D"></path><path d="M30.0001 0.937519C24.5135 0.931295 19.1379 2.48303 14.4986 5.41221L15.5007 6.99752C20.4207 3.90035 26.2036 2.46118 32.0013 2.89108C37.7991 3.32099 43.3065 5.59734 47.7158 9.38628C52.1252 13.1752 55.2044 18.2773 56.5019 23.9444C57.7994 29.6114 57.2469 35.545 54.9254 40.875L56.6439 41.625C58.5706 37.2014 59.3662 32.3679 58.959 27.5602C58.5518 22.7524 56.9546 18.1216 54.3113 14.085C51.668 10.0485 48.0618 6.73324 43.8177 4.43802C39.5736 2.14281 34.8251 0.939832 30.0001 0.937519Z" fill="#C6973D"></path></svg> 