<svg width="26" height="26" viewBox="0 0 24 24" fill="none" xmlns="http://www.w3.org/2000/svg">
  <path d="M12 2a2 2 0 0 1 2 2v1.1a6 6 0 0 1 1.9.8l.78-.78a2 2 0 1 1 2.83 2.83l-.78.78A6 6 0 0 1 19.5 10.5H20a2 2 0 0 1 0 4h-1.1a6 6 0 0 1-.8 1.9l.78.78a2 2 0 1 1-2.83 2.83l-.78-.78A6 6 0 0 1 14 19.5V20a2 2 0 0 1-4 0v-1.1a6 6 0 0 1-1.9-.8l-.78.78a2 2 0 1 1-2.83-2.83l.78-.78A6 6 0 0 1 4.5 13.5H4a2 2 0 0 1 0-4h1.1a6 6 0 0 1 .8-1.9l-.78-.78A2 2 0 1 1 7.95 3.99l.78.78A6 6 0 0 1 10 4.1V4a2 2 0 0 1 2-2z" stroke="white" stroke-width="1.3" fill="none"/>
  <circle cx="12" cy="12" r="3" stroke="white" stroke-width="1.3" fill="none"/>
</svg>
