<svg width="150" height="146" viewBox="0 0 150 146" fill="none" xmlns="http://www.w3.org/2000/svg">
<path d="M122.069 127.129C125.962 127.129 129.13 123.962 129.13 120.069C129.13 116.176 125.962 113.009 122.069 113.009C118.177 113.009 115.009 116.176 115.009 120.069C115.009 123.962 118.177 127.129 122.069 127.129ZM122.069 117.716C123.368 117.716 124.423 118.772 124.423 120.069C124.423 121.366 123.368 122.423 122.069 122.423C120.77 122.423 119.716 121.366 119.716 120.069C119.716 118.772 120.77 117.716 122.069 117.716ZM9.10317 42.405H24.836L34.6476 113.044C29.6183 113.23 25.5774 117.351 25.5774 122.423C25.5774 127.614 29.7995 131.836 34.9912 131.836H41.0066C40.1971 133.227 39.6981 134.821 39.6981 136.543C39.6981 141.735 43.9202 145.957 49.112 145.957C54.3037 145.957 58.5258 141.735 58.5258 136.543C58.5258 134.821 58.0269 133.227 57.2173 131.836H78.6643C77.8547 133.227 77.3558 134.821 77.3558 136.543C77.3558 141.735 81.5779 145.957 86.7696 145.957C91.9614 145.957 96.1835 141.735 96.1835 136.543C96.1835 131.352 91.9614 127.129 86.7696 127.129H34.9936C32.3977 127.129 30.2866 125.018 30.2866 122.423C30.2866 119.827 32.3977 117.716 34.9936 117.716H96.1835V126.816L98.2027 127.106C99.3018 127.264 100.173 127.939 100.599 128.965C101.022 129.989 100.883 131.086 100.22 131.971L98.9935 133.604L108.537 143.147L110.168 141.921C111.057 141.257 112.156 141.118 113.175 141.542C114.202 141.966 114.877 142.839 115.032 143.935L115.322 145.957H128.817L129.106 143.935C129.261 142.839 129.939 141.968 130.963 141.542C131.984 141.118 133.081 141.255 133.971 141.921L135.602 143.147L145.145 133.604L143.919 131.971C143.255 131.086 143.116 129.989 143.54 128.965C143.966 127.941 144.836 127.264 145.936 127.106L147.955 126.816V113.322L145.938 113.032C144.839 112.875 143.968 112.199 143.542 111.173C143.118 110.149 143.257 109.053 143.921 108.168L145.147 106.534L135.604 96.9911L133.973 98.2172C133.083 98.8809 131.984 99.0197 130.965 98.5961C129.939 98.1725 129.264 97.2994 129.108 96.2027L128.817 94.181H117.673L119.438 80.0603H119.713C122.309 80.0603 124.42 77.9492 124.42 75.3534V70.6465C124.42 68.0506 122.309 65.9395 119.713 65.9395H32.8566L28.4721 34.375C27.992 30.9036 24.9867 28.2842 21.48 28.2842H9.10317C5.21056 28.2842 2.0428 31.452 2.0428 35.3446C2.0428 39.2372 5.21056 42.405 9.10317 42.405ZM53.8189 136.543C53.8189 139.139 51.7078 141.25 49.112 141.25C46.5161 141.25 44.405 139.139 44.405 136.543C44.405 133.947 46.5161 131.836 49.112 131.836C51.7078 131.836 53.8189 133.947 53.8189 136.543ZM91.4742 136.543C91.4742 139.139 89.3631 141.25 86.7673 141.25C84.1714 141.25 82.0604 139.139 82.0604 136.543C82.0604 133.947 84.1714 131.836 86.7673 131.836C89.3631 131.836 91.4742 133.947 91.4742 136.543ZM110.66 117.351C113.206 116.525 115.159 114.308 115.505 111.531L115.665 110.246C117.576 108.994 119.76 108.302 122.069 108.302C128.558 108.302 133.836 113.581 133.836 120.069C133.836 126.558 128.558 131.836 122.069 131.836C115.581 131.836 110.302 126.558 110.302 120.069C110.302 119.144 110.448 118.24 110.66 117.351ZM110.836 110.947C110.688 112.124 109.683 113.009 108.501 113.009H105.597V98.8879H112.345L110.836 110.947ZM100.888 113.009H86.7673V98.8879H100.888V113.009ZM49.112 98.8879H63.2327V113.009H49.112V98.8879ZM44.405 113.009H39.3922L37.4317 98.8879H44.405V113.009ZM67.9396 98.8879H82.0604V113.009H67.9396V98.8879ZM86.7673 94.181V80.0603H100.888V94.181H86.7673ZM82.0604 94.181H67.9396V80.0603H82.0604V94.181ZM63.2327 94.181H49.112V80.0603H63.2327V94.181ZM44.405 94.181H36.7775L34.8171 80.0603H44.405V94.181ZM125.016 98.8879C125.804 100.705 127.263 102.157 129.162 102.943C131.062 103.729 133.119 103.736 134.966 103.009L139.132 107.177C138.404 109.02 138.409 111.079 139.195 112.978C139.984 114.877 141.433 116.336 143.253 117.125V123.018C141.436 123.804 139.984 125.266 139.195 127.165C138.409 129.064 138.404 131.123 139.132 132.966L134.966 137.134C133.119 136.404 131.062 136.411 129.162 137.2C127.263 137.986 125.804 139.438 125.016 141.255H119.123C118.334 139.438 116.875 137.986 114.976 137.2C113.077 136.414 111.02 136.407 109.172 137.134L105.007 132.966C105.734 131.123 105.729 129.064 104.943 127.165C104.155 125.266 102.705 123.806 100.886 123.018V117.716H105.793C105.68 118.492 105.593 119.276 105.593 120.069C105.593 129.153 112.985 136.543 122.067 136.543C131.149 136.543 138.541 129.153 138.541 120.069C138.541 110.985 131.149 103.595 122.067 103.595C120.088 103.595 118.174 103.969 116.364 104.637L117.087 98.8879H125.016ZM112.931 94.181H105.595V80.0603H114.696L112.931 94.181ZM119.716 70.6465V75.3534H34.1628L33.5085 70.6465H119.716ZM9.10317 32.9911H21.48C22.6473 32.9911 23.6499 33.8643 23.8099 35.0222L24.1818 37.698H9.10317C7.80407 37.698 6.74972 36.6413 6.74972 35.3446C6.74972 34.0478 7.80407 32.9911 9.10317 32.9911ZM6.74972 103.595H0L13.8101 82.8774L27.6202 103.595H20.8705V127.129H16.1635V98.8879H18.8277L13.8101 91.3639L8.79252 98.8879H11.4566V117.716H6.74972V103.595ZM6.74972 122.423H11.4566V145.957H6.74972V122.423ZM20.8705 136.543H16.1635V131.836H20.8705V136.543ZM16.1635 141.25H20.8705V145.957H16.1635V141.25ZM143.25 70.6465H138.543V42.405H141.207L136.19 34.881L131.172 42.405H133.836V61.2326H129.13V47.1119H122.38L136.19 26.3944L150 47.1119H143.25V70.6465ZM129.13 65.9395H133.836V80.0603H129.13V65.9395ZM143.25 80.0603H138.543V75.3534H143.25V80.0603ZM138.543 84.7672H143.25V89.4741H138.543V84.7672ZM44.405 30.6377C44.405 47.5073 58.1304 61.2326 75 61.2326C91.8696 61.2326 105.595 47.5073 105.595 30.6377C105.595 13.7681 91.8696 0.0427246 75 0.0427246C58.1304 0.0427246 44.405 13.7681 44.405 30.6377ZM100.888 30.6377C100.888 33.0876 100.523 35.4505 99.8855 37.698H90.8999C91.2577 35.5164 91.4742 33.1771 91.4742 30.6377C91.4742 28.0983 91.2577 25.759 90.8999 23.5773H99.8855C100.523 25.8249 100.888 28.1877 100.888 30.6377ZM86.7673 30.6377C86.7673 33.2124 86.5178 35.5493 86.1154 37.698H63.8917C63.4845 35.547 63.2327 33.21 63.2327 30.6377C63.2327 28.063 63.4822 25.726 63.8846 23.5773H86.1083C86.5155 25.7284 86.7673 28.0653 86.7673 30.6377ZM75.007 56.0762C72.8042 54.497 67.8714 50.2443 65.139 42.405H84.8916C82.1686 50.2914 77.2287 54.5041 75.007 56.0762ZM49.112 30.6377C49.112 28.1877 49.4767 25.8249 50.1145 23.5773H59.1C58.7423 25.759 58.5258 28.0983 58.5258 30.6377C58.5258 33.1771 58.7423 35.5164 59.1 37.698H50.1145C49.4767 35.4505 49.112 33.0876 49.112 30.6377ZM65.1108 18.8704C67.8314 10.991 72.7666 6.77597 74.9953 5.2015C77.1981 6.78067 82.131 11.0334 84.8633 18.8704H65.1108ZM67.2524 5.93578C64.6401 8.89173 61.8889 13.1397 60.185 18.8704H51.9691C55.1086 12.7514 60.5968 8.02801 67.2524 5.93578ZM51.9691 42.405H60.185C61.8865 48.1356 64.6401 52.3836 67.2524 55.3396C60.5968 53.2473 55.1086 48.524 51.9691 42.405ZM82.7476 55.3396C85.3599 52.3836 88.1111 48.1356 89.815 42.405H98.0309C94.8914 48.524 89.4032 53.2473 82.7476 55.3396ZM98.0309 18.8704H89.815C88.1134 13.1397 85.3599 8.89173 82.7476 5.93578C89.4032 8.02801 94.8914 12.7514 98.0309 18.8704Z" fill="url(#paint0_linear_116_229)"/>
<defs>
<linearGradient id="paint0_linear_116_229" x1="2.22112e-06" y1="145.957" x2="179.228" y2="82.1806" gradientUnits="userSpaceOnUse">
<stop stop-color="#000428"/>
<stop offset="1" stop-color="#004E92"/>
</linearGradient>
</defs>
</svg>
