<?xml version="1.0" encoding="UTF-8"?> <svg xmlns="http://www.w3.org/2000/svg" width="209" height="56" viewBox="0 0 209 56" fill="none"><g clip-path="url(#clip0_98_579)"><path d="M8.47951 43.7404L0 12.4479H7.73469L14.0943 37.1708H15.2975L19.9384 13.4852H29.1054L34.4337 37.1708H35.6368L41.3089 12.4479H48.528L41.0225 43.7404H29.6209L24.4645 21.2652L19.881 43.7404H8.47951Z" fill="#312B3F"></path><path d="M59.4589 8.70197C57.8928 8.70197 56.7279 8.29857 55.9639 7.49177C55.2383 6.64654 54.8754 5.59001 54.8754 4.32218C54.8754 3.05434 55.2383 2.01701 55.9639 1.21021C56.7279 0.403403 57.8928 0 59.4589 0C60.9868 0 62.1135 0.403403 62.8393 1.21021C63.6032 2.01701 63.9851 3.05434 63.9851 4.32218C63.9851 5.59001 63.6032 6.64654 62.8393 7.49177C62.1135 8.29857 60.9868 8.70197 59.4589 8.70197ZM56.5369 43.7404V18.4413H52.1826V12.4478H64.5008V43.7404H56.5369Z" fill="#312B3F"></path><path d="M81.7616 44.72C77.4836 44.72 74.1224 43.8172 71.6778 42.0115C69.2715 40.1673 68.011 37.6317 67.8965 34.4044H75.0582C75.1346 35.5186 75.7076 36.5176 76.777 37.4011C77.8847 38.2464 79.5844 38.6691 81.8761 38.6691C83.7477 38.6691 85.2566 38.3232 86.4024 37.6317C87.5482 36.9401 88.1212 35.9988 88.1212 34.8079C88.1212 33.7705 87.6819 32.9638 86.8034 32.3874C85.9631 31.7728 84.5117 31.3501 82.4491 31.1196L79.699 30.8315C76.185 30.4473 73.4922 29.4484 71.6206 27.8348C69.7871 26.2211 68.8705 24.0696 68.8705 21.3803C68.8705 19.2672 69.4052 17.4807 70.4746 16.0208C71.5442 14.5225 73.0147 13.4083 74.8864 12.6784C76.7961 11.91 78.9732 11.5258 81.4178 11.5258C85.2374 11.5258 88.3313 12.3902 90.6995 14.119C93.0675 15.8095 94.309 18.2684 94.4236 21.4956H87.2619C87.1472 20.4199 86.5934 19.4978 85.6003 18.7294C84.6453 17.961 83.2321 17.5768 81.3605 17.5768C79.6799 17.5768 78.3812 17.9034 77.4645 18.5565C76.5479 19.2097 76.0895 20.0549 76.0895 21.0921C76.0895 22.0911 76.4524 22.8594 77.178 23.3974C77.9038 23.9352 79.126 24.3002 80.845 24.4923L83.595 24.7804C87.2236 25.1647 90.0884 26.1828 92.1891 27.8348C94.2899 29.4868 95.3403 31.7151 95.3403 34.5197C95.3403 36.5944 94.7673 38.4 93.6215 39.9368C92.5138 41.4352 90.9477 42.607 88.9234 43.4522C86.899 44.2974 84.5117 44.72 81.7616 44.72Z" fill="#312B3F"></path><path d="M114.567 44.8353C111.893 44.8353 109.544 44.3743 107.52 43.4522C105.534 42.5302 103.872 41.3007 102.535 39.764C101.237 38.1888 100.244 36.4407 99.556 34.5197C98.9067 32.5988 98.582 30.6394 98.582 28.6416V27.5466C98.582 25.472 98.9067 23.4742 99.556 21.5532C100.244 19.6323 101.237 17.9034 102.535 16.3666C103.872 14.8299 105.515 13.6197 107.463 12.736C109.411 11.8139 111.664 11.3529 114.223 11.3529C117.585 11.3529 120.392 12.1021 122.646 13.6005C124.9 15.0603 126.599 17.0005 127.745 19.4209C128.929 21.803 129.521 24.377 129.521 27.1432V30.0246H106.145C106.412 32.4835 107.214 34.4622 108.551 35.9605C109.926 37.4589 111.932 38.208 114.567 38.208C116.477 38.208 118.043 37.8239 119.265 37.0554C120.526 36.2487 121.328 35.2689 121.672 34.1163H129.005C128.317 37.3436 126.694 39.9369 124.135 41.8963C121.576 43.8557 118.387 44.8353 114.567 44.8353ZM114.223 17.9803C111.97 17.9803 110.175 18.6142 108.838 19.8819C107.501 21.1499 106.641 22.8979 106.259 25.1262H121.901C121.595 22.8979 120.793 21.1499 119.494 19.8819C118.234 18.6142 116.477 17.9803 114.223 17.9803Z" fill="#312B3F"></path><path d="M139.098 28.0387C139.098 28.0387 164.307 56.0001 180.064 56.0001C195.821 56.0001 208.594 43.4813 208.594 28.0387C208.594 12.596 195.821 0.0772718 180.064 0.0772705C164.307 0.0772692 139.098 28.0387 139.098 28.0387Z" fill="url(#paint0_linear_98_579)"></path><path d="M172.636 35.2979V32.6414L176.822 28.2535C177.331 27.7288 177.696 27.2696 177.918 26.8762C178.139 26.4826 178.25 26.0824 178.25 25.6758C178.25 25.1773 178.081 24.8035 177.742 24.5543C177.416 24.3051 176.94 24.1804 176.313 24.1804C175.793 24.1804 175.257 24.2788 174.71 24.4756C174.174 24.6592 173.634 24.9609 173.085 25.3807L171.971 22.744C172.584 22.2718 173.32 21.8979 174.182 21.6224C175.042 21.3469 175.929 21.2092 176.841 21.2092C178.446 21.2092 179.666 21.5568 180.501 22.252C181.348 22.9473 181.772 23.9508 181.772 25.2627C181.772 26.1022 181.576 26.9089 181.185 27.6828C180.806 28.4437 180.174 29.257 179.287 30.1228L177.021 32.3463H182.28V35.2979H172.636Z" fill="white"></path><path fill-rule="evenodd" clip-rule="evenodd" d="M158.86 35.298V21.4258H165.55C167.09 21.4258 168.269 21.7472 169.092 22.39C169.925 23.0327 170.343 23.905 170.343 25.007C170.343 25.8202 170.101 26.5155 169.62 27.0926C169.264 27.5298 168.807 27.8616 168.249 28.0881C168.956 28.2919 169.516 28.6291 169.932 29.0997C170.467 29.6769 170.734 30.4312 170.734 31.3625C170.734 32.5826 170.291 33.5466 169.404 34.255C168.517 34.9503 167.305 35.298 165.766 35.298H158.86ZM162.323 32.6415H165.295C165.974 32.6415 166.476 32.5169 166.802 32.2676C167.141 32.0184 167.311 31.6314 167.311 31.1067C167.311 30.5689 167.141 30.182 166.802 29.9458C166.476 29.7096 165.974 29.5917 165.295 29.5917H162.323V32.6415ZM162.323 26.9352H164.885C165.576 26.9352 166.079 26.8172 166.392 26.5811C166.717 26.3449 166.881 25.9842 166.881 25.4988C166.881 25.0134 166.717 24.6593 166.392 24.4363C166.079 24.2002 165.576 24.0821 164.885 24.0821H162.323V26.9352Z" fill="white"></path><path fill-rule="evenodd" clip-rule="evenodd" d="M184.307 21.4258V35.298H191.212C192.752 35.298 193.965 34.9503 194.851 34.255C195.738 33.5466 196.182 32.5826 196.182 31.3625C196.182 30.4312 195.914 29.6769 195.38 29.0997C194.963 28.6291 194.402 28.2919 193.697 28.0881C194.254 27.8616 194.711 27.5298 195.067 27.0926C195.549 26.5155 195.791 25.8202 195.791 25.007C195.791 23.905 195.373 23.0327 194.538 22.39C193.717 21.7472 192.536 21.4258 190.997 21.4258H184.307ZM190.743 32.6415H187.769V29.5917H190.743C191.421 29.5917 191.924 29.7096 192.25 29.9458C192.588 30.182 192.758 30.5689 192.758 31.1067C192.758 31.6314 192.588 32.0184 192.25 32.2676C191.924 32.5169 191.421 32.6415 190.743 32.6415ZM190.332 26.9352H187.769V24.0821H190.332C191.024 24.0821 191.525 24.2002 191.839 24.4363C192.164 24.6593 192.328 25.0134 192.328 25.4988C192.328 25.9842 192.164 26.3449 191.839 26.5811C191.525 26.8172 191.024 26.9352 190.332 26.9352Z" fill="white"></path></g><defs><linearGradient id="paint0_linear_98_579" x1="173.845" y1="0.07727" x2="173.845" y2="56.0001" gradientUnits="userSpaceOnUse"><stop stop-color="#D9B062"></stop><stop offset="1" stop-color="#C6973D"></stop></linearGradient><clipPath id="clip0_98_579"><rect width="209" height="56" fill="white"></rect></clipPath></defs></svg> 