<svg width="149" height="40" viewBox="0 0 149 40" fill="none" xmlns="http://www.w3.org/2000/svg">
<path d="M6.03285 31.2431L0 8.89133H5.50294L10.0276 26.5505H10.8836L14.1854 9.63227H20.7073L24.4983 26.5505H25.3543L29.3898 8.89133H34.5258L29.186 31.2431H21.0742L17.4056 15.1894L14.1446 31.2431H6.03285Z" fill="#312B3F"/>
<path d="M42.3029 6.2157C41.1887 6.2157 40.3599 5.92755 39.8164 5.35126C39.3001 4.74753 39.0419 3.99287 39.0419 3.08727C39.0419 2.18167 39.3001 1.44073 39.8164 0.864435C40.3599 0.288145 41.1887 0 42.3029 0C43.3899 0 44.1916 0.288145 44.7079 0.864435C45.2514 1.44073 45.5231 2.18167 45.5231 3.08727C45.5231 3.99287 45.2514 4.74753 44.7079 5.35126C44.1916 5.92755 43.3899 6.2157 42.3029 6.2157ZM40.224 31.2431L40.224 13.1723H37.1261V8.89133H45.89L45.89 31.2431L40.224 31.2431Z" fill="#312B3F"/>
<path d="M58.1701 31.9429C55.1265 31.9429 52.7351 31.298 50.9959 30.0082C49.2839 28.691 48.3871 26.8798 48.3056 24.5746H53.4009C53.4553 25.3705 53.8629 26.084 54.6238 26.7151C55.4119 27.3189 56.6212 27.6207 58.2517 27.6207C59.5832 27.6207 60.6567 27.3738 61.4719 26.8798C62.2872 26.3858 62.6948 25.7135 62.6948 24.8628C62.6948 24.1218 62.3823 23.5455 61.7573 23.1339C61.1594 22.6948 60.1267 22.393 58.6593 22.2283L56.7027 22.0225C54.2026 21.7481 52.2868 21.0346 50.9552 19.882C49.6508 18.7294 48.9986 17.1926 48.9986 15.2717C48.9986 13.7623 49.379 12.4863 50.1399 11.4435C50.9008 10.3732 51.9471 9.57739 53.2786 9.05598C54.6374 8.50713 56.1864 8.23271 57.9256 8.23271C60.6431 8.23271 62.8443 8.85016 64.5291 10.0851C66.214 11.2925 67.0971 13.0488 67.1787 15.354L62.0834 15.354C62.0018 14.5856 61.6078 13.927 60.9012 13.3782C60.2219 12.8293 59.2164 12.5549 57.8848 12.5549C56.6891 12.5549 55.7652 12.7881 55.113 13.2547C54.4608 13.7212 54.1347 14.3249 54.1347 15.0659C54.1347 15.7794 54.3928 16.3282 54.9091 16.7124C55.4255 17.0966 56.2951 17.3573 57.518 17.4945L59.4745 17.7003C62.0562 17.9748 64.0943 18.702 65.5889 19.882C67.0836 21.062 67.8309 22.6537 67.8309 24.657C67.8309 26.1389 67.4232 27.4286 66.608 28.5263C65.8199 29.5966 64.7057 30.4336 63.2655 31.0373C61.8252 31.641 60.1267 31.9429 58.1701 31.9429Z" fill="#312B3F"/>
<path d="M81.5105 32.0252C79.6082 32.0252 77.937 31.6959 76.4967 31.0373C75.0836 30.3787 73.9015 29.5005 72.9503 28.4028C72.0264 27.2777 71.3198 26.0291 70.8307 24.657C70.3687 23.2848 70.1377 21.8853 70.1377 20.4583V19.6762C70.1377 18.1943 70.3687 16.7673 70.8307 15.3952C71.3198 14.023 72.0264 12.7881 72.9503 11.6904C73.9015 10.5928 75.07 9.72832 76.4559 9.09714C77.8418 8.43853 79.4452 8.10922 81.2659 8.10922C83.6573 8.10922 85.6546 8.64435 87.258 9.7146C88.8613 10.7574 90.0706 12.1432 90.8858 13.8721C91.7283 15.5735 92.1495 17.4122 92.1495 19.388V21.4462H75.5184C75.7086 23.2025 76.2793 24.6158 77.2304 25.6861C78.2087 26.7563 79.6354 27.2914 81.5105 27.2914C82.8692 27.2914 83.9834 27.017 84.853 26.4682C85.7498 25.8919 86.3204 25.1921 86.565 24.3688H91.7826C91.2935 26.674 90.1385 28.5263 88.3178 29.9259C86.4971 31.3255 84.228 32.0252 81.5105 32.0252ZM81.2659 12.843C79.6626 12.843 78.3853 13.2958 77.4342 14.2014C76.4831 15.107 75.8717 16.3556 75.5999 17.9473H86.7281C86.5107 16.3556 85.94 15.107 85.016 14.2014C84.1193 13.2958 82.8692 12.843 81.2659 12.843Z" fill="#312B3F"/>
<path d="M98.9636 20.0276C98.9636 20.0276 116.899 40 128.11 40C139.32 40 148.408 31.058 148.408 20.0276C148.408 8.9971 139.32 0.0551445 128.11 0.0551435C116.899 0.0551425 98.9636 20.0276 98.9636 20.0276Z" fill="url(#paint0_linear_1137_1817)"/>
<path d="M122.824 25.2128V23.3154L125.803 20.1811C126.164 19.8063 126.424 19.4784 126.582 19.1973C126.74 18.9162 126.819 18.6304 126.819 18.3399C126.819 17.9839 126.698 17.7168 126.457 17.5388C126.225 17.3608 125.886 17.2718 125.441 17.2718C125.069 17.2718 124.689 17.342 124.299 17.4826C123.919 17.6138 123.534 17.8293 123.144 18.1291L122.351 16.2458C122.787 15.9084 123.311 15.6414 123.924 15.4446C124.536 15.2479 125.167 15.1495 125.816 15.1495C126.958 15.1495 127.825 15.3978 128.419 15.8944C129.022 16.391 129.324 17.1078 129.324 18.0448C129.324 18.6445 129.185 19.2207 128.906 19.7735C128.637 20.317 128.187 20.8979 127.556 21.5163L125.944 23.1045H129.686V25.2128H122.824Z" fill="white"/>
<path fill-rule="evenodd" clip-rule="evenodd" d="M113.023 25.2128V15.3041H117.783C118.878 15.3041 119.718 15.5336 120.303 15.9928C120.896 16.4519 121.193 17.075 121.193 17.8621C121.193 18.443 121.022 18.9396 120.678 19.3519C120.425 19.6641 120.1 19.9011 119.704 20.0629C120.206 20.2085 120.605 20.4493 120.901 20.7855C121.281 21.1978 121.472 21.7365 121.472 22.4018C121.472 23.2732 121.156 23.9619 120.525 24.4679C119.894 24.9645 119.031 25.2128 117.936 25.2128H113.023ZM115.487 23.3154H117.602C118.085 23.3154 118.442 23.2263 118.674 23.0483C118.915 22.8703 119.036 22.5939 119.036 22.2191C119.036 21.8349 118.915 21.5585 118.674 21.3898C118.442 21.2212 118.085 21.1369 117.602 21.1369H115.487V23.3154ZM115.487 19.2394H117.31C117.802 19.2394 118.159 19.1551 118.382 18.9865C118.614 18.8178 118.73 18.5601 118.73 18.2134C118.73 17.8668 118.614 17.6138 118.382 17.4545C118.159 17.2858 117.802 17.2015 117.31 17.2015H115.487V19.2394Z" fill="white"/>
<path fill-rule="evenodd" clip-rule="evenodd" d="M131.128 15.3041V25.2128L136.041 25.2128C137.136 25.2128 137.998 24.9645 138.629 24.4679C139.26 23.9619 139.576 23.2732 139.576 22.4018C139.576 21.7365 139.386 21.1978 139.005 20.7855C138.709 20.4493 138.31 20.2085 137.808 20.0629C138.205 19.9011 138.53 19.6641 138.783 19.3519C139.126 18.9396 139.297 18.443 139.297 17.8621C139.297 17.075 139.001 16.4519 138.407 15.9928C137.822 15.5336 136.982 15.3041 135.888 15.3041L131.128 15.3041ZM135.707 23.3154L133.591 23.3154V21.1369H135.707C136.189 21.1369 136.546 21.2212 136.778 21.3898C137.02 21.5585 137.14 21.8349 137.14 22.2191C137.14 22.5939 137.02 22.8703 136.778 23.0483C136.546 23.2263 136.189 23.3154 135.707 23.3154ZM135.414 19.2394H133.591V17.2015H135.414C135.906 17.2015 136.263 17.2858 136.486 17.4545C136.718 17.6138 136.834 17.8668 136.834 18.2134C136.834 18.5601 136.718 18.8178 136.486 18.9865C136.263 19.1551 135.906 19.2394 135.414 19.2394Z" fill="white"/>
<defs>
<linearGradient id="paint0_linear_1137_1817" x1="123.686" y1="0.0551431" x2="123.686" y2="40" gradientUnits="userSpaceOnUse">
<stop stop-color="#D9B062"/>
<stop offset="1" stop-color="#C6973D"/>
</linearGradient>
</defs>
</svg>
