<svg width="171" height="46" viewBox="0 0 171 46" fill="none" xmlns="http://www.w3.org/2000/svg">
<path d="M6.93778 35.9296L0 10.225H6.32838L11.5317 30.5331H12.5161L16.3132 11.0771L23.8135 11.0771L28.173 30.5331H29.1574L33.7982 10.225L39.7047 10.225L33.5639 35.9296L24.2353 35.9296L20.0164 17.4678L16.2663 35.9296H6.93778Z" fill="#312B3F"/>
<path d="M48.6483 7.14805C47.367 7.14805 46.4139 6.81668 45.7888 6.15395C45.1951 5.45966 44.8982 4.59179 44.8982 3.55036C44.8982 2.50892 45.1951 1.65683 45.7888 0.994101C46.4139 0.331367 47.367 0 48.6483 0C49.8984 0 50.8203 0.331367 51.4141 0.994101C52.0391 1.65683 52.3516 2.50892 52.3516 3.55036C52.3516 4.59179 52.0391 5.45966 51.4141 6.15395C50.8203 6.81668 49.8984 7.14805 48.6483 7.14805ZM46.2576 35.9296L46.2576 15.1482H42.695V10.225L52.7735 10.225L52.7735 35.9296H46.2576Z" fill="#312B3F"/>
<path d="M66.8957 36.7343C63.3955 36.7343 60.6454 35.9927 58.6453 34.5095C56.6765 32.9946 55.6452 30.9118 55.5515 28.2608H61.4111C61.4736 29.176 61.9424 29.9966 62.8174 30.7224C63.7237 31.4167 65.1143 31.7639 66.9894 31.7639C68.5207 31.7639 69.7552 31.4798 70.6927 30.9118C71.6302 30.3437 72.099 29.5705 72.099 28.5922C72.099 27.7401 71.7396 27.0774 71.0208 26.604C70.3333 26.0991 69.1458 25.7519 67.4582 25.5626L65.2081 25.3259C62.333 25.0103 60.1298 24.1898 58.5985 22.8643C57.0984 21.5388 56.3484 19.7715 56.3484 17.5624C56.3484 15.8267 56.7859 14.3592 57.6609 13.16C58.536 11.9292 59.7391 11.014 61.2705 10.4144C62.833 9.78321 64.6143 9.46762 66.6144 9.46762C69.7395 9.46762 72.2709 10.1777 74.2085 11.5978C76.146 12.9864 77.1617 15.0062 77.2555 17.6571L71.3959 17.6571C71.3021 16.7735 70.849 16.0161 70.0364 15.3849C69.2551 14.7537 68.0988 14.4381 66.5675 14.4381C65.1925 14.4381 64.1299 14.7064 63.3799 15.2429C62.6299 15.7794 62.2549 16.4737 62.2549 17.3257C62.2549 18.1463 62.5518 18.7774 63.1455 19.2193C63.7393 19.6611 64.7393 19.9609 66.1457 20.1187L68.3957 20.3554C71.3646 20.671 73.7085 21.5073 75.4273 22.8643C77.1461 24.2213 78.0055 26.0517 78.0055 28.3555C78.0055 30.0597 77.5367 31.5429 76.5992 32.8053C75.6929 34.0361 74.4116 34.9986 72.7553 35.6929C71.099 36.3872 69.1458 36.7343 66.8957 36.7343Z" fill="#312B3F"/>
<path d="M93.737 36.829C91.5495 36.829 89.6275 36.4503 87.9712 35.6929C86.3461 34.9355 84.9867 33.9256 83.8929 32.6633C82.8304 31.3694 82.0178 29.9334 81.4553 28.3555C80.924 26.7776 80.6584 25.1681 80.6584 23.527V22.6276C80.6584 20.9234 80.924 19.2824 81.4553 17.7044C82.0178 16.1265 82.8304 14.7064 83.8929 13.444C84.9867 12.1817 86.3305 11.1876 87.9243 10.4617C89.5181 9.70431 91.3619 9.3256 93.4558 9.3256C96.2059 9.3256 98.5029 9.941 100.347 11.1718C102.191 12.371 103.581 13.9647 104.519 15.9529C105.488 17.9096 105.972 20.024 105.972 22.2962V24.6631L86.8461 24.6631C87.0649 26.6829 87.7212 28.3082 88.815 29.539C89.94 30.7698 91.5807 31.3851 93.737 31.3851C95.2996 31.3851 96.5809 31.0696 97.5809 30.4384C98.6122 29.7757 99.2685 28.9709 99.5498 28.0241L105.55 28.0241C104.987 30.6751 103.659 32.8053 101.565 34.4148C99.4716 36.0243 96.8622 36.829 93.737 36.829ZM93.4558 14.7695C91.612 14.7695 90.1432 15.2902 89.0494 16.3316C87.9556 17.3731 87.2524 18.809 86.9399 20.6394H99.7373C99.4873 18.809 98.831 17.3731 97.7685 16.3316C96.7372 15.2902 95.2996 14.7695 93.4558 14.7695Z" fill="#312B3F"/>
<path d="M113.807 23.0318C113.807 23.0318 134.433 46.0001 147.325 46.0001C160.217 46.0001 170.668 35.7168 170.668 23.0318C170.668 10.3467 160.217 0.0634756 147.325 0.0634745C134.433 0.0634734 113.807 23.0318 113.807 23.0318Z" fill="url(#paint0_linear_1137_1366)"/>
<path d="M141.247 28.9947V26.8126L144.672 23.2083C145.089 22.7773 145.387 22.4001 145.569 22.0769C145.75 21.7536 145.841 21.4249 145.841 21.0909C145.841 20.6814 145.702 20.3743 145.425 20.1696C145.158 19.9649 144.769 19.8625 144.256 19.8625C143.83 19.8625 143.392 19.9433 142.944 20.105C142.506 20.2558 142.064 20.5036 141.615 20.8485L140.703 18.6826C141.205 18.2947 141.807 17.9876 142.512 17.7613C143.216 17.535 143.942 17.4219 144.688 17.4219C146.001 17.4219 146.999 17.7074 147.682 18.2785C148.375 18.8496 148.722 19.6739 148.722 20.7515C148.722 21.4411 148.562 22.1038 148.242 22.7395C147.932 23.3645 147.415 24.0326 146.689 24.7438L144.835 26.5702H149.138V28.9947H141.247Z" fill="white"/>
<path fill-rule="evenodd" clip-rule="evenodd" d="M129.977 28.9947V17.5997H135.45C136.71 17.5997 137.675 17.8637 138.348 18.3917C139.03 18.9197 139.372 19.6362 139.372 20.5414C139.372 21.2094 139.174 21.7805 138.78 22.2546C138.489 22.6137 138.115 22.8863 137.659 23.0723C138.237 23.2397 138.695 23.5167 139.036 23.9033C139.473 24.3774 139.692 24.997 139.692 25.762C139.692 26.7642 139.329 27.5561 138.604 28.138C137.878 28.7091 136.886 28.9947 135.627 28.9947H129.977ZM132.81 26.8126H135.242C135.797 26.8126 136.208 26.7103 136.475 26.5055C136.752 26.3008 136.891 25.9829 136.891 25.5519C136.891 25.1101 136.752 24.7923 136.475 24.5983C136.208 24.4043 135.797 24.3074 135.242 24.3074H132.81V26.8126ZM132.81 22.1253H134.906C135.472 22.1253 135.883 22.0284 136.139 21.8344C136.405 21.6404 136.539 21.3441 136.539 20.9454C136.539 20.5467 136.405 20.2558 136.139 20.0726C135.883 19.8787 135.472 19.7817 134.906 19.7817H132.81V22.1253Z" fill="white"/>
<path fill-rule="evenodd" clip-rule="evenodd" d="M150.796 17.5997V28.9947L156.446 28.9947C157.706 28.9947 158.698 28.7091 159.423 28.138C160.149 27.5561 160.512 26.7642 160.512 25.762C160.512 24.997 160.293 24.3774 159.856 23.9033C159.515 23.5167 159.056 23.2397 158.479 23.0723C158.935 22.8863 159.309 22.6137 159.6 22.2546C159.994 21.7805 160.192 21.2094 160.192 20.5414C160.192 19.6362 159.85 18.9197 159.167 18.3917C158.495 17.8637 157.529 17.5997 156.27 17.5997H150.796ZM156.062 26.8126H153.629V24.3074H156.062C156.617 24.3074 157.028 24.4043 157.295 24.5983C157.572 24.7923 157.711 25.1101 157.711 25.5519C157.711 25.9829 157.572 26.3008 157.295 26.5055C157.028 26.7103 156.617 26.8126 156.062 26.8126ZM155.726 22.1253H153.629V19.7817H155.726C156.292 19.7817 156.702 19.8787 156.959 20.0726C157.225 20.2558 157.359 20.5467 157.359 20.9454C157.359 21.3441 157.225 21.6404 156.959 21.8344C156.702 22.0284 156.292 22.1253 155.726 22.1253Z" fill="white"/>
<defs>
<linearGradient id="paint0_linear_1137_1366" x1="142.237" y1="0.0634741" x2="142.237" y2="46.0001" gradientUnits="userSpaceOnUse">
<stop stop-color="#D9B062"/>
<stop offset="1" stop-color="#C6973D"/>
</linearGradient>
</defs>
</svg>
