<?xml version="1.0" encoding="UTF-8"?> <svg xmlns="http://www.w3.org/2000/svg" width="93" height="93" viewBox="0 0 93 93" fill="none"><path d="M85.7162 27.6502C88.5533 33.5276 90.0182 39.9728 90.0002 46.4992C90.006 54.8667 87.5967 63.058 83.0615 70.0899C78.5263 77.1218 72.0581 82.6953 64.4332 86.1415C56.8083 89.5876 48.3508 90.7598 40.076 89.5175C31.8013 88.2751 24.0609 84.671 17.7842 79.1377L21.0422 75.8857C21.2347 75.694 21.3715 75.4536 21.438 75.1901C21.5045 74.9267 21.4982 74.6502 21.4199 74.3901C21.3415 74.1299 21.1939 73.896 20.9929 73.7132C20.7919 73.5304 20.545 73.4056 20.2787 73.3522L9.67517 71.2267C9.4331 71.1782 9.18281 71.1903 8.9465 71.2617C8.71019 71.3332 8.49518 71.4619 8.32053 71.6364C8.14589 71.8109 8.01702 72.0258 7.94535 72.262C7.87367 72.4983 7.86142 72.7486 7.90967 72.9907L10.0202 83.5927C10.0733 83.8587 10.1975 84.1052 10.3797 84.3062C10.5618 84.5072 10.795 84.655 11.0545 84.734C11.314 84.8129 11.59 84.82 11.8532 84.7546C12.1164 84.6891 12.3569 84.5535 12.5492 84.3622L15.6587 81.2602C22.356 87.2137 30.6318 91.1038 39.4893 92.4619C48.3467 93.8199 57.4079 92.588 65.5813 88.9145C73.7546 85.241 80.6915 79.2826 85.5563 71.7571C90.421 64.2317 93.0061 55.4601 93.0002 46.4992C93.0195 39.5219 91.453 32.6314 88.4192 26.3482L85.7162 27.6502ZM12.4142 80.2582L11.2907 74.6107L16.9397 75.7432L12.4142 80.2582Z" fill="#C1554D"></path><path d="M7.28417 65.3482C4.44699 59.4707 2.98213 53.0256 3.00018 46.4992C2.99845 38.1319 5.41045 29.9417 9.94692 22.9109C14.4834 15.88 20.9517 10.3071 28.5762 6.8604C36.2006 3.4137 44.6575 2.23957 52.9325 3.47883C61.2075 4.71809 68.9494 8.31813 75.2297 13.8472L71.9582 17.1127C71.7657 17.3044 71.6289 17.5448 71.5623 17.8082C71.4958 18.0716 71.5021 18.3482 71.5805 18.6083C71.6589 18.8684 71.8064 19.1024 72.0074 19.2852C72.2084 19.468 72.4553 19.5927 72.7217 19.6462L83.3252 21.7717C83.5672 21.8201 83.8175 21.8081 84.0538 21.7366C84.2901 21.6652 84.5052 21.5365 84.6798 21.362C84.8544 21.1875 84.9833 20.9726 85.055 20.7363C85.1267 20.5001 85.1389 20.2498 85.0907 20.0077L82.9802 9.40568C82.927 9.13971 82.8028 8.89312 82.6207 8.69215C82.4385 8.49118 82.2053 8.34336 81.9458 8.26441C81.6864 8.18546 81.4103 8.17834 81.1471 8.2438C80.8839 8.30927 80.6434 8.44487 80.4512 8.63618L77.3552 11.7247C70.6543 5.77543 62.3769 1.88949 53.5192 0.534561C44.6615 -0.820369 35.601 0.413451 27.4281 4.08752C19.2552 7.7616 12.3183 13.7194 7.45222 21.2437C2.58615 28.7681 -0.00168432 37.5384 0.000176629 46.4992C-0.0191469 53.4765 1.54729 60.367 4.58118 66.6502L7.28417 65.3482ZM80.5862 12.7402L81.7097 18.3877L76.0607 17.2492L80.5862 12.7402Z" fill="#C1554D"></path><path d="M66.4067 73.7662C66.4802 73.7662 66.5567 73.7662 66.6287 73.7662C68.0791 73.7649 69.4949 73.3225 70.6881 72.4977C71.8813 71.673 72.7954 70.5049 73.3092 69.1484C73.8229 67.792 73.912 66.3114 73.5646 64.9031C73.2173 63.4949 72.4498 62.2256 71.3642 61.2637L57.8177 49.2502C58.3734 47.1407 58.3426 44.9194 57.7284 42.8261C57.1143 40.7329 55.9402 38.847 54.3329 37.3721C52.7255 35.8972 50.7459 34.8893 48.6077 34.457C46.4694 34.0247 44.2537 34.1845 42.1997 34.9192C41.9612 35.004 41.7482 35.1479 41.5803 35.3372C41.4124 35.5266 41.2951 35.7554 41.2394 36.0023C41.1837 36.2491 41.1914 36.5061 41.2617 36.7492C41.3321 36.9923 41.4628 37.2137 41.6417 37.3927L45.1592 40.9117L40.9172 45.1537L37.3997 41.6362C37.2207 41.4569 36.9992 41.3259 36.7559 41.2554C36.5126 41.1848 36.2554 41.1771 36.0083 41.2328C35.7612 41.2885 35.5322 41.4059 35.3427 41.574C35.1533 41.7421 35.0094 41.9555 34.9247 42.1942C34.1902 44.2483 34.0305 46.464 34.4628 48.6022C34.8951 50.7404 35.9031 52.72 37.3779 54.3275C38.8527 55.9349 40.7384 57.1091 42.8316 57.7235C44.9248 58.3379 47.1461 58.369 49.2557 57.8137L61.2707 71.3587C61.9147 72.0921 62.7034 72.6846 63.5872 73.0989C64.471 73.5132 65.4309 73.7404 66.4067 73.7662ZM49.7387 54.5992C49.5676 54.5995 49.3977 54.6284 49.2362 54.6847C47.841 55.1859 46.3434 55.3335 44.8773 55.1144C43.4112 54.8952 42.0222 54.3161 40.8346 53.4288C39.6471 52.5416 38.6979 51.3738 38.072 50.03C37.4462 48.6862 37.1631 47.2082 37.2482 45.7282L39.8567 48.3382C40.1433 48.6092 40.5227 48.7602 40.9172 48.7602C41.3116 48.7602 41.6911 48.6092 41.9777 48.3382L48.3422 41.9737C48.6234 41.6924 48.7813 41.3109 48.7813 40.9132C48.7813 40.5154 48.6234 40.134 48.3422 39.8527L45.7322 37.2442C47.2122 37.1591 48.6901 37.4422 50.034 38.068C51.3778 38.6939 52.5456 39.6431 53.4328 40.8306C54.3201 42.0182 54.8992 43.4072 55.1184 44.8733C55.3375 46.3395 55.1899 47.8371 54.6887 49.2322C54.5886 49.5138 54.575 49.819 54.6496 50.1084C54.7242 50.3978 54.8835 50.6584 55.1072 50.8567L69.3752 63.5092C69.7988 63.8848 70.1412 64.3431 70.3811 64.856C70.6211 65.3688 70.7536 65.9253 70.7704 66.4913C70.7873 67.0573 70.6882 67.6207 70.4792 68.1469C70.2702 68.6731 69.9557 69.151 69.5552 69.5512C69.1579 69.9556 68.6804 70.2724 68.1534 70.4814C67.6265 70.6904 67.0616 70.7869 66.4952 70.7647C65.9291 70.75 65.3721 70.6186 64.8592 70.3785C64.3463 70.1385 63.8886 69.795 63.5147 69.3697L50.8607 55.1032C50.7199 54.9446 50.5471 54.8178 50.3537 54.7309C50.1603 54.644 49.9507 54.5991 49.7387 54.5992Z" fill="#C1554D"></path><path d="M67.6877 53.9992C69.4109 49.168 69.4387 43.8943 67.7666 39.0452C66.0944 34.1962 62.8218 30.0606 58.4869 27.3186C54.1521 24.5765 49.0132 23.3914 43.9153 23.958C38.8174 24.5246 34.0641 26.8093 30.4372 30.4362C26.8102 34.0631 24.5256 38.8164 23.959 43.9143C23.3924 49.0122 24.5775 54.1511 27.3195 58.486C30.0616 62.8208 34.1972 66.0934 39.0462 67.7656C43.8953 69.4378 49.169 69.4099 54.0002 67.6867L51.8312 65.2402C47.6624 66.4364 43.2143 66.2137 39.1858 64.6072C35.1573 63.0006 31.7767 60.1012 29.5752 56.3645C27.3736 52.6278 26.4759 48.2656 27.023 43.9632C27.5701 39.6608 29.5311 35.6621 32.5979 32.5954C35.6646 29.5286 39.6633 27.5676 43.9657 27.0205C48.268 26.4734 52.6303 27.3711 56.367 29.5727C60.1037 31.7742 63.0031 35.1548 64.6096 39.1833C66.2162 43.2118 66.4389 47.6599 65.2427 51.8287L67.6877 53.9992Z" fill="#C1554D"></path><path d="M67.4342 67.4332C67.6438 67.2233 67.7865 66.9561 67.8442 66.6651C67.902 66.3742 67.8721 66.0727 67.7586 65.7987C67.645 65.5247 67.4527 65.2905 67.2061 65.1258C66.9595 64.961 66.6695 64.8731 66.3729 64.8731C66.0763 64.8731 65.7864 64.961 65.5397 65.1258C65.2931 65.2905 65.1008 65.5247 64.9873 65.7987C64.8737 66.0727 64.8439 66.3742 64.9016 66.6651C64.9594 66.9561 65.1021 67.2233 65.3117 67.4332C65.451 67.5726 65.6164 67.6833 65.7985 67.7588C65.9806 67.8343 66.1758 67.8731 66.3729 67.8731C66.57 67.8731 66.7652 67.8343 66.9473 67.7588C67.1294 67.6833 67.2949 67.5726 67.4342 67.4332Z" fill="#C1554D"></path><path d="M75.0917 53.9992C76.2606 53.9976 77.3813 53.5324 78.2077 52.7057C79.0342 51.8789 79.499 50.7582 79.5002 49.5892V43.4092C79.499 42.2402 79.0342 41.1194 78.2077 40.2927C77.3813 39.466 76.2606 39.0008 75.0917 38.9992C74.7838 39.0036 74.4825 38.9106 74.2308 38.7333C73.9792 38.556 73.7901 38.3035 73.6907 38.0122C73.1799 36.3807 72.5227 34.7988 71.7272 33.2857C71.5902 33.0088 71.5445 32.6956 71.5965 32.3911C71.6485 32.0866 71.7956 31.8064 72.0167 31.5907L72.0467 31.5592C72.8605 30.7289 73.3142 29.6112 73.3091 28.4486C73.3041 27.286 72.8407 26.1723 72.0197 25.3492L67.6502 20.9782C66.8098 20.1749 65.692 19.7266 64.5294 19.7266C63.3669 19.7266 62.2491 20.1749 61.4087 20.9782C61.1931 21.1991 60.9131 21.346 60.6088 21.3977C60.3045 21.4495 59.9916 21.4034 59.7152 21.2662C58.2007 20.4702 56.6172 19.813 54.9842 19.3027C54.6946 19.2032 54.4437 19.015 54.2671 18.7649C54.0905 18.5147 53.9971 18.2154 54.0002 17.9092C53.999 16.7402 53.5342 15.6194 52.7077 14.7927C51.8813 13.966 50.7606 13.5008 49.5917 13.4992H43.4087C42.8251 13.5017 42.2479 13.6196 41.71 13.846C41.1722 14.0724 40.6844 14.4028 40.2747 14.8184C39.8651 15.2339 39.5416 15.7263 39.3228 16.2673C39.1041 16.8083 38.9944 17.3872 39.0002 17.9707C39.0053 18.2595 38.919 18.5426 38.7536 18.7794C38.5882 19.0162 38.3521 19.1946 38.0792 19.2892C36.4243 19.802 34.82 20.4658 33.2867 21.2722C33.0081 21.4087 32.6935 21.4531 32.388 21.3992C32.0826 21.3453 31.8021 21.1958 31.5872 20.9722C30.7472 20.1699 29.6303 19.7222 28.4687 19.7222C27.3071 19.7222 26.1902 20.1699 25.3502 20.9722L20.9807 25.3492C20.1602 26.1722 19.6972 27.2855 19.6918 28.4476C19.6865 29.6097 20.1393 30.7271 20.9522 31.5577L20.9837 31.5907C21.2047 31.8061 21.3518 32.086 21.4041 32.3902C21.4564 32.6944 21.4111 33.0073 21.2747 33.2842C20.4781 34.7983 19.8199 36.3812 19.3082 38.0137C19.209 38.3048 19.0201 38.5569 18.7687 38.734C18.5172 38.911 18.2162 39.0039 17.9087 38.9992C16.7397 39.0008 15.6191 39.466 14.7926 40.2927C13.9662 41.1194 13.5014 42.2402 13.5002 43.4092V49.5892C13.5014 50.7582 13.9662 51.8789 14.7926 52.7057C15.6191 53.5324 16.7397 53.9976 17.9087 53.9992C18.2165 53.9947 18.5178 54.0878 18.7695 54.2651C19.0212 54.4424 19.2103 54.6948 19.3097 54.9862C19.8204 56.6176 20.4776 58.1996 21.2732 59.7127C21.4101 59.9896 21.4559 60.3027 21.4038 60.6072C21.3518 60.9117 21.2048 61.1919 20.9837 61.4077L20.9537 61.4392C20.1398 62.2694 19.6862 63.3871 19.6912 64.5497C19.6963 65.7123 20.1596 66.826 20.9807 67.6492L25.3502 72.0202C26.1906 72.8235 27.3084 73.2718 28.4709 73.2718C29.6335 73.2718 30.7513 72.8235 31.5917 72.0202C31.8076 71.7999 32.0876 71.6534 32.3917 71.6017C32.6959 71.55 33.0085 71.5956 33.2852 71.7322C34.7996 72.5282 36.3831 73.1854 38.0162 73.6957C38.3057 73.7952 38.5566 73.9834 38.7332 74.2335C38.9099 74.4836 39.0033 74.783 39.0002 75.0892C39.0014 76.2582 39.4662 77.3789 40.2926 78.2057C41.1191 79.0324 42.2397 79.4976 43.4087 79.4992H49.5917C50.7606 79.4976 51.8813 79.0324 52.7077 78.2057C53.5342 77.3789 53.999 76.2582 54.0002 75.0892C53.9958 74.782 54.0886 74.4813 54.2653 74.2299C54.442 73.9786 54.6936 73.7895 54.9842 73.6897C56.0836 73.3364 57.1606 72.9166 58.2092 72.4327L56.1272 70.0867C55.4582 70.3612 54.7772 70.6117 54.0917 70.8262C53.1877 71.1118 52.3993 71.6803 51.8428 72.4478C51.2862 73.2152 50.9908 74.1412 51.0002 75.0892C50.9998 75.4628 50.8513 75.8209 50.5873 76.0852C50.3233 76.3495 49.9652 76.4984 49.5917 76.4992H43.4087C43.0351 76.4984 42.6771 76.3495 42.4131 76.0852C42.149 75.8209 42.0006 75.4628 42.0002 75.0892C42.0095 74.1412 41.7141 73.2152 41.1576 72.4478C40.601 71.6803 39.8127 71.1118 38.9087 70.8262C37.4497 70.3697 36.0349 69.7823 34.6817 69.0712C34.053 68.739 33.3527 68.5655 32.6417 68.5657C32.0507 68.5677 31.466 68.6864 30.9211 68.915C30.3761 69.1436 29.8817 69.4775 29.4662 69.8977C29.1973 70.1539 28.8401 70.2968 28.4687 70.2968C28.0972 70.2968 27.7401 70.1539 27.4712 69.8977L23.1002 65.5282C22.8365 65.2631 22.6886 64.9045 22.6886 64.5307C22.6886 64.1569 22.8365 63.7982 23.1002 63.5332C23.1113 63.5238 23.1213 63.5132 23.1302 63.5017C23.7984 62.8352 24.2361 61.9725 24.3794 61.0396C24.5227 60.1068 24.3641 59.1525 23.9267 58.3162C23.2153 56.9636 22.6279 55.5493 22.1717 54.0907C21.886 53.1867 21.3176 52.3983 20.5501 51.8418C19.7826 51.2852 18.8567 50.9898 17.9087 50.9992C17.5351 50.9984 17.1771 50.8495 16.9131 50.5852C16.649 50.3209 16.5006 49.9628 16.5002 49.5892V43.4092C16.5006 43.0356 16.649 42.6774 16.9131 42.4131C17.1771 42.1488 17.5351 42 17.9087 41.9992C18.8565 42.0089 19.7825 41.7138 20.55 41.1575C21.3175 40.6012 21.886 39.813 22.1717 38.9092C22.6289 37.4495 23.2173 36.0343 23.9297 34.6807C24.3658 33.8447 24.5239 32.8913 24.381 31.9592C24.238 31.0272 23.8014 30.165 23.1347 29.4982L23.1017 29.4652C22.838 29.2001 22.6901 28.8415 22.6901 28.4677C22.6901 28.0939 22.838 27.7352 23.1017 27.4702L27.4712 23.0992C27.7395 22.8407 28.0976 22.6963 28.4702 22.6963C28.8428 22.6963 29.2008 22.8407 29.4692 23.0992C30.1356 23.7767 31.0019 24.2222 31.9406 24.3702C32.8793 24.5182 33.8407 24.3608 34.6832 23.9212C36.054 23.2004 37.488 22.607 38.9672 22.1482C39.8627 21.8639 40.6421 21.2974 41.1889 20.5333C41.7356 19.7691 42.0202 18.8485 42.0002 17.9092C42.0006 17.5356 42.149 17.1774 42.4131 16.9131C42.6771 16.6488 43.0351 16.5 43.4087 16.4992H49.5917C49.9652 16.5 50.3233 16.6488 50.5873 16.9131C50.8513 17.1774 50.9998 17.5356 51.0002 17.9092C50.9908 18.8572 51.2862 19.7831 51.8428 20.5506C52.3993 21.3181 53.1877 21.8865 54.0917 22.1722C55.5506 22.6287 56.9654 23.2161 58.3187 23.9272C59.1617 24.3671 60.1238 24.5242 61.0629 24.3754C62.0021 24.2265 62.8685 23.7796 63.5342 23.1007C63.8031 22.8445 64.1602 22.7015 64.5317 22.7015C64.9031 22.7015 65.2603 22.8445 65.5292 23.1007L69.9002 27.4702C70.1638 27.7352 70.3118 28.0939 70.3118 28.4677C70.3118 28.8415 70.1638 29.2001 69.9002 29.4652C69.889 29.4746 69.879 29.4851 69.8702 29.4967C69.2019 30.1632 68.7642 31.0258 68.6209 31.9587C68.4776 32.8916 68.6363 33.8458 69.0737 34.6822C69.7851 36.0348 70.3725 37.4491 70.8287 38.9077C71.1143 39.8117 71.6828 40.6 72.4502 41.1566C73.2177 41.7132 74.1437 42.0085 75.0917 41.9992C75.4652 42 75.8233 42.1488 76.0873 42.4131C76.3513 42.6774 76.4998 43.0356 76.5002 43.4092V49.5892C76.4981 49.779 76.4581 49.9664 76.3826 50.1406C76.3072 50.3147 76.1977 50.4721 76.0607 50.6034C75.9236 50.7347 75.7618 50.8373 75.5846 50.9053C75.4074 50.9733 75.2184 51.0052 75.0287 50.9992C74.0998 50.9975 73.1944 51.2903 72.4424 51.8355C71.6905 52.3807 71.1307 53.1503 70.8437 54.0337C70.6262 54.7402 70.3712 55.4377 70.0937 56.1262L72.4322 58.1992C72.9268 57.1327 73.3537 56.036 73.7102 54.9157C73.8117 54.635 74.0008 54.3944 74.2496 54.2293C74.4983 54.0643 74.7936 53.9836 75.0917 53.9992Z" fill="#C1554D"></path></svg> 