<?xml version="1.0" encoding="UTF-8"?> <svg xmlns="http://www.w3.org/2000/svg" width="90" height="93" viewBox="0 0 90 93" fill="none"><path d="M61.4999 31.7725C61.4999 31.3746 61.3419 30.9931 61.0606 30.7118C60.7793 30.4305 60.3978 30.2725 59.9999 30.2725H58.1C57.8727 29.5689 57.5885 28.8851 57.2504 28.2275L58.5959 26.882C58.7352 26.7428 58.8458 26.5775 58.9212 26.3955C58.9966 26.2135 59.0354 26.0185 59.0354 25.8215C59.0354 25.6245 58.9966 25.4295 58.9212 25.2475C58.8458 25.0655 58.7352 24.9002 58.5959 24.7609L54.739 20.904C54.5997 20.7647 54.4344 20.6542 54.2524 20.5788C54.0704 20.5034 53.8754 20.4645 53.6784 20.4645C53.4814 20.4645 53.2864 20.5034 53.1044 20.5788C52.9224 20.6542 52.7571 20.7647 52.6178 20.904L51.2724 22.2495C50.6148 21.9115 49.9309 21.6274 49.2274 21.3999V19.5C49.2274 19.1022 49.0694 18.7206 48.7881 18.4393C48.5068 18.158 48.1253 18 47.7274 18H42.2724C41.8746 18 41.493 18.158 41.2117 18.4393C40.9304 18.7206 40.7724 19.1022 40.7724 19.5V21.3999C40.0689 21.6273 39.385 21.9114 38.7275 22.2495L37.382 20.904C37.2427 20.7647 37.0774 20.6542 36.8954 20.5788C36.7134 20.5034 36.5184 20.4646 36.3214 20.4646C36.1244 20.4646 35.9294 20.5034 35.7474 20.5788C35.5654 20.6542 35.4001 20.7647 35.2609 20.904L31.4039 24.761C31.2646 24.9002 31.1541 25.0656 31.0787 25.2475C31.0033 25.4295 30.9645 25.6246 30.9645 25.8215C30.9645 26.0185 31.0033 26.2136 31.0787 26.3955C31.1541 26.5775 31.2646 26.7428 31.4039 26.8821L32.7494 28.2276C32.4114 28.8851 32.1273 29.569 31.8998 30.2725H29.9999C29.6021 30.2725 29.2206 30.4305 28.9393 30.7118C28.658 30.9932 28.4999 31.3747 28.4999 31.7725V37.2276C28.4999 37.6254 28.658 38.0069 28.9393 38.2882C29.2206 38.5695 29.6021 38.7276 29.9999 38.7276H31.8998C32.1272 39.4311 32.4113 40.115 32.7494 40.7725L31.4039 42.118C31.2646 42.2573 31.1541 42.4226 31.0787 42.6046C31.0033 42.7865 30.9645 42.9816 30.9645 43.1786C30.9645 43.3755 31.0033 43.5706 31.0787 43.7526C31.1541 43.9345 31.2646 44.0999 31.4039 44.2391L35.2609 48.096C35.4002 48.2353 35.5655 48.3458 35.7475 48.4212C35.9294 48.4966 36.1245 48.5355 36.3215 48.5355C36.5184 48.5355 36.7135 48.4966 36.8955 48.4212C37.0774 48.3458 37.2428 48.2353 37.382 48.096L38.7275 46.7505C39.3851 47.0885 40.069 47.3726 40.7724 47.6001V49.5C40.7724 49.8978 40.9305 50.2794 41.2118 50.5607C41.4931 50.842 41.8746 51 42.2724 51H47.7275C48.1253 51 48.5069 50.842 48.7882 50.5607C49.0695 50.2794 49.2275 49.8978 49.2275 49.5V47.6001C49.931 47.3727 50.6149 47.0886 51.2724 46.7505L52.6179 48.096C52.7572 48.2353 52.9225 48.3458 53.1045 48.4212C53.2865 48.4966 53.4815 48.5354 53.6785 48.5354C53.8755 48.5354 54.0705 48.4966 54.2525 48.4212C54.4345 48.3458 54.5998 48.2353 54.739 48.096L58.5959 44.239C58.7352 44.0998 58.8458 43.9344 58.9212 43.7525C58.9966 43.5705 59.0354 43.3754 59.0354 43.1785C59.0354 42.9815 58.9966 42.7864 58.9212 42.6045C58.8458 42.4225 58.7352 42.2572 58.5959 42.1179L57.2504 40.7724C57.5884 40.1149 57.8726 39.431 58.1 38.7275H59.9999C60.3978 38.7275 60.7793 38.5695 61.0606 38.2882C61.3419 38.0069 61.4999 37.6253 61.4999 37.2275V31.7725ZM58.4999 35.7275H57.9784C57.3682 35.7321 56.7753 35.9316 56.2864 36.2968C55.7974 36.662 55.438 37.1739 55.2604 37.7578C55.0753 38.3392 54.8408 38.9038 54.5595 39.4453C54.2708 39.9841 54.162 40.6011 54.2491 41.2061C54.3362 41.8112 54.6146 42.3724 55.0436 42.8079L55.4142 43.1785L53.6784 44.9143L53.3078 44.5437C52.8726 44.1145 52.3115 43.836 51.7065 43.7489C51.1015 43.6617 50.4846 43.7706 49.946 44.0596C49.4042 44.3407 48.8394 44.5752 48.2578 44.7605C47.6739 44.938 47.162 45.2975 46.7968 45.7864C46.4315 46.2754 46.2321 46.8682 46.2275 47.4785V48H43.7724V47.4785C43.7678 46.8682 43.5684 46.2754 43.2031 45.7865C42.8379 45.2975 42.326 44.9381 41.7421 44.7605C41.1607 44.5753 40.5961 44.3408 40.0546 44.0596C39.5158 43.7709 38.8988 43.6621 38.2938 43.7492C37.6888 43.8363 37.1275 44.1147 36.6921 44.5437L36.3215 44.9143L34.5856 43.1785L34.9562 42.8079C35.3852 42.3726 35.6636 41.8114 35.7508 41.2065C35.8379 40.6016 35.7291 39.9847 35.4404 39.4461C35.1592 38.9042 34.9248 38.3394 34.7394 37.7578C34.5619 37.1739 34.2024 36.6621 33.7135 36.2968C33.2246 35.9316 32.6317 35.7321 32.0214 35.7276H31.4999V33.2725H32.0214C32.6317 33.2679 33.2245 33.0684 33.7135 32.7032C34.2024 32.338 34.5619 31.8261 34.7394 31.2422C34.9246 30.6608 35.1591 30.0962 35.4403 29.5547C35.7291 29.0159 35.8379 28.3989 35.7508 27.7939C35.6637 27.1888 35.3852 26.6276 34.9562 26.1921L34.5856 25.8215L36.3215 24.0857L36.6921 24.4563C37.1272 24.8855 37.6884 25.1642 38.2934 25.2513C38.8983 25.3384 39.5153 25.2295 40.0539 24.9404C40.5957 24.6593 41.1605 24.4248 41.7421 24.2395C42.326 24.062 42.8379 23.7025 43.2031 23.2136C43.5683 22.7246 43.7678 22.1318 43.7724 21.5215V21H46.2275V21.5215C46.232 22.1318 46.4315 22.7246 46.7967 23.2135C47.162 23.7025 47.6738 24.0619 48.2577 24.2395C48.8392 24.4247 49.4037 24.6592 49.9452 24.9404C50.484 25.2293 51.101 25.3381 51.7061 25.251C52.3111 25.1639 52.8724 24.8854 53.3078 24.4563L53.6784 24.0857L55.4142 25.8215L55.0436 26.1921C54.6146 26.6274 54.3362 27.1886 54.2491 27.7935C54.162 28.3984 54.2708 29.0153 54.5595 29.5539C54.8406 30.0958 55.0751 30.6606 55.2604 31.2422C55.438 31.8261 55.7974 32.3379 56.2864 32.7032C56.7753 33.0684 57.3681 33.2679 57.9784 33.2724H58.4999V35.7275Z" fill="#C1554D"></path><path d="M44.9999 25.5C43.2199 25.5 41.4798 26.0278 39.9998 27.0168C38.5198 28.0057 37.3662 29.4113 36.685 31.0558C36.0038 32.7004 35.8256 34.51 36.1729 36.2558C36.5201 38.0016 37.3773 39.6053 38.636 40.864C39.8946 42.1226 41.4983 42.9798 43.2441 43.3271C44.9899 43.6743 46.7995 43.4961 48.4441 42.8149C50.0886 42.1337 51.4942 40.9802 52.4832 39.5001C53.4721 38.0201 53.9999 36.28 53.9999 34.5C53.9973 32.1139 53.0483 29.8262 51.361 28.1389C49.6737 26.4517 47.3861 25.5026 44.9999 25.5ZM44.9999 40.5C43.8132 40.5 42.6532 40.1481 41.6665 39.4888C40.6798 38.8295 39.9108 37.8925 39.4567 36.7961C39.0025 35.6997 38.8837 34.4933 39.1152 33.3295C39.3467 32.1656 39.9182 31.0965 40.7573 30.2574C41.5964 29.4182 42.6655 28.8468 43.8294 28.6153C44.9933 28.3838 46.1997 28.5026 47.296 28.9567C48.3924 29.4108 49.3295 30.1799 49.9887 31.1666C50.648 32.1533 50.9999 33.3133 50.9999 34.5C50.9981 36.0907 50.3654 37.6158 49.2406 38.7406C48.1157 39.8655 46.5907 40.4982 44.9999 40.5Z" fill="#C1554D"></path><path d="M1.49994 93H88.4999C88.7482 93 88.9925 92.9384 89.2111 92.8207C89.4297 92.703 89.6156 92.533 89.7522 92.3257C89.8889 92.1185 89.9719 91.8805 89.9939 91.6333C90.016 91.386 89.9763 91.1371 89.8784 90.909L80.8784 69.909C80.7629 69.6392 80.5707 69.4092 80.3256 69.2476C80.0806 69.086 79.7935 68.9999 79.4999 69H61.4999V72H78.5112L86.225 90H3.77484L11.4887 72H28.4999V69H10.4999C10.2064 68.9999 9.9193 69.086 9.67425 69.2476C9.4292 69.4092 9.23698 69.6392 9.12144 69.909L0.121435 90.909C0.0235844 91.1371 -0.0161092 91.386 0.00591489 91.6333C0.027939 91.8805 0.110992 92.1185 0.247624 92.3257C0.384257 92.533 0.570197 92.703 0.788765 92.8207C1.00733 92.9384 1.2517 93 1.49994 93Z" fill="#C1554D"></path><path d="M40.4999 55.5H43.4999V64.5H40.4999V55.5Z" fill="#C1554D"></path><path d="M40.4999 67.5H43.4999V70.5H40.4999V67.5Z" fill="#C1554D"></path><path d="M40.4999 73.5H43.4999V81H40.4999V73.5Z" fill="#C1554D"></path><path d="M46.4999 55.5H49.4999V66H46.4999V55.5Z" fill="#C1554D"></path><path d="M46.4999 69H49.4999V81H46.4999V69Z" fill="#C1554D"></path><path d="M52.4999 58.5H55.4999V72H52.4999V58.5Z" fill="#C1554D"></path><path d="M34.4999 75H37.4999V78H34.4999V75Z" fill="#C1554D"></path><path d="M34.4999 57H37.4999V72H34.4999V57Z" fill="#C1554D"></path><path d="M52.4999 75H55.4999V78H52.4999V75Z" fill="#C1554D"></path><path d="M68.9999 4.5C68.6021 4.5 68.2206 4.65804 67.9393 4.93934C67.658 5.22064 67.4999 5.60218 67.4999 6V15C67.4999 15.3978 67.658 15.7794 67.9393 16.0607C68.2206 16.342 68.6021 16.5 68.9999 16.5H73.4999V19.5H70.4999C70.1021 19.5 69.7206 19.658 69.4393 19.9393C69.158 20.2206 68.9999 20.6022 68.9999 21V28.5C68.9999 28.8978 69.158 29.2794 69.4393 29.5607C69.7206 29.842 70.1021 30 70.4999 30H77.9999C78.3978 30 78.7793 29.842 79.0606 29.5607C79.3419 29.2794 79.4999 28.8978 79.4999 28.5V25.5H86.9999C87.3978 25.5 87.7793 25.342 88.0606 25.0607C88.3419 24.7794 88.4999 24.3978 88.4999 24V12C88.4999 11.6022 88.3419 11.2206 88.0606 10.9393C87.7793 10.658 87.3978 10.5 86.9999 10.5H79.4999V6C79.4999 5.60218 79.3419 5.22064 79.0606 4.93934C78.7793 4.65804 78.3978 4.5 77.9999 4.5H68.9999ZM70.4999 13.5V7.5H76.4999V10.5H74.9999C74.6021 10.5 74.2206 10.658 73.9393 10.9393C73.658 11.2206 73.4999 11.6022 73.4999 12V13.5H70.4999ZM76.4999 27H71.9999V22.5H73.4999V24C73.4999 24.3978 73.658 24.7794 73.9393 25.0607C74.2206 25.342 74.6021 25.5 74.9999 25.5H76.4999V27ZM85.4999 13.5V22.5H76.4999V13.5H85.4999Z" fill="#C1554D"></path><path d="M49.4999 12C49.8978 12 50.2793 11.842 50.5606 11.5607C50.8419 11.2794 50.9999 10.8978 50.9999 10.5V1.5C50.9999 1.10218 50.8419 0.720644 50.5606 0.43934C50.2793 0.158035 49.8978 0 49.4999 0H40.4999C40.1021 0 39.7206 0.158035 39.4393 0.43934C39.158 0.720644 38.9999 1.10218 38.9999 1.5V10.5C38.9999 10.8978 39.158 11.2794 39.4393 11.5607C39.7206 11.842 40.1021 12 40.4999 12H49.4999ZM41.9999 3H47.9999V9H41.9999V3Z" fill="#C1554D"></path><path d="M2.99994 45H11.9999C12.3978 45 12.7793 44.842 13.0606 44.5607C13.3419 44.2794 13.4999 43.8978 13.4999 43.5V39H20.9999C21.3978 39 21.7793 38.842 22.0606 38.5607C22.3419 38.2794 22.4999 37.8978 22.4999 37.5V25.5C22.4999 25.1022 22.3419 24.7206 22.0606 24.4393C21.7793 24.158 21.3978 24 20.9999 24H8.99994C8.60211 24 8.22058 24.158 7.93927 24.4393C7.65797 24.7206 7.49994 25.1022 7.49994 25.5V33H2.99994C2.60211 33 2.22058 33.158 1.93927 33.4393C1.65797 33.7206 1.49994 34.1022 1.49994 34.5V43.5C1.49994 43.8978 1.65797 44.2794 1.93927 44.5607C2.22058 44.842 2.60211 45 2.99994 45ZM10.4999 27H19.4999V36H10.4999V27ZM4.49993 36H7.49994V37.5C7.49994 37.8978 7.65797 38.2794 7.93927 38.5607C8.22058 38.842 8.60211 39 8.99994 39H10.4999V42H4.49993V36Z" fill="#C1554D"></path><path d="M11.9999 19.5H19.4999C19.8978 19.5 20.2793 19.342 20.5606 19.0607C20.8419 18.7794 20.9999 18.3978 20.9999 18V10.5C20.9999 10.1022 20.8419 9.72064 20.5606 9.43934C20.2793 9.15804 19.8978 9 19.4999 9H11.9999C11.6021 9 11.2206 9.15804 10.9393 9.43934C10.658 9.72064 10.4999 10.1022 10.4999 10.5V18C10.4999 18.3978 10.658 18.7794 10.9393 19.0607C11.2206 19.342 11.6021 19.5 11.9999 19.5ZM13.4999 12H17.9999V16.5H13.4999V12Z" fill="#C1554D"></path><path d="M67.4999 45C67.1021 45 66.7206 45.158 66.4393 45.4393C66.158 45.7206 65.9999 46.1022 65.9999 46.5V52.5C65.9999 52.8978 66.158 53.2794 66.4393 53.5607C66.7206 53.842 67.1021 54 67.4999 54H73.4999C73.8978 54 74.2793 53.842 74.5606 53.5607C74.8419 53.2794 74.9999 52.8978 74.9999 52.5V46.5C74.9999 46.1022 74.8419 45.7206 74.5606 45.4393C74.2793 45.158 73.8978 45 73.4999 45H67.4999ZM71.9999 51H68.9999V48H71.9999V51Z" fill="#C1554D"></path><path d="M14.5392 76.5H25.4999V73.5H13.4999C13.1946 73.5001 12.8965 73.5933 12.6454 73.7672C12.3944 73.9411 12.2025 74.1875 12.0952 74.4734L7.59515 86.4734C7.51012 86.7004 7.48134 86.9445 7.51128 87.185C7.54121 87.4256 7.62897 87.6552 7.76705 87.8544C7.90512 88.0536 8.08939 88.2164 8.3041 88.3288C8.51882 88.4412 8.75757 88.5 8.99993 88.5H80.9999C81.2423 88.5 81.481 88.4412 81.6958 88.3288C81.9105 88.2164 82.0947 88.0536 82.2328 87.8544C82.3709 87.6552 82.4586 87.4256 82.4886 87.185C82.5185 86.9445 82.4897 86.7004 82.4047 86.4734L77.9047 74.4734C77.7974 74.1875 77.6054 73.9411 77.3544 73.7672C77.1034 73.5933 76.8053 73.5001 76.4999 73.5H64.4999V76.5H75.4606L78.8356 85.5H11.1642L14.5392 76.5Z" fill="#C1554D"></path></svg> 