<?xml version="1.0" encoding="UTF-8"?> <svg xmlns="http://www.w3.org/2000/svg" width="96" height="96" viewBox="0 0 96 96" fill="none"><path d="M88.2192 80.4847C86.7037 80.485 85.2221 80.9333 83.9606 81.7733L67.6285 65.4412C71.5557 61.0385 73.8781 55.4368 74.2183 49.5469H80.7044C81.0809 51.0051 81.9763 52.2759 83.2227 53.1211C84.4692 53.9664 85.9811 54.328 87.4752 54.1383C88.9692 53.9485 90.3427 53.2204 91.3382 52.0903C92.3338 50.9603 92.8831 49.506 92.8831 48C92.8831 46.494 92.3338 45.0397 91.3382 43.9097C90.3427 42.7796 88.9692 42.0515 87.4752 41.8617C85.9811 41.672 84.4692 42.0336 83.2227 42.8789C81.9763 43.7241 81.0809 44.9949 80.7044 46.4531H74.2183C73.8781 40.5632 71.5557 34.9615 67.6285 30.5588L83.9606 14.2267C85.5641 15.288 87.5046 15.716 89.4057 15.4276C91.3069 15.1392 93.0332 14.1551 94.2498 12.666C95.4664 11.1769 96.0867 9.28904 95.9902 7.36856C95.8938 5.44809 95.0875 3.63187 93.7278 2.27217C92.3681 0.912481 90.5519 0.106221 88.6314 0.00977177C86.711 -0.0866772 84.8231 0.533559 83.334 1.75018C81.8449 2.96681 80.8608 4.69311 80.5724 6.59426C80.284 8.49541 80.712 10.4359 81.7733 12.0394L65.4412 28.3715C61.0385 24.4443 55.4368 22.1219 49.5469 21.7817V15.2956C51.0051 14.9191 52.2759 14.0237 53.1211 12.7772C53.9664 11.5308 54.328 10.0189 54.1383 8.52485C53.9485 7.03084 53.2204 5.65732 52.0903 4.66176C50.9603 3.6662 49.506 3.11694 48 3.11694C46.494 3.11694 45.0397 3.6662 43.9097 4.66176C42.7796 5.65732 42.0515 7.03084 41.8617 8.52485C41.672 10.0189 42.0336 11.5308 42.8789 12.7772C43.7241 14.0237 44.9949 14.9191 46.4531 15.2956V21.7817C40.5632 22.1219 34.9615 24.4443 30.5588 28.3715L14.2267 12.0394C15.288 10.4359 15.716 8.49541 15.4276 6.59426C15.1392 4.69311 14.1551 2.96681 12.666 1.75018C11.1769 0.533559 9.28904 -0.0866772 7.36856 0.00977177C5.44809 0.106221 3.63187 0.912481 2.27217 2.27217C0.912481 3.63187 0.106221 5.44809 0.00977177 7.36856C-0.0866772 9.28904 0.533559 11.1769 1.75018 12.666C2.96681 14.1551 4.69311 15.1392 6.59426 15.4276C8.49541 15.716 10.4359 15.288 12.0394 14.2267L28.3715 30.5588C24.4443 34.9615 22.1219 40.5632 21.7817 46.4531H15.2956C14.9191 44.9949 14.0237 43.7241 12.7772 42.8789C11.5308 42.0336 10.0189 41.672 8.52485 41.8617C7.03084 42.0515 5.65732 42.7796 4.66176 43.9097C3.6662 45.0397 3.11694 46.494 3.11694 48C3.11694 49.506 3.6662 50.9603 4.66176 52.0903C5.65732 53.2204 7.03084 53.9485 8.52485 54.1383C10.0189 54.328 11.5308 53.9664 12.7772 53.1211C14.0237 52.2759 14.9191 51.0051 15.2956 49.5469H21.7817C22.1219 55.4368 24.4443 61.0385 28.3715 65.4412L12.0394 81.7733C10.4359 80.712 8.49541 80.284 6.59426 80.5724C4.69311 80.8608 2.96681 81.8449 1.75018 83.334C0.533559 84.8231 -0.0866772 86.711 0.00977177 88.6314C0.106221 90.5519 0.912481 92.3681 2.27217 93.7278C3.63187 95.0875 5.44809 95.8938 7.36856 95.9902C9.28904 96.0867 11.1769 95.4664 12.666 94.2498C14.1551 93.0332 15.1392 91.3069 15.4276 89.4057C15.716 87.5046 15.288 85.5641 14.2267 83.9606L30.5588 67.6285C34.9615 71.5557 40.5632 73.8781 46.4531 74.2183V80.7044C44.9949 81.0809 43.7241 81.9763 42.8789 83.2227C42.0336 84.4692 41.672 85.9811 41.8617 87.4752C42.0515 88.9692 42.7796 90.3427 43.9097 91.3382C45.0397 92.3338 46.494 92.8831 48 92.8831C49.506 92.8831 50.9603 92.3338 52.0903 91.3382C53.2204 90.3427 53.9485 88.9692 54.1383 87.4752C54.328 85.9811 53.9664 84.4692 53.1211 83.2227C52.2759 81.9763 51.0051 81.0809 49.5469 80.7044V74.2183C55.4368 73.8781 61.0385 71.5557 65.4412 67.6285L81.7733 83.9606C80.8247 85.3987 80.3835 87.1124 80.5195 88.8298C80.6555 90.5472 81.3609 92.17 82.524 93.4409C83.6871 94.7118 85.2412 95.558 86.9398 95.8453C88.6385 96.1327 90.3844 95.8446 91.9008 95.027C93.4172 94.2093 94.6171 92.9088 95.3104 91.3316C96.0036 89.7545 96.1505 87.9911 95.7277 86.321C95.3049 84.6509 94.3366 83.1698 92.9764 82.1125C91.6162 81.0553 89.942 80.4824 88.2192 80.4847ZM86.6723 44.9062C87.2842 44.9062 87.8824 45.0877 88.3911 45.4276C88.8999 45.7676 89.2964 46.2507 89.5306 46.8161C89.7648 47.3814 89.826 48.0034 89.7066 48.6036C89.5873 49.2037 89.2926 49.755 88.8599 50.1876C88.4273 50.6203 87.876 50.915 87.2759 51.0343C86.6757 51.1537 86.0537 51.0924 85.4884 50.8583C84.9231 50.6241 84.4399 50.2276 84.0999 49.7188C83.76 49.21 83.5785 48.6119 83.5785 48C83.5785 47.1795 83.9045 46.3926 84.4847 45.8124C85.0649 45.2322 85.8518 44.9062 86.6723 44.9062ZM88.2192 3.14012C89.137 3.14012 90.0343 3.41229 90.7974 3.92221C91.5606 4.43214 92.1554 5.15691 92.5066 6.00489C92.8579 6.85286 92.9498 7.78594 92.7707 8.68615C92.5916 9.58635 92.1497 10.4132 91.5007 11.0623C90.8516 11.7113 90.0248 12.1532 89.1245 12.3323C88.2243 12.5114 87.2913 12.4195 86.4433 12.0682C85.5953 11.717 84.8705 11.1222 84.3606 10.359C83.8507 9.59586 83.5785 8.69864 83.5785 7.7808C83.5785 6.55001 84.0675 5.36964 84.9378 4.49934C85.808 3.62905 86.9884 3.14012 88.2192 3.14012ZM7.7808 12.4215C6.86296 12.4215 5.96573 12.1493 5.20257 11.6394C4.43942 11.1295 3.84461 10.4047 3.49337 9.55671C3.14213 8.70873 3.05023 7.77565 3.22929 6.87544C3.40835 5.97524 3.85033 5.14835 4.49934 4.49934C5.14835 3.85033 5.97524 3.40835 6.87544 3.22929C7.77565 3.05023 8.70873 3.14213 9.55671 3.49337C10.4047 3.84461 11.1295 4.43942 11.6394 5.20257C12.1493 5.96573 12.4215 6.86296 12.4215 7.7808C12.4215 9.01158 11.9325 10.192 11.0623 11.0623C10.192 11.9325 9.01158 12.4215 7.7808 12.4215ZM9.32769 51.0938C8.71579 51.0938 8.11764 50.9123 7.60887 50.5724C7.1001 50.2324 6.70356 49.7493 6.4694 49.1839C6.23524 48.6186 6.17397 47.9966 6.29335 47.3964C6.41272 46.7963 6.70738 46.245 7.14005 45.8124C7.57272 45.3797 8.12399 45.085 8.72412 44.9657C9.32426 44.8463 9.94631 44.9076 10.5116 45.1417C11.0769 45.3759 11.5601 45.7724 11.9001 46.2812C12.24 46.79 12.4215 47.3881 12.4215 48C12.4215 48.8205 12.0955 49.6074 11.5153 50.1876C10.9351 50.7678 10.1482 51.0938 9.32769 51.0938ZM7.7808 92.8599C6.86296 92.8599 5.96573 92.5877 5.20257 92.0778C4.43942 91.5679 3.84461 90.8431 3.49337 89.9951C3.14213 89.1471 3.05023 88.2141 3.22929 87.3139C3.40835 86.4137 3.85033 85.5868 4.49934 84.9378C5.14835 84.2887 5.97524 83.8468 6.87544 83.6677C7.77565 83.4886 8.70873 83.5805 9.55671 83.9318C10.4047 84.283 11.1295 84.8778 11.6394 85.641C12.1493 86.4041 12.4215 87.3014 12.4215 88.2192C12.4215 89.45 11.9325 90.6304 11.0623 91.5007C10.192 92.3709 9.01158 92.8599 7.7808 92.8599ZM44.9062 9.32769C44.9062 8.71579 45.0877 8.11764 45.4276 7.60887C45.7676 7.1001 46.2507 6.70356 46.8161 6.4694C47.3814 6.23524 48.0034 6.17397 48.6036 6.29335C49.2037 6.41272 49.755 6.70738 50.1876 7.14005C50.6203 7.57272 50.915 8.12399 51.0343 8.72412C51.1537 9.32426 51.0924 9.94631 50.8583 10.5116C50.6241 11.0769 50.2276 11.5601 49.7188 11.9001C49.21 12.24 48.6119 12.4215 48 12.4215C47.1795 12.4215 46.3926 12.0955 45.8124 11.5153C45.2322 10.9351 44.9062 10.1482 44.9062 9.32769ZM51.0938 86.6723C51.0938 87.2842 50.9123 87.8824 50.5724 88.3911C50.2324 88.8999 49.7493 89.2964 49.1839 89.5306C48.6186 89.7648 47.9966 89.826 47.3964 89.7066C46.7963 89.5873 46.245 89.2926 45.8124 88.8599C45.3797 88.4273 45.085 87.876 44.9657 87.2759C44.8463 86.6757 44.9076 86.0537 45.1417 85.4884C45.3759 84.9231 45.7724 84.4399 46.2812 84.0999C46.79 83.76 47.3881 83.5785 48 83.5785C48.8205 83.5785 49.6074 83.9045 50.1876 84.4847C50.7678 85.0649 51.0938 85.8518 51.0938 86.6723ZM58.0548 68.883C54.9234 70.4118 51.4846 71.2064 48 71.2064C44.5154 71.2064 41.0766 70.4118 37.9452 68.883V57.2814C37.9452 55.6403 38.5971 54.0665 39.7575 52.9061C40.9179 51.7457 42.4917 51.0938 44.1328 51.0938H51.8672C53.5083 51.0938 55.0821 51.7457 56.2425 52.9061C57.4029 54.0665 58.0548 55.6403 58.0548 57.2814V68.883ZM42.9726 41.4257C42.9726 40.4314 43.2674 39.4594 43.8199 38.6326C44.3723 37.8059 45.1575 37.1615 46.0761 36.781C46.9947 36.4005 48.0056 36.3009 48.9808 36.4949C49.956 36.6889 50.8518 37.1677 51.5549 37.8708C52.258 38.5739 52.7368 39.4697 52.9308 40.4449C53.1248 41.4201 53.0252 42.431 52.6447 43.3496C52.2642 44.2682 51.6198 45.0534 50.7931 45.6058C49.9663 46.1583 48.9943 46.4531 48 46.4531C46.6672 46.4515 45.3894 45.9213 44.4469 44.9788C43.5044 44.0363 42.9742 42.7586 42.9726 41.4257ZM61.1486 67.1041V57.2814C61.1453 54.9619 60.2744 52.7277 58.7071 51.0179C57.1399 49.3081 54.9897 48.2465 52.6794 48.0418C54.0892 47.0479 55.1459 45.6309 55.6964 43.9962C56.247 42.3615 56.2627 40.594 55.7414 38.9497C55.2201 37.3055 54.1888 35.8699 52.7969 34.8511C51.405 33.8322 49.7249 33.283 48 33.283C46.2751 33.283 44.595 33.8322 43.2031 34.8511C41.8112 35.8699 40.7799 37.3055 40.2586 38.9497C39.7373 40.594 39.753 42.3615 40.3036 43.9962C40.8541 45.6309 41.9108 47.0479 43.3206 48.0418C41.0103 48.2465 38.8601 49.3081 37.2929 51.0179C35.7256 52.7277 34.8547 54.9619 34.8514 57.2814V67.0979C30.7718 64.2922 27.6966 60.255 26.0755 55.5765C24.4544 50.898 24.3724 45.8237 25.8414 41.0953C27.3104 36.3669 30.2535 32.2324 34.2403 29.2962C38.2271 26.36 43.0486 24.7762 48 24.7762C52.9514 24.7762 57.7729 26.36 61.7597 29.2962C65.7465 32.2324 68.6896 36.3669 70.1586 41.0953C71.6276 45.8237 71.5456 50.898 69.9245 55.5765C68.3034 60.255 65.2282 64.2922 61.1486 67.0979V67.1041ZM88.2192 92.8599C87.3014 92.8599 86.4041 92.5877 85.641 92.0778C84.8778 91.5679 84.283 90.8431 83.9318 89.9951C83.5805 89.1471 83.4886 88.2141 83.6677 87.3139C83.8468 86.4137 84.2887 85.5868 84.9378 84.9378C85.5868 84.2887 86.4137 83.8468 87.3139 83.6677C88.2141 83.4886 89.1471 83.5805 89.9951 83.9318C90.8431 84.283 91.5679 84.8778 92.0778 85.641C92.5877 86.4041 92.8599 87.3014 92.8599 88.2192C92.8599 89.45 92.3709 90.6304 91.5007 91.5007C90.6304 92.3709 89.45 92.8599 88.2192 92.8599Z" fill="#717E8B"></path></svg> 