<?xml version="1.0" encoding="UTF-8"?> <svg xmlns="http://www.w3.org/2000/svg" width="45" height="60" viewBox="0 0 45 60" fill="none"><path d="M4.13125 26.25C4.32231 26.252 4.50821 26.3123 4.66403 26.4229C4.81986 26.5335 4.93817 26.6891 5.00312 26.8688C5.32411 27.8876 5.7351 28.8759 6.23125 29.8219C6.31488 29.9945 6.34354 30.1886 6.31337 30.3781C6.28319 30.5675 6.19563 30.7431 6.0625 30.8812C5.80625 31.1372 5.60296 31.4412 5.46426 31.7758C5.32556 32.1104 5.25417 32.469 5.25417 32.8313C5.25417 33.1935 5.32556 33.5521 5.46426 33.8867C5.60296 34.2213 5.80625 34.5253 6.0625 34.7812L8.78125 37.5C9.03723 37.7563 9.34121 37.9595 9.6758 38.0982C10.0104 38.2369 10.369 38.3083 10.7312 38.3083C11.0935 38.3083 11.4521 38.2369 11.7867 38.0982C12.1213 37.9595 12.4253 37.7563 12.6812 37.5C12.8183 37.3653 12.9934 37.276 13.1829 37.2442C13.3724 37.2123 13.5671 37.2394 13.7406 37.3219C14.6866 37.818 15.6749 38.229 16.6937 38.55C16.8734 38.615 17.029 38.7333 17.1396 38.8891C17.2502 39.0449 17.3105 39.2308 17.3125 39.4219C17.3113 39.7846 17.3816 40.144 17.5196 40.4795C17.6576 40.815 17.8604 41.12 18.1165 41.3769C18.3725 41.6338 18.6768 41.8377 19.0118 41.9768C19.3468 42.1159 19.706 42.1875 20.0687 42.1875H23.9312C24.6623 42.1875 25.3633 41.8971 25.8802 41.3802C26.3971 40.8633 26.6875 40.1623 26.6875 39.4313C26.6895 39.2402 26.7498 39.0543 26.8604 38.8985C26.971 38.7426 27.1266 38.6243 27.3062 38.5594C28.3251 38.2384 29.3134 37.8274 30.2594 37.3313C30.4329 37.2488 30.6276 37.2217 30.8171 37.2535C31.0066 37.2854 31.1817 37.3747 31.3187 37.5094C31.5747 37.7656 31.8787 37.9689 32.2133 38.1076C32.5479 38.2463 32.9065 38.3177 33.2687 38.3177C33.6309 38.3177 33.9896 38.2463 34.3242 38.1076C34.6588 37.9689 34.9628 37.7656 35.2187 37.5094L37.9375 34.7812C38.1937 34.5253 38.397 34.2213 38.5357 33.8867C38.6744 33.5521 38.7458 33.1935 38.7458 32.8313C38.7458 32.469 38.6744 32.1104 38.5357 31.7758C38.397 31.4412 38.1937 31.1372 37.9375 30.8812C37.8028 30.7442 37.7135 30.5691 37.6816 30.3796C37.6498 30.1901 37.6769 29.9954 37.7594 29.8219C38.2643 28.8626 38.6786 27.8582 38.9969 26.8219C39.0594 26.6461 39.1773 26.4953 39.3328 26.3922C39.4883 26.2891 39.6731 26.2392 39.8594 26.25C40.2221 26.2512 40.5815 26.1809 40.917 26.0429C41.2525 25.9049 41.5575 25.7021 41.8144 25.446C42.0713 25.19 42.2752 24.8857 42.4143 24.5507C42.5534 24.2157 42.625 23.8565 42.625 23.4937V19.6313C42.625 18.9002 42.3346 18.1992 41.8177 17.6823C41.3008 17.1654 40.5997 16.875 39.8687 16.875C39.6777 16.873 39.4918 16.8127 39.336 16.7021C39.1801 16.5915 39.0618 16.4359 38.9969 16.2562C38.6759 15.2374 38.2649 14.2491 37.7687 13.3031C37.6851 13.1305 37.6564 12.9364 37.6866 12.7469C37.7168 12.5575 37.8044 12.3819 37.9375 12.2438C38.1937 11.9878 38.397 11.6838 38.5357 11.3492C38.6744 11.0146 38.7458 10.656 38.7458 10.2937C38.7458 9.93155 38.6744 9.5729 38.5357 9.2383C38.397 8.90371 38.1937 8.59973 37.9375 8.34375L35.2187 5.625C34.9628 5.36875 34.6588 5.16546 34.3242 5.02676C33.9896 4.88807 33.6309 4.81668 33.2687 4.81668C32.9065 4.81668 32.5479 4.88807 32.2133 5.02676C31.8787 5.16546 31.5747 5.36875 31.3187 5.625C31.1817 5.75967 31.0066 5.84898 30.8171 5.88084C30.6276 5.9127 30.4329 5.88557 30.2594 5.80313C29.3134 5.30698 28.3251 4.89598 27.3062 4.575C27.1251 4.50949 26.9684 4.38975 26.8577 4.23207C26.747 4.07438 26.6876 3.88642 26.6875 3.69375C26.6875 2.96275 26.3971 2.26168 25.8802 1.74479C25.3633 1.22789 24.6623 0.9375 23.9312 0.9375H20.0687C19.3326 0.952226 18.6316 1.25503 18.1163 1.78089C17.6009 2.30675 17.3123 3.01372 17.3125 3.75C17.3166 3.93031 17.2635 4.10729 17.1607 4.25551C17.058 4.40374 16.9109 4.51559 16.7406 4.575C15.7043 4.89325 14.6999 5.30754 13.7406 5.8125C13.5662 5.89377 13.3709 5.91938 13.1814 5.88583C12.9918 5.85229 12.8172 5.76122 12.6812 5.625C12.4253 5.36875 12.1213 5.16546 11.7867 5.02676C11.4521 4.88807 11.0935 4.81668 10.7312 4.81668C10.369 4.81668 10.0104 4.88807 9.6758 5.02676C9.34121 5.16546 9.03723 5.36875 8.78125 5.625L6.0625 8.34375C5.80625 8.59973 5.60296 8.90371 5.46426 9.2383C5.32556 9.5729 5.25417 9.93155 5.25417 10.2937C5.25417 10.656 5.32556 11.0146 5.46426 11.3492C5.60296 11.6838 5.80625 11.9878 6.0625 12.2438C6.19717 12.3808 6.28648 12.5559 6.31834 12.7454C6.3502 12.9349 6.32307 13.1296 6.24062 13.3031C5.74448 14.2491 5.33348 15.2374 5.0125 16.2562C4.94754 16.4359 4.82923 16.5915 4.67341 16.7021C4.51758 16.8127 4.33169 16.873 4.14062 16.875C3.77788 16.8738 3.41846 16.9441 3.08297 17.0821C2.74749 17.2201 2.44253 17.4229 2.1856 17.679C1.92866 17.935 1.7248 18.2393 1.5857 18.5743C1.4466 18.9093 1.375 19.2685 1.375 19.6313V23.4937C1.375 24.2248 1.66539 24.9258 2.18229 25.4427C2.69918 25.9596 3.40025 26.25 4.13125 26.25ZM3.25 19.6313C3.25 19.3975 3.34285 19.1734 3.50811 19.0081C3.67338 18.8428 3.89753 18.75 4.13125 18.75C4.72158 18.7482 5.29639 18.5608 5.77424 18.2142C6.2521 17.8675 6.60878 17.3794 6.79375 16.8188C7.09408 15.9047 7.4769 15.0198 7.9375 14.175C8.20662 13.6463 8.30167 13.0461 8.20906 12.4601C8.11645 11.8741 7.84092 11.3324 7.42187 10.9125C7.33995 10.8307 7.27496 10.7335 7.23062 10.6265C7.18628 10.5195 7.16346 10.4049 7.16346 10.2891C7.16346 10.1733 7.18628 10.0586 7.23062 9.95163C7.27496 9.84465 7.33995 9.74747 7.42187 9.66563L10.1031 6.9375C10.2754 6.78202 10.4992 6.69596 10.7312 6.69596C10.9633 6.69596 11.1871 6.78202 11.3594 6.9375C11.7731 7.36219 12.3105 7.64526 12.8947 7.74629C13.479 7.84731 14.0802 7.76111 14.6125 7.5C15.4748 7.03284 16.3787 6.6468 17.3125 6.34688C17.869 6.16541 18.3521 5.80918 18.6899 5.33117C19.0277 4.85317 19.2022 4.2789 19.1875 3.69375C19.1875 3.46003 19.2803 3.23588 19.4456 3.07061C19.6109 2.90535 19.835 2.8125 20.0687 2.8125H23.9312C24.165 2.8125 24.3891 2.90535 24.5544 3.07061C24.7197 3.23588 24.8125 3.46003 24.8125 3.69375C24.8143 4.28408 25.0017 4.85889 25.3483 5.33675C25.695 5.8146 26.1831 6.17128 26.7437 6.35625C27.6578 6.65658 28.5427 7.0394 29.3875 7.5C29.9162 7.76912 30.5164 7.86417 31.1024 7.77156C31.6884 7.67895 32.2301 7.40342 32.65 6.98438C32.7318 6.90245 32.829 6.83747 32.936 6.79313C33.043 6.74879 33.1576 6.72596 33.2734 6.72596C33.3892 6.72596 33.5039 6.74879 33.6109 6.79313C33.7178 6.83747 33.815 6.90245 33.8969 6.98438L36.625 9.7125C36.7805 9.88477 36.8665 10.1086 36.8665 10.3406C36.8665 10.5727 36.7805 10.7965 36.625 10.9688C36.208 11.388 35.9337 11.9279 35.8412 12.5119C35.7486 13.0959 35.8424 13.6943 36.1094 14.2219C36.5539 15.0683 36.921 15.9531 37.2062 16.8656C37.3992 17.4175 37.7592 17.8955 38.2364 18.2332C38.7136 18.5709 39.2841 18.7516 39.8687 18.75C40.1025 18.75 40.3266 18.8428 40.4919 19.0081C40.6572 19.1734 40.75 19.3975 40.75 19.6313V23.4937C40.7356 23.7325 40.6306 23.9568 40.4563 24.1206C40.282 24.2844 40.0517 24.3754 39.8125 24.375C39.2334 24.3669 38.6669 24.5446 38.1961 24.8821C37.7254 25.2195 37.3752 25.6989 37.1969 26.25C36.9109 27.1757 36.5406 28.0732 36.0906 28.9313C35.8215 29.4599 35.7265 30.0602 35.8191 30.6462C35.9117 31.2321 36.1872 31.7738 36.6062 32.1937C36.6882 32.2756 36.7532 32.3728 36.7975 32.4798C36.8418 32.5867 36.8647 32.7014 36.8647 32.8172C36.8647 32.933 36.8418 33.0476 36.7975 33.1546C36.7532 33.2616 36.6882 33.3588 36.6062 33.4406L33.8969 36.1875C33.7246 36.343 33.5008 36.429 33.2687 36.429C33.0367 36.429 32.8129 36.343 32.6406 36.1875C32.2261 35.7628 31.6857 35.4832 31.0996 35.3903C30.5134 35.2974 29.913 35.3962 29.3875 35.6719C28.5411 36.1164 27.6562 36.4835 26.7437 36.7688C26.1831 36.9537 25.695 37.3104 25.3483 37.7883C25.0017 38.2661 24.8143 38.8409 24.8125 39.4313C24.8125 39.665 24.7197 39.8891 24.5544 40.0544C24.3891 40.2197 24.165 40.3125 23.9312 40.3125H20.0687C19.835 40.3125 19.6109 40.2197 19.4456 40.0544C19.2803 39.8891 19.1875 39.665 19.1875 39.4313C19.1857 38.8409 18.9983 38.2661 18.6517 37.7883C18.305 37.3104 17.8169 36.9537 17.2562 36.7688C16.3438 36.4835 15.4589 36.1164 14.6125 35.6719C14.2201 35.4626 13.7822 35.3531 13.3375 35.3531C12.9676 35.3547 12.6017 35.4292 12.2606 35.5723C11.9196 35.7155 11.6101 35.9246 11.35 36.1875C11.2682 36.2694 11.171 36.3344 11.064 36.3787C10.957 36.4231 10.8424 36.4459 10.7266 36.4459C10.6108 36.4459 10.4961 36.4231 10.3891 36.3787C10.2822 36.3344 10.185 36.2694 10.1031 36.1875L7.375 33.4594C7.21952 33.2871 7.13346 33.0633 7.13346 32.8313C7.13346 32.5992 7.21952 32.3754 7.375 32.2031C7.79969 31.7894 8.08276 31.252 8.18378 30.6678C8.28481 30.0835 8.19861 29.4823 7.9375 28.95C7.493 28.1036 7.12588 27.2187 6.84062 26.3063C6.65319 25.738 6.2894 25.2443 5.80215 24.897C5.31489 24.5497 4.72956 24.3668 4.13125 24.375C3.89753 24.375 3.67338 24.2822 3.50811 24.1169C3.34285 23.9516 3.25 23.7275 3.25 23.4937V19.6313Z" fill="#C6973D"></path><path d="M22 35.625C24.7813 35.625 27.5001 34.8002 29.8127 33.255C32.1253 31.7098 33.9277 29.5136 34.9921 26.944C36.0564 24.3744 36.3349 21.5469 35.7923 18.819C35.2497 16.0912 33.9104 13.5855 31.9437 11.6188C29.977 9.65213 27.4713 8.31281 24.7435 7.77021C22.0156 7.2276 19.1881 7.50609 16.6185 8.57044C14.0489 9.6348 11.8527 11.4372 10.3075 13.7498C8.76225 16.0624 7.9375 18.7812 7.9375 21.5625C7.9375 25.2921 9.41908 28.869 12.0563 31.5062C14.6935 34.1434 18.2704 35.625 22 35.625ZM25.75 33.15C23.314 33.95 20.686 33.95 18.25 33.15V30C18.25 29.5027 18.4475 29.0258 18.7992 28.6742C19.1508 28.3225 19.6277 28.125 20.125 28.125H23.875C24.3723 28.125 24.8492 28.3225 25.2008 28.6742C25.5525 29.0258 25.75 29.5027 25.75 30V33.15ZM20.125 23.4375C20.125 23.0667 20.235 22.7041 20.441 22.3958C20.647 22.0875 20.9399 21.8471 21.2825 21.7052C21.6251 21.5633 22.0021 21.5262 22.3658 21.5985C22.7295 21.6709 23.0636 21.8494 23.3258 22.1117C23.588 22.3739 23.7666 22.708 23.839 23.0717C23.9113 23.4354 23.8742 23.8124 23.7323 24.155C23.5904 24.4976 23.35 24.7905 23.0417 24.9965C22.7333 25.2025 22.3708 25.3125 22 25.3125C21.5027 25.3125 21.0258 25.115 20.6742 24.7633C20.3225 24.4117 20.125 23.9348 20.125 23.4375ZM22 9.375C24.7246 9.38004 27.3689 10.2979 29.5106 11.982C31.6524 13.666 33.1681 16.0192 33.8157 18.6657C34.4633 21.3122 34.2054 24.0993 33.0832 26.5821C31.9611 29.0648 30.0394 31.1 27.625 32.3625V30C27.62 29.0983 27.2903 28.2286 26.6963 27.5502C26.1023 26.8719 25.2838 26.4302 24.3906 26.3062C24.9852 25.8142 25.4136 25.1508 25.6172 24.4063C25.8208 23.6619 25.7897 22.8728 25.5282 22.1466C25.2668 21.4205 24.7876 20.7927 24.1562 20.3489C23.5248 19.9052 22.7718 19.6671 22 19.6671C21.2282 19.6671 20.4752 19.9052 19.8438 20.3489C19.2124 20.7927 18.7332 21.4205 18.4718 22.1466C18.2103 22.8728 18.1792 23.6619 18.3828 24.4063C18.5864 25.1508 19.0148 25.8142 19.6094 26.3062C18.7162 26.4302 17.8977 26.8719 17.3037 27.5502C16.7097 28.2286 16.38 29.0983 16.375 30V32.3625C13.9606 31.1 12.0389 29.0648 10.9167 26.5821C9.79459 24.0993 9.53672 21.3122 10.1843 18.6657C10.8319 16.0192 12.3476 13.666 14.4894 11.982C16.6311 10.2979 19.2754 9.38004 22 9.375Z" fill="#C6973D"></path><path d="M1.375 59.0625H8.875C9.12364 59.0625 9.3621 58.9637 9.53791 58.7879C9.71373 58.6121 9.8125 58.3736 9.8125 58.125V57.1125H15.7187C16.4487 57.1102 17.1761 57.1983 17.8844 57.375L24.8125 59.0625H25.225L32.3125 57.675C32.401 57.6561 32.4862 57.6245 32.5656 57.5812L42.775 52.1719C43.3086 51.8756 43.7134 51.3919 43.911 50.8144C44.1086 50.2369 44.085 49.6066 43.8447 49.0455C43.6044 48.4844 43.1645 48.0324 42.6102 47.7769C42.0558 47.5215 41.4264 47.4807 40.8437 47.6625L31.2625 50.8594H27.325L26.1531 50.475L29.2281 49.6312C29.974 49.4783 30.6287 49.0354 31.048 48.3998C31.4673 47.7642 31.617 46.9881 31.4641 46.2422C31.3111 45.4963 30.8682 44.8416 30.2326 44.4223C29.597 44.003 28.8209 43.8533 28.075 44.0062L19.9562 45.1687C19.8854 45.1787 19.8161 45.1976 19.75 45.225L16.375 46.5938C15.3192 47.0148 14.1929 47.2311 13.0562 47.2312H9.8125V45.9375C9.8125 45.6889 9.71373 45.4504 9.53791 45.2746C9.3621 45.0988 9.12364 45 8.875 45H1.375C1.12636 45 0.887903 45.0988 0.712088 45.2746C0.536272 45.4504 0.4375 45.6889 0.4375 45.9375V58.125C0.4375 58.3736 0.536272 58.6121 0.712088 58.7879C0.887903 58.9637 1.12636 59.0625 1.375 59.0625ZM9.8125 49.1062H13.0375C14.4084 49.1051 15.7668 48.8442 17.0406 48.3375L20.3312 47.0437L28.3375 45.9375C28.4606 45.9116 28.5876 45.9103 28.7112 45.9335C28.8349 45.9568 28.9527 46.0041 29.0581 46.0729C29.1634 46.1416 29.2542 46.2305 29.3252 46.3343C29.3962 46.4382 29.446 46.555 29.4719 46.6781C29.4977 46.8012 29.4991 46.9282 29.4758 47.0519C29.4526 47.1755 29.4053 47.2934 29.3365 47.3987C29.2677 47.504 29.1789 47.5948 29.075 47.6658C28.9712 47.7368 28.8544 47.7866 28.7312 47.8125L22.675 49.4719C22.4839 49.5312 22.3169 49.6501 22.1982 49.8112C22.0796 49.9723 22.0156 50.1671 22.0156 50.3672C22.0156 50.5673 22.0796 50.7621 22.1982 50.9232C22.3169 51.0842 22.4839 51.2032 22.675 51.2625L26.875 52.6875C26.9714 52.701 27.0692 52.701 27.1656 52.6875H31.4219C31.5183 52.701 31.6161 52.701 31.7125 52.6875L41.4344 49.4438C41.5375 49.4086 41.6484 49.4031 41.7545 49.428C41.8606 49.4529 41.9576 49.507 42.0344 49.5844C42.1022 49.6482 42.1531 49.7279 42.1826 49.8162C42.2121 49.9046 42.2191 49.9989 42.2031 50.0906C42.1895 50.1819 42.1543 50.2686 42.1005 50.3436C42.0467 50.4186 41.9758 50.4797 41.8937 50.5219L31.8062 55.8562L25.0656 57.1875L18.3344 55.5375C17.479 55.3238 16.6004 55.2167 15.7187 55.2188H9.8125V49.1062ZM2.3125 46.875H7.9375V57.1875H2.3125V46.875Z" fill="#C6973D"></path><path d="M6.0625 53.4375H4.1875V55.3125H6.0625V53.4375Z" fill="#C6973D"></path><path d="M19.5156 16.1063L19.2437 17.6531C19.2103 17.8289 19.2278 18.0106 19.2943 18.1767C19.3607 18.3428 19.4733 18.4864 19.6187 18.5906C19.7606 18.6953 19.9291 18.7578 20.1048 18.7711C20.2806 18.7844 20.4566 18.7478 20.6125 18.6656L22 17.9062L23.3875 18.6469C23.5394 18.7199 23.7066 18.7552 23.875 18.75C24.0736 18.7507 24.2673 18.6883 24.4281 18.5719C24.5736 18.4677 24.6862 18.324 24.7526 18.1579C24.8191 17.9918 24.8366 17.8101 24.8031 17.6344L24.5312 16.0875L25.6094 15C25.7357 14.8783 25.8254 14.7236 25.8683 14.5535C25.9111 14.3834 25.9053 14.2046 25.8516 14.0376C25.7979 13.8706 25.6984 13.722 25.5644 13.6087C25.4304 13.4955 25.2674 13.4221 25.0937 13.3969L23.5375 13.1719L22.8437 11.7656C22.767 11.6071 22.6471 11.4734 22.4979 11.3799C22.3487 11.2864 22.1761 11.2368 22 11.2368C21.8239 11.2368 21.6513 11.2864 21.5021 11.3799C21.3529 11.4734 21.233 11.6071 21.1562 11.7656L20.4625 13.1719L18.9062 13.3969C18.7326 13.4221 18.5696 13.4955 18.4356 13.6087C18.3016 13.722 18.2021 13.8706 18.1484 14.0376C18.0947 14.2046 18.0889 14.3834 18.1317 14.5535C18.1745 14.7236 18.2642 14.8783 18.3906 15L19.5156 16.1063ZM21.2219 15C21.3712 14.9784 21.513 14.9211 21.6354 14.833C21.7578 14.7448 21.8572 14.6285 21.925 14.4938L22 14.3438L22.075 14.4938C22.1428 14.6285 22.2422 14.7448 22.3646 14.833C22.487 14.9211 22.6288 14.9784 22.7781 15H22.9375L22.8156 15.1125C22.7057 15.2188 22.6234 15.3505 22.576 15.4959C22.5286 15.6413 22.5176 15.7962 22.5437 15.9469V16.1063L22.4031 16.0312C22.2661 15.9635 22.1153 15.9282 21.9625 15.9282C21.8097 15.9282 21.6589 15.9635 21.5219 16.0312L21.3812 16.1063V15.9469C21.4074 15.7962 21.3964 15.6413 21.349 15.4959C21.3016 15.3505 21.2193 15.2188 21.1094 15.1125L21.0625 15H21.2219Z" fill="#C6973D"></path></svg> 