<?xml version="1.0" encoding="UTF-8"?> <svg xmlns="http://www.w3.org/2000/svg" width="60" height="60" viewBox="0 0 60 60" fill="none"><path d="M40.644 59.0235V44.5064C40.6424 43.2235 40.1321 41.9935 39.2249 41.0864C38.3178 40.1792 37.0878 39.6689 35.8049 39.6673H33.2015C34.2425 38.9788 35.034 37.9732 35.4586 36.7995C35.8832 35.6259 35.9183 34.3466 35.5588 33.1514C35.1993 31.9562 34.4643 30.9087 33.4627 30.164C32.4611 29.4193 31.2462 29.0172 29.9981 29.0172C28.75 29.0172 27.5351 29.4193 26.5335 30.164C25.5319 30.9087 24.7968 31.9562 24.4373 33.1514C24.0778 34.3466 24.113 35.6259 24.5376 36.7995C24.9622 37.9732 25.7536 38.9788 26.7946 39.6673H24.1912C22.9083 39.6689 21.6784 40.1792 20.7712 41.0864C19.864 41.9935 19.3537 43.2235 19.3522 44.5064V59.0235C19.3522 59.2802 19.4541 59.5264 19.6356 59.7079C19.8171 59.8894 20.0633 59.9913 20.32 59.9913H39.6762C39.9328 59.9913 40.179 59.8894 40.3605 59.7079C40.542 59.5264 40.644 59.2802 40.644 59.0235ZM26.1268 34.8283C26.1268 34.0626 26.3539 33.3142 26.7793 32.6776C27.2046 32.0409 27.8092 31.5447 28.5166 31.2517C29.224 30.9587 30.0024 30.8821 30.7533 31.0314C31.5043 31.1808 32.194 31.5495 32.7354 32.0909C33.2768 32.6323 33.6455 33.3221 33.7949 34.0731C33.9443 34.824 33.8676 35.6024 33.5746 36.3098C33.2816 37.0171 32.7854 37.6217 32.1488 38.0471C31.5122 38.4725 30.7637 38.6995 29.9981 38.6995C28.9714 38.6995 27.9867 38.2917 27.2607 37.5657C26.5347 36.8397 26.1268 35.855 26.1268 34.8283ZM31.3791 50.1487L29.9981 52.3582L28.617 50.1487L29.9981 44.6254L31.3791 50.1487ZM38.7083 58.0557H21.2878V44.5064C21.2878 43.7363 21.5937 42.9979 22.1382 42.4534C22.6827 41.9089 23.4212 41.603 24.1912 41.603H28.7583L26.6398 50.0781C26.6081 50.2043 26.6023 50.3356 26.6226 50.4641C26.6429 50.5927 26.6889 50.7158 26.7578 50.8262L29.1774 54.6974C29.2642 54.8375 29.3853 54.953 29.5292 55.0332C29.6732 55.1133 29.8352 55.1554 30 55.1554C30.1648 55.1554 30.3268 55.1133 30.4708 55.0332C30.6147 54.953 30.7358 54.8375 30.8226 54.6974L33.2422 50.8262C33.3111 50.7158 33.3571 50.5927 33.3774 50.4641C33.3977 50.3356 33.3919 50.2043 33.3602 50.0781L31.2378 41.603H35.8049C36.575 41.603 37.3135 41.9089 37.858 42.4534C38.4025 42.9979 38.7083 43.7363 38.7083 44.5064V58.0557Z" fill="#C6973D"></path><path d="M34.8371 10.6331H37.7405C37.9273 10.6333 38.1101 10.5795 38.2669 10.4781C38.4238 10.3768 38.5479 10.2322 38.6245 10.0619C38.701 9.89153 38.7266 9.70269 38.6982 9.51812C38.6698 9.33355 38.5886 9.16114 38.4645 9.02167L30.722 0.311393C30.6284 0.213004 30.5158 0.134664 30.391 0.0811341C30.2663 0.0276037 30.1319 0 29.9961 0C29.8604 0 29.726 0.0276037 29.6012 0.0811341C29.4764 0.134664 29.3638 0.213004 29.2703 0.311393L21.5278 9.02167C21.4034 9.16138 21.3222 9.33416 21.2939 9.51908C21.2656 9.704 21.2916 9.89316 21.3686 10.0636C21.4456 10.2341 21.5703 10.3787 21.7278 10.4797C21.8852 10.5808 22.0685 10.634 22.2556 10.6331H25.159V24.1824H27.0946V9.66527C27.0946 9.40859 26.9927 9.16242 26.8112 8.98092C26.6297 8.79942 26.3835 8.69746 26.1268 8.69746H24.4109L29.9981 2.41154L35.5852 8.69746H33.8693C33.6126 8.69746 33.3665 8.79942 33.185 8.98092C33.0035 9.16242 32.9015 9.40859 32.9015 9.66527V20.3112H34.8371V10.6331Z" fill="#C6973D"></path><path d="M32.9015 22.2468H34.8371V24.1824H32.9015V22.2468Z" fill="#C6973D"></path><path d="M11.6097 19.3434H14.5131C14.6991 19.3433 14.8811 19.2897 15.0374 19.1889C15.1937 19.0882 15.3177 18.9445 15.3945 18.7751C15.4712 18.6057 15.4976 18.4178 15.4704 18.2338C15.4431 18.0499 15.3635 17.8776 15.2409 17.7378L8.46626 9.99529C8.37284 9.89665 8.26029 9.81809 8.13549 9.7644C8.01069 9.71071 7.87626 9.68302 7.7404 9.68302C7.60455 9.68302 7.47011 9.71071 7.34532 9.7644C7.22052 9.81809 7.10797 9.89665 7.01455 9.99529L0.239886 17.7378C0.117544 17.8774 0.0379429 18.0493 0.0105749 18.2329C-0.016793 18.4165 0.00922714 18.6041 0.0855325 18.7733C0.161838 18.9426 0.285209 19.0863 0.440933 19.1874C0.596657 19.2884 0.778163 19.3426 0.963807 19.3434H3.86723V31.9249H5.80285V18.3755C5.80285 18.1189 5.70089 17.8727 5.51939 17.6912C5.33789 17.5097 5.09172 17.4077 4.83504 17.4077H3.09299L7.73847 12.1032L12.384 17.4077H10.6419C10.3852 17.4077 10.139 17.5097 9.95755 17.6912C9.77605 17.8727 9.67409 18.1189 9.67409 18.3755V28.0536H11.6097V19.3434Z" fill="#C6973D"></path><path d="M9.67409 29.9893H11.6097V31.9249H9.67409V29.9893Z" fill="#C6973D"></path><path d="M56.1289 19.3434H59.0323C59.2183 19.3433 59.4003 19.2897 59.5566 19.1889C59.7129 19.0882 59.8369 18.9445 59.9137 18.7751C59.9905 18.6057 60.0168 18.4178 59.9896 18.2338C59.9623 18.0499 59.8827 17.8776 59.7601 17.7378L52.9855 9.99529C52.892 9.89665 52.7795 9.81809 52.6547 9.7644C52.5299 9.71071 52.3955 9.68302 52.2596 9.68302C52.1237 9.68302 51.9893 9.71071 51.8645 9.7644C51.7397 9.81809 51.6272 9.89665 51.5337 9.99529L44.7591 17.7378C44.6367 17.8774 44.5571 18.0493 44.5298 18.2329C44.5024 18.4165 44.5284 18.6041 44.6047 18.7733C44.681 18.9426 44.8044 19.0863 44.9601 19.1874C45.1159 19.2884 45.2974 19.3426 45.483 19.3434H48.3864V31.9249H50.3221V18.3755C50.3221 18.1189 50.2201 17.8727 50.0386 17.6912C49.8571 17.5097 49.6109 17.4077 49.3542 17.4077H47.6122L52.2577 12.1032L56.9032 17.4077H55.1611C54.9044 17.4077 54.6582 17.5097 54.4767 17.6912C54.2953 17.8727 54.1933 18.1189 54.1933 18.3755V28.0536H56.1289V19.3434Z" fill="#C6973D"></path><path d="M54.1933 29.9893H56.1289V31.9249H54.1933V29.9893Z" fill="#C6973D"></path></svg> 