<?xml version="1.0" encoding="UTF-8"?> <svg xmlns="http://www.w3.org/2000/svg" width="96" height="96" viewBox="0 0 96 96" fill="none"><path d="M66.5801 68.866V45.4975C67.0419 45.1198 67.4577 44.6889 67.8188 44.2139C68.5221 43.2919 69.0003 42.2183 69.2154 41.0788C69.4305 39.9392 69.3764 38.7652 69.0575 37.6502C69.03 37.5506 68.9921 37.454 68.9445 37.3622L63.3083 26.3531C63.1787 26.1002 62.982 25.8878 62.7397 25.7392C62.4975 25.5907 62.219 25.5116 61.9348 25.5108H34.0636C33.7786 25.5108 33.4992 25.5894 33.256 25.738C33.0129 25.8866 32.8155 26.0995 32.6855 26.3531L27.0494 37.3622C27.0017 37.454 26.9639 37.5506 26.9363 37.6502C26.6174 38.7652 26.5634 39.9392 26.7784 41.0788C26.9935 42.2183 27.4717 43.2919 28.175 44.2139C28.5361 44.6889 28.9519 45.1198 29.4138 45.4975V68.866C29.4138 69.2767 29.5769 69.6705 29.8673 69.9609C30.1577 70.2513 30.5515 70.4144 30.9622 70.4144H65.0317C65.4423 70.4144 65.8362 70.2513 66.1265 69.9609C66.4169 69.6705 66.5801 69.2767 66.5801 68.866ZM60.9888 28.6076L64.9527 36.3496H57.3036C57.3036 36.3062 57.3036 36.2644 57.2896 36.2211C57.2768 36.1422 57.2576 36.0646 57.2323 35.9888L54.7874 28.6076H60.9888ZM44.472 28.6076H51.5265L54.0891 36.3496H41.9094L44.472 28.6076ZM54.0891 39.4464C53.7244 40.782 52.9307 41.9607 51.8303 42.8009C50.7299 43.6411 49.3837 44.0963 47.9992 44.0963C46.6147 44.0963 45.2686 43.6411 44.1682 42.8009C43.0678 41.9607 42.2741 40.782 41.9094 39.4464H54.0891ZM35.0097 28.6076H41.2033L38.7584 35.9888C38.7331 36.0646 38.7139 36.1422 38.7011 36.2211C38.7011 36.2644 38.7011 36.3062 38.6871 36.3496H31.038L35.0097 28.6076ZM30.6571 42.3434C30.0282 41.5135 29.7173 40.4858 29.7807 39.4464H38.7444C38.7553 39.5006 38.7692 39.5548 38.78 39.609L38.4317 40.8632C38.2102 41.6555 37.772 42.3702 37.1663 42.9268C36.5606 43.4835 35.8115 43.8599 35.0033 44.0138C34.1952 44.1677 33.3602 44.0928 32.5923 43.7977C31.8244 43.5026 31.1542 42.9989 30.6571 42.3434ZM63.4832 67.3176H32.5152V47.0026C34.0517 47.352 35.6592 47.2064 37.108 46.5868C38.5567 45.9671 39.7723 44.9051 40.5808 43.5527C40.6598 43.6534 40.7357 43.7602 40.8131 43.8624C41.6971 44.9062 42.798 45.7448 44.039 46.32C45.28 46.8952 46.6314 47.1932 47.9992 47.1932C49.3671 47.1932 50.7185 46.8952 51.9595 46.32C53.2005 45.7448 54.3013 44.9062 55.1854 43.8624C55.269 43.7649 55.3402 43.658 55.4176 43.5527C56.2262 44.9051 57.4418 45.9671 58.8905 46.5868C60.3392 47.2064 61.9468 47.352 63.4832 47.0026V67.3176ZM61.8265 44.0916C60.8618 44.0912 59.9239 43.775 59.156 43.1911C58.3882 42.6072 57.8327 41.788 57.5745 40.8585L57.2262 39.609C57.237 39.5548 57.2509 39.5006 57.2618 39.4464H66.2255C66.2604 40.0448 66.1723 40.6439 65.9668 41.207C65.7613 41.7701 65.4426 42.2851 65.0305 42.7203C64.6184 43.1555 64.1214 43.5017 63.5704 43.7375C63.0194 43.9734 62.4258 44.0939 61.8265 44.0916Z" fill="#717E8B"></path><path d="M49.5476 20.0914V6.42206L52.1505 10.1382L54.6868 8.36376L49.2674 0.621751C49.1174 0.42822 48.9252 0.27157 48.7054 0.1638C48.4856 0.0560307 48.244 0 47.9992 0C47.7544 0 47.5129 0.0560307 47.293 0.1638C47.0732 0.27157 46.881 0.42822 46.7311 0.621751L41.3117 8.36376L43.848 10.1382L46.4508 6.42206V20.0914H49.5476Z" fill="#717E8B"></path><path d="M47.9992 95.9631C48.2482 95.9629 48.4934 95.9027 48.7142 95.7877C48.935 95.6726 49.1247 95.5059 49.2674 95.3019L54.6868 87.5599L52.1505 85.7854L49.5476 89.5031V75.8338H46.4508V89.5031L43.848 85.7869L41.3117 87.5614L46.7311 95.3034C46.8739 95.5072 47.0637 95.6735 47.2845 95.7883C47.5052 95.9032 47.7504 95.9631 47.9992 95.9631Z" fill="#717E8B"></path><path d="M95.3385 46.6944L87.5965 41.275L85.822 43.8113L89.5398 46.4142H75.8705V49.511H89.5398L85.8236 52.1139L87.5981 54.6501L95.3401 49.2307C95.5439 49.0879 95.7103 48.8981 95.8251 48.6774C95.94 48.4566 96 48.2114 96 47.9626C96 47.7137 95.94 47.4685 95.8251 47.2478C95.7103 47.027 95.5423 46.8372 95.3385 46.6944Z" fill="#717E8B"></path><path d="M0.659939 49.2307L8.40195 54.6501L10.1764 52.1139L6.4587 49.511H20.128V46.4142H6.4587L10.1749 43.8113L8.40195 41.275L0.659939 46.6944C0.456128 46.8372 0.289736 47.027 0.174858 47.2478C0.0599796 47.4685 0 47.7137 0 47.9626C0 48.2114 0.0599796 48.4566 0.174858 48.6774C0.289736 48.8981 0.456128 49.0879 0.659939 49.2307Z" fill="#717E8B"></path><path d="M93.8675 11.5535L95.5088 2.24757C95.5523 2.00229 95.5359 1.75015 95.461 1.51255C95.3862 1.27496 95.2552 1.05893 95.079 0.882787C94.9029 0.706648 94.6869 0.575605 94.4493 0.500779C94.2117 0.425954 93.9595 0.409555 93.7142 0.452975L84.4084 2.09428L84.9472 5.14463L89.4159 4.3565L68.802 24.9704L70.9914 27.1598L91.6053 6.54594L90.8172 11.0146L93.8675 11.5535Z" fill="#717E8B"></path><path d="M2.13092 84.3717L0.489615 93.6776C0.449797 93.9003 0.459264 94.129 0.51735 94.3477C0.575436 94.5663 0.68073 94.7696 0.825823 94.9432C0.970915 95.1168 1.15228 95.2564 1.35716 95.3524C1.56204 95.4483 1.78546 95.4982 2.01169 95.4985C2.10199 95.4984 2.19212 95.4906 2.28112 95.4753L11.587 93.834L11.0482 90.7836L6.57793 91.5718L26.1017 72.0495L23.9123 69.8601L4.39314 89.3792L5.18127 84.9106L2.13092 84.3717Z" fill="#717E8B"></path><path d="M27.1965 24.9704L6.58258 4.3565L11.0513 5.14463L11.5901 2.09428L2.28421 0.452975C2.03893 0.409555 1.78679 0.425954 1.54919 0.500779C1.3116 0.575605 1.09557 0.706648 0.919427 0.882787C0.743288 1.05893 0.612244 1.27496 0.537419 1.51255C0.462593 1.75015 0.446195 2.00229 0.489615 2.24757L2.13092 11.5535L5.18127 11.0146L4.39314 6.54594L25.007 27.1598L27.1965 24.9704Z" fill="#717E8B"></path><path d="M69.8967 72.0495L89.4159 91.5687L84.9472 90.7805L84.4084 93.8309L93.7142 95.4722C93.8032 95.4875 93.8934 95.4953 93.9837 95.4954C94.2099 95.4955 94.4333 95.446 94.6383 95.3504C94.8433 95.2549 95.0249 95.1155 95.1703 94.9423C95.3156 94.769 95.4213 94.566 95.4798 94.3475C95.5383 94.129 95.5482 93.9003 95.5088 93.6776L93.8675 84.3717L90.8172 84.9106L91.6053 89.3808L72.0862 69.8601L69.8967 72.0495Z" fill="#717E8B"></path><path d="M56.5154 50.2852H39.483C39.0724 50.2852 38.6785 50.4483 38.3881 50.7387C38.0978 51.0291 37.9346 51.4229 37.9346 51.8336V62.6724C37.9346 63.0831 38.0978 63.4769 38.3881 63.7673C38.6785 64.0577 39.0724 64.2208 39.483 64.2208H56.5154C56.9261 64.2208 57.3199 64.0577 57.6103 63.7673C57.9007 63.4769 58.0638 63.0831 58.0638 62.6724V51.8336C58.0638 51.4229 57.9007 51.0291 57.6103 50.7387C57.3199 50.4483 56.9261 50.2852 56.5154 50.2852ZM54.967 61.124H41.0314V53.382H54.967V61.124Z" fill="#717E8B"></path></svg> 