<svg width="106" height="36" viewBox="-4 -4 106 36" fill="none" xmlns="http://www.w3.org/2000/svg">
<g id="Satisfly_black">
<path id="Vector" d="M8.23427 9.11398C5.83072 7.7597 5.08136 6.99778 5.08136 5.84095C5.08136 4.68412 6.0186 3.83635 7.43956 3.83635C9.05705 3.83635 10.1087 4.90948 10.3355 6.80032H12.0933V1.9734H10.2491V2.96283C9.22765 2.1451 7.92114 1.74805 6.27558 1.74805C2.44242 1.74805 0 3.9222 0 7.33474C0 9.76215 1.22013 11.3139 4.79847 13.488C7.04221 14.8423 7.75054 15.6665 7.75054 16.8448C7.75054 18.1154 6.78523 18.9331 5.2822 18.9331C3.32135 18.9331 1.98676 17.5509 1.76001 15.3209H0V20.7402H1.84639V19.4525C3.03845 20.4848 4.68617 21.0321 6.69453 21.0321C10.5817 21.0321 12.9572 18.9331 12.9572 15.4626C12.9572 12.8098 11.642 11.0606 8.23427 9.11398Z" fill="#090E18"/>
<path id="Vector_2" d="M27.7567 18.2584C27.1088 18.2584 26.5063 17.8914 26.5063 16.6487V12.6974C26.5063 8.77624 24.377 7.11719 21.0276 7.11719C19.0689 7.11719 16.8252 7.93491 15.0069 9.96741L15.5187 11.6844C16.8144 10.4997 18.0453 10.1327 19.097 10.1327C20.7145 10.1327 21.3386 11.0362 21.3386 12.7082V13.2168L18.7277 13.6461C15.8037 14.1268 14.2402 15.3395 14.2402 17.5694C14.2402 19.4023 15.7735 20.9841 17.933 20.9841C19.1812 20.9841 20.3452 20.4476 21.6042 19.3186C22.5393 20.4476 23.5629 20.8983 25.1242 20.8983C26.4744 20.9212 27.7934 20.4943 28.871 19.6856V17.9686C28.5342 18.167 28.1481 18.2674 27.7567 18.2584ZM21.3386 17.6639C21.0575 17.9327 20.6893 18.0933 20.2999 18.1167C19.5052 18.1167 18.9653 17.636 18.9653 16.7903C18.9653 16.0284 19.3346 15.4361 20.7534 15.2386L21.3494 15.1528L21.3386 17.6639Z" fill="#090E18"/>
<path id="Vector_3" d="M45.9308 5.57976C46.2932 5.58993 46.6541 5.52776 46.992 5.39691C47.3299 5.26607 47.638 5.06921 47.898 4.81799C48.158 4.56677 48.3647 4.26627 48.5058 3.93428C48.6469 3.6023 48.7196 3.24555 48.7196 2.88515C48.7196 2.52474 48.6469 2.16799 48.5058 1.83601C48.3647 1.50402 48.158 1.20352 47.898 0.9523C47.638 0.701076 47.3299 0.504222 46.992 0.373378C46.6541 0.242534 46.2932 0.180358 45.9308 0.190526C45.2249 0.210326 44.5547 0.502906 44.0625 1.00609C43.5703 1.50926 43.2949 2.18337 43.2949 2.88515C43.2949 3.58692 43.5703 4.26103 44.0625 4.7642C44.5547 5.26738 45.2249 5.55996 45.9308 5.57976Z" fill="#090E18"/>
<path id="Vector_4" d="M58.8821 11.7378C57.351 10.8364 56.8673 10.3556 56.8673 9.76326C56.8673 9.22669 57.3208 8.91763 58.0874 8.91763C59.3658 8.91763 60.3031 9.79116 60.5579 11.1733H62.2618V7.28004H60.4175V8.06986C59.5926 7.3938 58.4286 7.05469 56.9796 7.05469C53.885 7.05469 51.8701 8.63433 51.8701 11.0338C51.8701 12.9526 52.9196 14.3348 55.5888 15.9423C57.2646 16.9317 57.8045 17.4662 57.8045 18.1165C57.8045 18.7668 57.351 19.1595 56.5261 19.1595C55.1353 19.1595 54.0275 18.1165 53.8007 16.6484H52.0969V20.7413H53.9994V19.8657C54.8503 20.5718 56.1848 20.9946 57.6058 20.9946C60.9272 20.9946 62.7153 19.4922 62.7153 16.7021C62.7153 14.7297 61.6376 13.3196 58.8821 11.7378Z" fill="#090E18"/>
<path id="Vector_5" d="M94.9893 11.9689L93.4344 15.7162L90.3679 9.19805H92.4108V7.2793H83.2695V9.19805H84.8309L90.8819 21.8416L88.3207 27.9992H90.5471L97.179 12.0461L94.9893 11.9689Z" fill="#090E18"/>
<path id="Vector_6" d="M48.801 18.8218V7.28144V7.2793L37.5801 7.28144V9.19805V9.20449H43.6332V18.8218H41.6443V20.7406H50.8158V18.8218H48.801Z" fill="#090E18"/>
<path id="Vector_7" d="M81.7895 1.97461L76.6498 5.78635V18.8227H74.6328V20.7414H83.8043V18.8227H81.7895V1.97461Z" fill="#090E18"/>
<path id="Vector_8" d="M74.4563 0C68.6083 0 65.8527 3.32884 65.8527 7.11053V7.28009H63.8379V9.19884H65.8527V18.8226H63.8379V20.7414H73.1498V18.8226H71.0205V9.19884H74.2015V7.28009H71.0205V5.72835C71.0205 3.92335 71.1911 3.21723 71.6165 2.76437C72.0419 2.31151 72.612 2.0883 73.6335 2.0883C74.3023 2.10134 74.966 2.20754 75.6051 2.4038L78.486 0.25755C77.1494 0.0884573 75.8036 0.00243995 74.4563 0V0Z" fill="#090E18"/>
<path id="Vector_9" d="M37.7267 18.2851C36.3338 18.2851 35.5672 17.579 35.5672 15.8298V6.19531L30.4297 10.0071V16.7398C30.4297 20.0129 32.7857 21.1697 35.1806 21.1697C37.1976 21.1697 38.8518 20.4636 39.9791 19.2231V17.5061C39.1736 18.0276 38.4934 18.2851 37.7267 18.2851Z" fill="#090E18"/>
<path id="Vector_10" d="M30.4152 2.35352L30.4131 5.42909L27.7158 7.40579V9.29664L37.0817 2.35352H30.4152Z" fill="#090E18"/>
<path id="Vector_11" d="M28.7998 9.29237L28.8192 9.27734H28.7998V9.29237Z" fill="#090E18"/>
</g>
</svg>
