<svg width="156" height="45" viewBox="-4 -3 156 45" xmlns="http://www.w3.org/2000/svg" xmlns:xlink="http://www.w3.org/1999/xlink">
  <defs>
    <linearGradient x1="1.33%" y1="121.41%" x2="63.82%" y2="28.25%" id="g1">
      <stop stop-color="#F0EFF0" offset="41.81%"/>
      <stop stop-color="#CFD1D2" offset="100%"/>
    </linearGradient>
    <linearGradient x1="2.44%" y1="48.99%" x2="98.07%" y2="48.99%" id="g2">
      <stop stop-color="#FAEC41" offset="0%"/>
      <stop stop-color="#F7CD36" offset="18.01%"/>
      <stop stop-color="#F5B22D" offset="37.57%"/>
      <stop stop-color="#F39F26" offset="57.58%"/>
      <stop stop-color="#F29422" offset="78.12%"/>
      <stop stop-color="#F29021" offset="100%"/>
    </linearGradient>
    <linearGradient x1="-41.77%" y1="59.72%" x2="71.25%" y2="48.08%" id="g3">
      <stop stop-color="#E31469" offset="25.18%"/>
      <stop stop-color="#DF1467" offset="26.73%"/>
      <stop stop-color="#BD1459" offset="40.65%"/>
      <stop stop-color="#A2154E" offset="54.88%"/>
      <stop stop-color="#8F1546" offset="69.34%"/>
      <stop stop-color="#841542" offset="84.19%"/>
      <stop stop-color="#801540" offset="100%"/>
    </linearGradient>
  </defs>
  <g fill="none" fill-rule="nonzero">
    <g transform="translate(47, 9)" fill="#221F1F">
      <path d="M19.23,10.66C16.51,10.27,14.18,10.27,12.43,10.27C10.49,10.27,8.16,10.46,8.16,12.79C8.16,13.95,8.93,14.34,11.07,15.31L12.82,16.08C16.7,17.83,18.26,19.18,18.26,22.48C18.26,27.71,14.18,29.84,7.96,29.84C4.86,29.84,1.36,29.26,0.58,29.06L1.17,25.58C3.11,25.77,5.24,25.96,8.35,25.96C10.88,25.96,13.01,25.58,13.01,23.25C13.01,21.89,12.43,21.51,9.71,20.34L8.16,19.76C4.66,18.21,3.11,16.47,3.11,13.37C3.11,7.75,7.77,6.59,12.63,6.59C15.93,6.59,18.65,6.98,20.2,7.36L19.23,10.66Z"/>
      <path d="M40.79,19.57L25.83,19.57C25.64,20.73,25.44,21.51,25.44,22.09C25.44,24.22,26.61,25.38,30.69,25.38C33.02,25.38,35.93,25.19,38.85,24.8L38.26,28.68C36.52,29.06,33.41,29.64,29.72,29.64C23.31,29.64,20.39,27.13,20.39,21.89C20.39,20.73,20.59,19.38,20.78,18.02L20.98,16.66C22.53,9.3,26.61,6.2,32.63,6.2C38.46,6.2,41.37,9.11,41.37,14.14C41.57,15.69,41.18,17.44,40.79,19.57ZM32.44,10.46C28.36,10.46,27,13.37,26.61,15.89L26.61,16.28L36.32,16.28C36.52,15.5,36.52,14.73,36.52,14.14C36.52,12.01,35.74,10.46,32.44,10.46Z"/>
      <path d="M63.51,15.5L61.18,29.06L55.94,29.06L58.46,14.92C58.66,14.14,58.66,13.37,58.66,12.79C58.66,11.24,57.88,10.46,55.94,10.46C54.19,10.46,52.25,10.85,49.92,12.01L47,28.87L41.76,28.87L45.64,6.59L50.69,6.59L50.5,8.33C53.03,6.78,55.74,6.01,57.88,6.01C62.54,6.01,63.9,8.53,63.9,11.82C63.9,12.98,63.71,14.34,63.51,15.5Z"/>
      <path d="M80.22,10.85L74.78,10.85L72.64,22.86C72.45,23.64,72.45,24.03,72.45,24.41C72.45,25.19,72.84,25.58,74.2,25.58C75.36,25.58,76.92,25.58,77.5,25.38L76.92,28.87C76.33,29.06,74.39,29.45,72.25,29.45C68.56,29.45,67.01,27.9,67.01,24.8C67.01,24.22,67.01,23.44,67.2,22.67L69.34,10.85L65.26,10.46L65.84,6.59L69.92,6.59L70.89,0.97L76.14,0.97L75.17,6.59L80.61,6.59L80.22,10.85Z"/>
      <path d="M100.03,19.57L85.07,19.57C84.88,20.73,84.68,21.51,84.68,22.09C84.68,24.22,85.85,25.38,89.93,25.38C92.26,25.38,95.17,25.19,98.09,24.8L97.5,28.68C95.76,29.06,92.65,29.64,88.96,29.64C82.55,29.64,79.63,27.13,79.63,21.89C79.63,20.73,79.83,19.38,80.02,18.02L80.22,16.66C81.77,9.3,85.85,6.2,91.87,6.2C97.7,6.2,100.61,9.11,100.61,14.14C100.61,15.69,100.42,17.44,100.03,19.57ZM91.48,10.46C87.4,10.46,86.04,13.37,85.66,15.89L85.66,16.28L95.37,16.28C95.56,15.5,95.56,14.73,95.56,14.14C95.56,12.01,94.78,10.46,91.48,10.46Z"/>
    </g>
    <path d="M59.75,0.26C57.41,0.26,53.91,1.52,51.77,3.2L44.96,8.38L77.85,8.38C80.18,8.38,83.69,7.12,85.83,5.44L92.64,0.26L59.75,0.26Z" fill="url(#g1)"/>
    <path d="M36.59,4.74C34.25,4.74,30.75,6,28.61,7.68L21.8,12.86L54.69,12.86C57.02,12.86,60.53,11.6,62.67,9.92L69.48,4.74L36.59,4.74Z" fill="url(#g2)"/>
    <path d="M14.79,8.66C12.46,8.66,8.95,9.92,6.81,11.6L0,16.78L32.89,16.78C35.23,16.78,38.73,15.52,40.87,13.84L47.68,8.66L14.79,8.66Z" fill="url(#g3)"/>
  </g>
</svg>
